/* XPM */
static const char * frog5_xpm[] = {
/* columns rows colors chars-per-pixel */
"60 60 232 2 ",
"   c #03341C",
".  c #1F1D26",
"X  c #0E3320",
"o  c #2F2C35",
"O  c #0C411F",
"+  c #174328",
"@  c #017C3A",
"#  c #3D6C46",
"$  c #6D6D73",
"%  c #04891C",
"&  c #118C1E",
"*  c #0E911E",
"=  c #1A9618",
"-  c #239C1D",
";  c #2A9F15",
":  c #349D1B",
">  c #0FA11A",
",  c #3AA817",
"<  c #2FA71C",
"1  c #0C8C2D",
"2  c #088B27",
"3  c #138C29",
"4  c #0C9527",
"5  c #1A9524",
"6  c #14932C",
"7  c #18992B",
"8  c #018633",
"9  c #0C8C32",
"0  c #03843B",
"q  c #008B39",
"w  c #068938",
"e  c #148C3A",
"r  c #0B9334",
"t  c #04913F",
"y  c #0C9439",
"u  c #139233",
"i  c #13913C",
"p  c #1C9439",
"a  c #179A37",
"s  c #249B24",
"d  c #2A9B24",
"f  c #22952C",
"g  c #299A28",
"h  c #339D2C",
"j  c #349B26",
"k  c #2B9C32",
"l  c #249B3C",
"z  c #2C9C3D",
"x  c #259635",
"c  c #319C33",
"v  c #359D3A",
"b  c #3A9C34",
"n  c #1BA537",
"m  c #24A12C",
"M  c #26A228",
"N  c #3CA225",
"B  c #34A22C",
"V  c #3CA32B",
"C  c #35A727",
"Z  c #3FB025",
"A  c #2DA234",
"S  c #26A937",
"D  c #34A432",
"F  c #3CA433",
"G  c #39A739",
"H  c #46A61B",
"J  c #53AB1D",
"K  c #5AAC1D",
"L  c #59B21B",
"P  c #45AC10",
"I  c #6AB70E",
"U  c #63AD1A",
"Y  c #64B31D",
"T  c #6CB41C",
"R  c #69B716",
"E  c #7DBD13",
"W  c #75B51D",
"Q  c #74BA1B",
"!  c #7DBC1D",
"~  c #76B717",
"^  c #72AE17",
"/  c #459F26",
"(  c #4B9E35",
")  c #44A424",
"_  c #4BAB23",
"`  c #42A42A",
"'  c #4CA42D",
"]  c #45A92C",
"[  c #4DAC2C",
"{  c #44AA25",
"}  c #53AC25",
"|  c #5BAD23",
" . c #56A62A",
".. c #54AC2B",
"X. c #5CAB2C",
"o. c #5EA22D",
"O. c #4DB127",
"+. c #56B122",
"@. c #5CB123",
"#. c #5DB229",
"$. c #44A434",
"%. c #47A937",
"&. c #52A533",
"*. c #54AC32",
"=. c #58AA38",
"-. c #58B233",
";. c #68AE28",
":. c #71AF21",
">. c #63B424",
",. c #6BB324",
"<. c #64B22A",
"1. c #6CB12A",
"2. c #6ABA2B",
"3. c #72B423",
"4. c #7BBB24",
"5. c #72B32A",
"6. c #77B827",
"7. c #68AD32",
"8. c #74B635",
"9. c #66B835",
"0. c #7EC131",
"q. c #008146",
"w. c #038B44",
"e. c #00894C",
"r. c #088A49",
"t. c #198E4A",
"y. c #04964C",
"u. c #0C934B",
"i. c #059A48",
"p. c #1A9543",
"a. c #179945",
"s. c #048A51",
"d. c #069955",
"f. c #159753",
"g. c #249846",
"h. c #389D45",
"j. c #349B53",
"k. c #14A149",
"l. c #12A251",
"z. c #009067",
"x. c #439258",
"c. c #44A248",
"v. c #54A547",
"b. c #5DB24B",
"n. c #48A85B",
"m. c #5BB15C",
"M. c #69AD4A",
"N. c #6BB648",
"B. c #77B348",
"V. c #78BC50",
"C. c #6BAD56",
"Z. c #509760",
"A. c #6B9F67",
"S. c #50B364",
"D. c #7ABF68",
"F. c #7CC659",
"G. c #8EBD0E",
"H. c #84BE13",
"J. c #8BBE15",
"K. c #85BD1B",
"L. c #8CBE1C",
"P. c #80B41F",
"I. c #91BF1A",
"U. c #99BF15",
"Y. c #90BF0C",
"T. c #87BC22",
"R. c #9EBF27",
"E. c #8AC30E",
"W. c #84C007",
"Q. c #93C20E",
"!. c #9BC50E",
"~. c #8DC116",
"^. c #85C01C",
"/. c #8CC11C",
"(. c #85C015",
"). c #94C314",
"_. c #9BC513",
"`. c #92C21A",
"'. c #9BC51B",
"]. c #9FC810",
"[. c #A3C70C",
"{. c #A5C90C",
"}. c #A6C808",
"|. c #A3C614",
" X c #ABCA14",
".X c #A6C814",
"XX c #8AC120",
"oX c #94C223",
"OX c #89C438",
"+X c #97C83A",
"@X c #AACB2C",
"#X c #B4CF29",
"$X c #A8C933",
"%X c #BAD33C",
"&X c #B3D036",
"*X c #8EC841",
"=X c #96C549",
"-X c #87C359",
";X c #9BCC5B",
":X c #97C95B",
">X c #A2CE48",
",X c #BAD44B",
"<X c #B8D348",
"1X c #A5CD58",
"2X c #ABD35C",
"3X c #AAD558",
"4X c #BED655",
"5X c #BDD45B",
"6X c #B5D457",
"7X c #B0CE4D",
"8X c #8AC361",
"9X c #9BCD61",
"0X c #96C362",
"qX c #A2CB63",
"wX c #B6D461",
"eX c #C5DB53",
"rX c #C2D65A",
"tX c #C4D95B",
"yX c #5AB680",
"uX c #60BD8B",
"iX c #72C9A3",
"pX c #949598",
"aX c #90A395",
"sX c #A6AEAA",
"dX c #A8B5AC",
"fX c #AFAFB0",
"gX c #90C48E",
"hX c #95D0AF",
"jX c #BBC8BE",
"kX c #B2D8CB",
"lX c #C8D8D2",
"zX c None",
/* pixels */
"zXzXzXzXzXzXzXzXzXzXzXzXzXzXzXzXzXd.d.zXzXzXzXzXzXzXzXzXzXzXzXzXzXzXzXzXzXzXzXzXa u.y.g.f.zXzXzXzXzXzXzXzXzXzXzXzXzXzXzX",
"zXzXzXzXzXzXzXzXzXzXzXzXzXzXzXp.u ) ..D k z zXzXzXzXzXzXzXzXzXzXzXzXzXzXzXzXzXy._ -.} ~ k e.zXzXzXzXzXzXzXzXzXzXzXzXzXzX",
"zXzXzXzXzXzXzXzXzXzXzXzXzXzXl.} Y ,.>.T <.C zXzXzXzXzXzXzXzXzXzXzXzXzXzXzXzXzXl.K >.<.<...G u.zXzXzXzXzXzXzXzXzXzXzXzXzX",
"zXzXzXzXzXzXzXzXzXzXzXzXzXzXzX[ Y C { <.R F zXzXzXzXzXzXzX@ 0 0 @ zXzXzXzXzXzXm X.C C  .1.] d.zXzXzXzXzXzXzXzXzXzXzXzXzX",
"zXzXzXzXzXzXzXzXzXzXzXzXzXzXzXa.s 4 g ] +.c.zXzXzXzX8 u A ....-.' d e zXzXzXzXn j 2 M H ' z zXzXzXzXzXzXzXzXzXzXzXzXzXzX",
"zXzXzXzXzXzXzXzXzXzXzXzXzXzXzXzX1 ) -.H N h.zXzX@ f J 6.*X=X:X;X=X*X9.- t zXzXi.2 V -.{ y zXzXzXzXzXzXzXzXzXzXzXzXzXzXzX",
"zXzXzXzXzXzXzXzXzXzXzXzXzXzXzXzXp J R J 7 zXzX8 h 8.=XqXqX9X9X;X9X9X;X0.C 9 zXzXu  .,._ y.zXzXzXzXzXzXzXzXzXzXzXzXzXzXzX",
"zXzXzXzXzXzXzXzXzXzXzXzXzXzXzXzXl [ W ..i.zX0 s 2.B.M.V.8X:X1X1X9X-XC.C.8.{ 9 zXg.[ :.+.d.zXzXzXzXzXzXzXzXzXzXzXzXzXzXzX",
"zXzXzXzXzXzXzXzXzXzXzXzXzXzXzXzXv } 5.L i.zXk <.C.# X + A.-X;X1XD.Z.+   x.v.V 0 l ..#.>.z zXzXzXzXzXzXzXzXzXzXzXzXzXzXzX",
"zXzXzXzXzXzXzXzXzXzXzXzXzXzXzXzXv X.1.L t & >.N.hX$ . o dXgX9X0XgXsXo o pXgX=.s *  .<.R z zXzXzXzXzXzXzXzXzXzXzXzXzXzXzX",
"zXzXzXzXzXzXzXzXzXzXzXzXzXzXzXzXb o.1.O.% H 0.S.hXjXaXdXkXyXF.m.uXlXfXsXlXiXv.#.2 V <.~ G zXzXzXzXzXzXzXzXzXzXzXzXzXzXzX",
"zXzXzXzXzXzXzXzXzXzXzXzXzXzXzXzXb *.>.s 4 ! OXg.g.Z.S.m.j.u.V.b.p x.m.S.n.t.c.4.B f #.Q h.zXzXzXzXzXzXzXzXzXzXzXzXzXzXzX",
"zXzXzXzXzXzXzXzXzXzXzXzXzXzXzXzXh  .[ & ] E *Xc.e v S G x p -XV.1 a D $.n 3 b.+XR f _ ~ z zXzXzXzXzXzXzXzXzXzXzXzXzXzXzX",
"zXzXzXzXzXzXzXzXzXzXzXzXzXzXzXzXc | B & Q E +X-Xa 1 x e 9 b.2X1Xv.1 1 x w F -X+XK.h < ~ j.zXzXzXzXzXzXzXzXzXzXzXzXzXzXzX",
"zXzXzXzXzXzXzXzXzXzXzXzXzXzXzXzXl ' 5 s Q ~.R.7XF.%.G %.N.2X5X5X1XN.c.h.M.-X>XT.J.] d K k.zXzXzXzXzXzXzXzXzXzXzXzXzXzXzX",
"zXzXzXzXzXzXzXzXzXzXzXzXzXzXzXzXa.B 2 _ K.G.J.+X7XwX2X3XrX5X6XrX4X3X3XwX6X>XoXL.~.I s { zXzXzXzXzXzXzXzXzXzXzXzXzXzXzXzX",
"zXzXzXzXzXzXzXzXzXzXzXzXzXzXzXzXg.m % >.L.I.~.Q.@X7X5X5X4X5X5X5X4X4X5X,X$XoX~.~./.Q > m zXzXzXzXzXzXzXzXzXzXzXzXzXzXzXzX",
"zXzXzXzXzXzXzXzXzXzXzXzXzXzXzXzXzXr = Q ~.~._.).'.@X<X5X5X5XtXtX4X5X7X$X|._.).~.XX! - p.zXzXzXzXzXzXzXzXzXzXzXzXzXzXzXzX",
"zXzXzXzXzXzXzXzXzXzXzXzXzXzXzXzXzXq.s P.`.~.`.)._..X@X,XtXtXtXtX5X,X@X|._.'._.~././.j zXzXzXzXzXzXzXzXzXzXzXzXzXzXzXzXzX",
"zXzXzXzXzXzXzXzXzXzXzXzXzXzXzXzXzXzXk `.Y./.`.'.!.!.{.&X4XtXeXtX5X%X.X}._._.`.~./.(.F zXzXzXzXzXzXzXzXzXzXzXzXzXzXzXzXzX",
"zXzXzXzXzXzXzXzXzXzXzXzXzXzXzXzXzXzXd E.I.`.'.'._.].{. X%XeXeXeX,X#X}.}._._._.~.~.W.F zXzXzXzXzXzXzXzXzXzXzXzXzXzXzXzXzX",
"zXzXzXzXzXzXzXzXzXzXzXzXzXzXzXzXzXzXh ^.L.Y.).)._..X.X{. X#X<X%X#X X{.[._._.`.~.L.J.V zXzXzXzXzXzXzXzXzXzXzXzXzXzXzXzXzX",
"zXzXzXzXzXzXzXzXzXzXzXzXzXzXzXzXzXzXj ^.K.`.)._._.'..X{.}. X X X}.{.}.!.!._.).~./.K.] zXzXzXzXzXzXzXzXzXzXzXzXzXzXzXzXzX",
"zXzXzXzXzXzXzXzXzXzXzXzXzXzXzXzXzXzX: ^.T.`.`.`._._..X{.{.}.}.}.{.{.!.!.!.).`.~.K.H.` zXzXzXzXzXzXzXzXzXzXzXzXzXzXzXzXzX",
"zXzXzXzXzXzXzXzXzXzXzXzXzXzXzXzXzXzXd K.L.oX~.`.`._.].].|.|.{.[..X].!.!.).).~.(.H.H.G zXzXzXzXzXzXzXzXzXzXzXzXzXzXzXzXzX",
"zXzXzXzXzXzXzXzXzXzXzXzXzXzXzXzXzXzX6 Q L.K.J.`.).).)._._._.|.!.!.!.).Q.).~./.H.H.T f.zXzXzXzXzXzXzXzXzXzXzXzXzXzXzXzXzX",
"zXzXzXzXzXzXzXzXzXzXzXzXzXzXzXzXzXzX8 Y J.! J.`.`.).).)._._._._.!.).).).).~.~.H.E +.r.zXzXzXzXzXzXzXzXzXzXzXzXzXzXzXzXzX",
"zXzXzXzXzXzXzXzXzXzXzXzXzXzXzXzXzXzXq.N H.L.H.H./.).Q.).).).).).E.Q.].~.E./.L.H.K.$.zXzXzXzXzXzXzXzXzXzXzXzXzXzXzXzXzXzX",
"zXzXzXzXzXzXzXzXzXzXzXzXzXzXzXzXzXzXzX= I 5.{ , P I ^.U.`.~.`.).E.E.oX! R 6.P.K.1.p zXzXzXzXzXzXzXzXzXzXzXzXzXzXzXzXzXzX",
"zXzXzXzXzXzXzXzXzXzXzXzXzXzXzXzXzXzXzXe.7 - M F j j 5.L.J.~./.J.~.XX,.: )  .L P M zXzXzXzXzXzXzXzXzXzXzXzXzXzXzXzXzXzXzX",
"zXzXzXzXzXzXzXzXzXzXzXzXzXzXzXzXzXzXzXzX9 , R >.#./ J 4.(.J./.K.`.4.; h } <.#.C y zXzXzXzXzXzXzXzXzXzXzXzXzXzXzXzXzXzXzX",
"zXzXzXzXzXzXzXzXzXzXzXzXzXzXzXzXzXzXzXa } 6.5.,.X.V Z 6.^.K.K.^.^.6.= v =.;.W Q *.l.zXzXzXzXzXzXzXzXzXzXzXzXzXzXzXzXzXzX",
"zXzXzXzXzXzXzXzXzXzXzXzXzXzXzXzXzXzXw , 6.3.7.#. .b C Q E E P.E E 2.d z &.X.:.5.6.%.zXzXzXzXzXzXzXzXzXzXzXzXzXzXzXzXzXzX",
"zXzXzXzXzXzXzXzXzXzXzXzXzXzXzXzXzXzXf 2.5.I +.*.&.p N Q E ! ! 4.T.4.) 1 (  .X.7.! R S zXzXzXzXzXzXzXzXzXzXzXzXzXzXzXzXzX",
"zXzXzXzXzXzXzXzXzXzXzXzXzXzXzXzXzXt J T.5.R X.o.$.1 h @.~ 6.! Q E W V 2 v $.' 7.T ~ ;.l.zXzXzXzXzXzXzXzXzXzXzXzXzXzXzXzX",
"zXzXzXzXzXzXzXzXzXzXzXzXzXzXzXzXzXy W :.,.7.=.' p q.0 1 7 k m M g l s.zXw.l &.X.#.,.E S zXzXzXzXzXzXzXzXzXzXzXzXzXzXzXzX",
"zXzXzXzXzXzXzXzXzXzXzXzXzXzXzXzXzXD 6.5.>.X.*.k w.zXzXzXzXzXzXzXzXzXzXzXe.y ( o.| >.~ S zXzXzXzXzXzXzXzXzXzXzXzXzXzXzXzX",
"zXzXzXzXzXzXzXzXzXzXzXzXzXzXzXzXzXB W ;.7.[ v y.zXzXzXzXzXzXzXzXzXzXzXzXzXe.x (  .#.#.7 zXzXzXzXzXzXzXzXzXzXzXzXzXzXzXzX",
"zXzXzXzXzXzXzXzXzXzXzXzXzXzXzXzXzX6 +.-.' k t z.zXzXzXzXzXzXzXzXzXzXzXzXzXzX0 6 c A - 2 zXzXzXzXzXzXzXzXzXzXzXzXzXzXzXzX",
"zXzXzXzXzXzXzXzXzXzXzXzXzXzXzXzXzX8 4 4 6 * r zXzXzXzXzXzXzXzXzXzXzXzXzXzXzXn _ : 7 5 i zXzXzXzXzXzXzXzXzXzXzXzXzXzXzXzX",
"zXzXzXzXzXzXzXzXzXzXzXzXzXzXzXzXzXw.g 6 j _ G zXzXzXzXzXzXzXzXzXzXzXzXzXzXzX%.T.>.*.] i zXzXzXzXzXzXzXzXzXzXzXzXzXzXzXzX",
"zXzXzXzXzXzXzXzXzXzXzXzXzXzXzXzXzXr ' =.@.W @.i zXzXzXzXzXzXzXzXzXzXzXzXzXu.*.W Y ..' e zXzXzXzXzXzXzXzXzXzXzXzXzXzXzXzX",
"zXzXzXzXzXzXzXzXzXzXzXzXzXzXzXzXzXr / =.L 5.,.p.zXzXzXzXzXzXzXzXzXzXzXzXzXp.<.T ,.=./ t.zXzXzXzXzXzXzXzXzXzXzXzXzXzXzXzX",
"zXzXzXzXzXzXzXzXzXzXzXzXzXzXzXzXzXq.k *.| ,.W z zXzXzXzXzXzXzXzXzXzXzXzXzXp.,.T 1.X.z zXzXzXzXzXzXzXzXzXzXzXzXzXzXzXzXzX",
"zXzXzXzXzXzXzXzXzXzXzXzXzXzXzXzXzXzXa.' | #.3.A zXzXzXzXzXzXzXzXzXzXzXzXzXp.>.>.7. .g.zXzXzXzXzXzXzXzXzXzXzXzXzXzXzXzXzX",
"zXzXzXzXzXzXzXzXzXzXzXzXzXzXzXzXzXzXr.) ..#.T l zXzXzXzXzXzXzXzXzXzXzXzXzXp.>.>.*.) i zXzXzXzXzXzXzXzXzXzXzXzXzXzXzXzXzX",
"zXzXzXzXzXzXzXzXzXzXzXzXzXzXzXzXzXzXw.f | :.#.r zXzXzXzXzXzXzXzXzXzXzXzXzXq Z 3.| k 0 zXzXzXzXzXzXzXzXzXzXzXzXzXzXzXzXzX",
"zXzXzXzXzXzXzXzXzXzXzXzXzXzXzXzXzXzX7 u B <.F 2 zXzXzXzXzXzXzXzXzXzXzXzXzX8 g <.G 2 g a.zXzXzXzXzXzXzXzXzXzXzXzXzXzXzXzX",
"zXzXzXzXzXzXzXzXzXzXzXzXzXzXzXzXzXk.U h 4 d 4 7 r.zXzXzXzXzXzXzXzXzXzXzXzXa 6 = 9 5  .V zXzXzXzXzXzXzXzXzXzXzXzXzXzXzXzX",
"zXzXzXzXzXzXzXzXzXzXzXzXzXzXzXzXzXG 6.<.{ V D  .i zXzXzXzXzXzXzXzXzXzXzXzX$.] ] ` ..-.| z zXzXzXzXzXzXzXzXzXzXzXzXzXzXzX",
"zXzXzXzXzXzXzXzXzXzXzXzXzXzXzXzXzXC +.5.W 1.<.7.p zXzXzXzXzXzXzXzXzXzXzXzX&.Y 7.T T  .A 6 zXzXzXzXzXzXzXzXzXzXzXzXzXzXzX",
"zXzXzXzXzXzXzXzXzXzXzXzXzXzXzXzXzXw u.V W ,.L ;.c zXzXzXzXzXzXzXzXzXzXzXzX$.R %.>.} i zXzXzXzXzXzXzXzXzXzXzXzXzXzXzXzXzX",
"zXzXzXzXzXzXzXzXzXzXzXzXzXzXzXzXzXzXzXi.7 5 7 D x zXzXzXzXzXzXzXzXzXzXzXzXr 7 w.5 9 zXzXzXzXzXzXzXzXzXzXzXzXzXzXzXzXzXzX",
"zXzXzXzXzXzXzXzXzXzXzXzXzXzXzXzXzXzXzXzXzXzXzXe.e.zXzXzXzXzXzXzXzXzXzXzXzXzXzXzXzXzXzXzXzXzXzXzXzXzXzXzXzXzXzXzXzXzXzXzX",
"zXzXzXzXzXzXzXzXzXzXzXzXzXzXzXzXzXzXzXzXzXzXzXzXzXzXzXzXzXzXzXzXzXzXzXzXzXzXzXzXzXzXzXzXzXzXzXzXzXzXzXzXzXzXzXzXzXzXzXzX",
"zXzXzXzXzXzXzXzXzXzXzXzXzXzXzXzXzXzXzXzXzXzXzXzXzXzXzXzXzXzXzXzXzXzXzXzXzXzXzXzXzXzXzXzXzXzXzXzXzXzXzXzXzXzXzXzXzXzXzXzX",
"zXzXzXzXzXzXzXzXzXzXzXzXzXzXzXzXzXzXzXzXzXzXzXzXzXzXzXzXzXzXzXzXzXzXzXzXzXzXzXzXzXzXzXzXzXzXzXzXzXzXzXzXzXzXzXzXzXzXzXzX",
"zXzXzXzXzXzXzXzXzXzXzXzXzXzXzXzXzXzXzXzXzXzXzXzXzXzXzXzXzXzXzXzXzXzXzXzXzXzXzXzXzXzXzXzXzXzXzXzXzXzXzXzXzXzXzXzXzXzXzXzX",
"zXzXzXzXzXzXzXzXzXzXzXzXzXzXzXzXzXzXzXzXzXzXzXzXzXzXzXzXzXzXzXzXzXzXzXzXzXzXzXzXzXzXzXzXzXzXzXzXzXzXzXzXzXzXzXzXzXzXzXzX",
"zXzXzXzXzXzXzXzXzXzXzXzXzXzXzXzXzXzXzXzXzXzXzXzXzXzXzXzXzXzXzXzXzXzXzXzXzXzXzXzXzXzXzXzXzXzXzXzXzXzXzXzXzXzXzXzXzXzXzXzX"
};
