/* XPM */
static const char * frog1_xpm[] = {
/* columns rows colors chars-per-pixel */
"60 60 225 2 ",
"   c #062F1B",
".  c #202417",
"X  c #043B22",
"o  c #332B2D",
"O  c #064024",
"+  c #2B4E38",
"@  c #007D2D",
"#  c #027C34",
"$  c #007B3C",
"%  c #007A47",
"&  c #3D6A48",
"*  c #564E5B",
"=  c #686E6F",
"-  c #1A941C",
";  c #1A8F1C",
":  c #289D18",
">  c #3CA71B",
",  c #25A01C",
"<  c #0C8A24",
"1  c #068B2B",
"2  c #078927",
"3  c #158E2B",
"4  c #1A8D28",
"5  c #0C912E",
"6  c #0B982C",
"7  c #14932B",
"8  c #179929",
"9  c #028237",
"0  c #0C8C34",
"q  c #02833A",
"w  c #0C8D3C",
"e  c #048939",
"r  c #128E33",
"t  c #1A8D3A",
"y  c #0F9233",
"u  c #0D9138",
"i  c #079537",
"p  c #1B9334",
"a  c #199935",
"s  c #12943A",
"d  c #179637",
"f  c #2D9C2C",
"g  c #279823",
"h  c #349B26",
"j  c #369C2B",
"k  c #399F26",
"l  c #288D38",
"z  c #229A33",
"x  c #2C9A34",
"c  c #269637",
"v  c #359D33",
"b  c #389D37",
"n  c #11A033",
"m  c #2CA329",
"M  c #3BA32B",
"N  c #3AA524",
"B  c #2AA237",
"V  c #3DA234",
"C  c #3CA13D",
"Z  c #4BA41C",
"A  c #4BA919",
"S  c #58AB19",
"D  c #4FB01B",
"F  c #5DB21E",
"G  c #57B11A",
"H  c #6CB40F",
"J  c #62AE1D",
"K  c #63AE14",
"L  c #6BB414",
"P  c #65B31D",
"I  c #6CB41C",
"U  c #6AB818",
"Y  c #70B512",
"T  c #7ABB14",
"R  c #74B41B",
"E  c #7CBB1C",
"W  c #74B81C",
"Q  c #74B50B",
"!  c #499F2D",
"~  c #489F33",
"^  c #43A523",
"/  c #4BAA25",
"(  c #44A52B",
")  c #46AA28",
"_  c #4AAB2D",
"`  c #49A729",
"'  c #54AB24",
"]  c #5CAD24",
"[  c #52A52D",
"{  c #54AC2C",
"}  c #5BAD2C",
"|  c #56A429",
" . c #4AB22A",
".. c #5BB222",
"X. c #5EB22B",
"o. c #53B428",
"O. c #4AA333",
"+. c #48A633",
"@. c #53A432",
"#. c #54AA32",
"$. c #5BAC31",
"%. c #59A737",
"&. c #5BB131",
"*. c #4AB739",
"=. c #64AE23",
"-. c #62AE2B",
";. c #6AAD29",
":. c #64B223",
">. c #6BB323",
",. c #64B32C",
"<. c #6CB42A",
"1. c #6FB925",
"2. c #72B523",
"3. c #73BA24",
"4. c #7EBB23",
"5. c #79B926",
"6. c #6AAB37",
"7. c #75B638",
"8. c #6AB938",
"9. c #7CC01F",
"0. c #038242",
"q. c #058B44",
"w. c #0A8C45",
"e. c #00844A",
"r. c #098C4B",
"t. c #0B9346",
"y. c #149048",
"u. c #1A9944",
"i. c #098E50",
"p. c #1B9953",
"a. c #229C41",
"s. c #239853",
"d. c #39A756",
"f. c #448958",
"g. c #45A647",
"h. c #51A748",
"j. c #42A256",
"k. c #6EAD4C",
"l. c #65B547",
"z. c #73B74B",
"x. c #6AA957",
"c. c #79BB5A",
"v. c #6CB852",
"b. c #48AA61",
"n. c #56AD71",
"m. c #7EBF67",
"M. c #77B173",
"N. c #7BC158",
"B. c #8ABF0A",
"V. c #84BD15",
"C. c #82BD1C",
"Z. c #8ABE1B",
"A. c #8DBF17",
"S. c #9ABD0E",
"D. c #80BD20",
"F. c #84BF31",
"G. c #93C20D",
"H. c #9CC50D",
"J. c #9EC602",
"K. c #8CC114",
"L. c #85C01C",
"P. c #8CC21A",
"I. c #94C315",
"U. c #9CC514",
"Y. c #94C31A",
"T. c #9AC51B",
"R. c #9FC81A",
"E. c #A4C60C",
"W. c #A5C80D",
"Q. c #AACA0D",
"!. c #AAC908",
"~. c #A2C611",
"^. c #ABCA13",
"/. c #A6C918",
"(. c #B0CA17",
"). c #8BC022",
"_. c #96C223",
"`. c #99C52A",
"'. c #93C533",
"]. c #A7C926",
"[. c #B4CF23",
"{. c #AECE39",
"}. c #BAD136",
"|. c #B5CD35",
" X c #8BBF60",
".X c #8BC546",
"XX c #94C84C",
"oX c #88C459",
"OX c #9CCB5A",
"+X c #96CC56",
"@X c #9BD054",
"#X c #A7CD46",
"$X c #BAD343",
"%X c #B6D449",
"&X c #A3CD5B",
"*X c #ADCA55",
"=X c #B0CE58",
"-X c #A9D35D",
";X c #BAD556",
":X c #B4D45B",
">X c #BCD55B",
",X c #B8D556",
"<X c #8AC060",
"1X c #9ECA64",
"2X c #A4CC60",
"3X c #B7D360",
"4X c #C3D956",
"5X c #C2D65B",
"6X c #C6D85D",
"7X c #C5D858",
"8X c #C1D646",
"9X c #65C09C",
"0X c #7CC5A4",
"qX c #94908C",
"wX c #96A39C",
"eX c #A1A199",
"rX c #9AA6A3",
"tX c #B1BCB5",
"yX c #86C080",
"uX c #9BCB96",
"iX c #ADCDB6",
"pX c #B7C9C4",
"aX c #B6D7CB",
"sX c #A2D6C3",
"dX c None",
/* pixels */
"dXdXdXdXdXdXdXdXdXdXdXdXdXdXdXdXdXdXdXdXdXdXdXdXdXdXdXdXdXdXdXdXdXdXdXdXdXdXdXdXdXdXdXdXdXdXdXdXdXdXdXdXdXdXdXdXdXdXdXdX",
"dXdXdXdXdXdXdXdXdXdXdXdXdXdXdXdXdXdXdXdXdXdXdXdXdXdXdXdXdXdXdXdXdXdXdXdXdXdXdXdXdXdXdXdXdXdXdXdXdXdXdXdXdXdXdXdXdXdXdXdX",
"dXdXdXdXdXdXdXdXdXdXdXdXdXdXdXdXdXdXdXdXdXdXdXdXdXdXdXdXdXdXdXdXdXdXdXdXdXdXdXdXdXdXdXdXdXdXdXdXdXdXdXdXdXdXdXdXdXdXdXdX",
"dXdXdXdXdXdXdXdXdXdXdXdXdXdXdXdXdXdXdXdXdXdXdXdXdXdXdXdXdXdXdXdXdXdXdXdXdXdXdXdXdXdXdXdXdXdXdXdXdXdXdXdXdXdXdXdXdXdXdXdX",
"dXdXdXdXdXdXdXdXdXdXdXdXdXdXdXdXdXdXdXdXdXdXdXdXdXdXdXdXdXdXdXdXdXdXdXdXdXdXdXdXdXdXdXdXdXdXdXdXdXdXdXdXdXdXdXdXdXdXdXdX",
"dXdXdXdXdXdXdXdXdXdXdXdXdXdXdXdXdXdXdXdXdXdXdXdXdXdXdXdXdXdXdXdXdXdXdXdXdXdXdXdXdXdXdXdXdXdXdXdXdXdXdXdXdXdXdXdXdXdXdXdX",
"dXdXdXdXdXdXdXdXdXdXdXdXdXdXdXdXdXdXdXdXdXdXdXdXdXdXdXdXdXdXdXdXdXdXdXdXdXdXdXdXdXdXdXdXdXdXdXdXdXdXdXdXdXdXdXdXdXdXdXdX",
"dXdXdXdXdXdXdXdXdXdXdXdXdXdXdXdXdXdXdXdXdXdXdXdXdXdXdXdXdXdXdXdXdXdXdXdXdXdXdXdXdXdXdXdXdXdXdXdXdXdXdXdXdXdXdXdXdXdXdXdX",
"dXdXdXdXdXdXdXdXdXdXdXdXdXdXdXdXdXdXdXdXdXdXdXdXdXdXdXdXdXdXdXdXdXdXdXdXdXdXdXdXdXdXdXdXdXdXdXdXdXdXdXdXdXdXdXdXdXdXdXdX",
"dXdXdXdXdXdXdXdXdXdXdXdXdXdXdXdXdXdXdXdXdXdXdXdXdXdXdXdXdXdXdXdXdXdXdXdXdXdXdXdXdXdXdXdXdXdXdXdXdXdXdXdXdXdXdXdXdXdXdXdX",
"dXdXdXdXdXdXdXdXdXdXdXdXdXdXdXdXdXdXdXdXdXdXdXdXdXdXdXdXdXdXdXdXdXdXdXdXdXdXdXdXdXdXdXdXdXdXdXdXdXdXdXdXdXdXdXdXdXdXdXdX",
"dXdXdXdXdXdXdXdXdXdXdXdXdXdXdXdXdXdXdXdXdXdXdXdXdXdXdXdXdXdXdXdXdXdXdXdXdXdXdXdXdXdXdXdXdXdXdXdXdXdXdXdXdXdXdXdXdXdXdXdX",
"dXdXdXdXdXdXdXdXdXdXdXdXdXdXdXdXdXdXdXdXdXdXdXdXdXdXdXdXdX$ 9 9 $ dXdXdXdXdXdXdXdXdXdXdXdXdXdXdXdXdXdXdXdXdXdXdXdXdXdXdX",
"dXdXdXdXdXdXdXdXdXdXdXdXdXdXdXdXdXdXdXdXdXdXdXdXdXdX$ < g ) #.{ +.v p 0.dXdXdXdXdXdXdXdXdXdXdXdXdXdXdXdXdXdXdXdXdXdXdXdX",
"dXdXdXdXdXdXdXdXdXdXdXdXdXdXdXdXdXdXdXdXdXdXdXdXdX< M 7..XXX+XOXOXXX7.( 0 dXdXdXdXdXdXdXdXdXdXdXdXdXdXdXdXdXdXdXdXdXdXdX",
"dXdXdXdXdXdXdXdXdXdXdXdXdXdXdXdXdXdXdXdXdXdXdX% ; ...X&XOX2X@X+X1X-X&XXX,.7 dXdXdXdXdXdXdXdXdXdXdXdXdXdXdXdXdXdXdXdXdXdX",
"dXdXdXdXdXdXdXdXdXdXdXdXdXdXdXdXdXdXdXdXdXdX% 7 o.8.k.k.oX+X1XOX@XoXv.x.z. .7 dXdXdXdXdXdXdXdXdXdXdXdXdXdXdXdXdXdXdXdXdX",
"dXdXdXdXdXdXdXdXdXdXdXdXdXdXdXdXdXdXdXdXdXdX0  .7.f.X X f. X2X2XoXM.+   & x._ i dXdXdXdXdXdXdXdXdXdXdXdXdXdXdXdXdXdXdXdX",
"dXdXdXdXdXdXdXdXdXdXdXdXdXdXdXdXdXdXdXdXdX# Z 7.uXwXo o qXuX<X1XyXpX* . = iX*.> 9 dXdXdXdXdXdXdXdXdXdXdXdXdXdXdXdXdXdXdX",
"dXdXdXdXdXdXdXdXdXdXdXdXdXdXdXdXdXdXdXdX@ h E $.9XaXrXwXaX0Xc.N.n.aXtXwXpXsXd.3.g $ dXdXdXdXdXdXdXdXdXdXdXdXdXdXdXdXdXdX",
"dXdXdXdXdXdXdXdXdXdXdXdXdXdXdXdXdX6 B 6 < :.'.d.y.d.d.d.j.y.h.c.w.p.d.b.j.s.u '.=.1 a B q.dXdXdXdXdXdXdXdXdXdXdXdXdXdXdX",
"dXdXdXdXdXdXdXdXdXdXdXdXdXdXdXdXe A U - g 5.'.v.t x Z ` x y.l.@Xc 5 ~ ( B 5 C .X5.: Z F p dXdXdXdXdXdXdXdXdXdXdXdXdXdXdX",
"dXdXdXdXdXdXdXdXdXdXdXdXdXdXdX6 ( 7.` < / L._.+Xg.< l l 1 V &X:Xv.i l d i c N.XX).N , o./ p dXdXdXdXdXdXdXdXdXdXdXdXdXdX",
"dXdXdXdXdXdXdXdXdXdXdXdXdXdXdX8 G I m 4 3.K.Y.#XOXk.C b l.&X>X>X-Xc.g.b h. X=X`.).:.6 _ ] z dXdXdXdXdXdXdXdXdXdXdXdXdXdX",
"dXdXdXdXdXdXdXdXdXdXdXdXdXdXdXdXu.` - p E K.A._.#X=X-X-X:X>X,X;X>X5X>X=X:X#X_.I.E T g N c dXdXdXdXdXdXdXdXdXdXdXdXdXdXdX",
"dXdXdXdXdXdXdXdXdXdXdXdXdXdXdXdXdXw.< > V.A.G.Y.`.%X:X>X>X>X5X;X;X>X3X=X#X`.I.L.K.B.N q.dXdXdXdXdXdXdXdXdXdXdXdXdXdXdXdX",
"dXdXdXdXdXdXdXdXdXdXdXdXdXdXdXdXdXdX@ ] L.K.G.H.S.].#X,X3X5X5X;X;X5X>X{.~.I._.).G.T m dXdXdXdXdXdXdXdXdXdXdXdXdXdXdXdXdX",
"dXdXdXdXdXdXdXdXdXdXdXdXdXdXdXdXdXe.3 Z L V.I.U.~.E.].$X5X5X7X7X4X;X{./.J.H.Y.S.U , - w dXdXdXdXdXdXdXdXdXdXdXdXdXdXdXdX",
"dXdXdXdXdXdXdXdXdXdXdXdXdXdXdXdXq.x &.X.K Y L.I.H.E.~.].%X4X6X6X4X}./.E.E.U.U.Q Z D ,./ a dXdXdXdXdXdXdXdXdXdXdXdXdXdXdX",
"dXdXdXdXdXdXdXdXdXdXdXdXdXdXdXdXs } K <.1.S Y _.H.~.^./.[.8X6X6X4X|.Q.~.T.U.V.A ,.W I F b r.dXdXdXdXdXdXdXdXdXdXdXdXdXdX",
"dXdXdXdXdXdXdXdXdXdXdXdXdXdXdXdXp $...;.2.:.J Z.H.~.~.Q.Q.[.}.8X|.(.^.R.H.H.=.F 3.I :.} O.w.dXdXdXdXdXdXdXdXdXdXdXdXdXdX",
"dXdXdXdXdXdXdXdXdXdXdXdXdXdXdXdXa @.] :.2.2.J H I.T./.Q.Q.!.!.^.!.!.H.E.!.V.S 5.3.>.$.#.O.w.dXdXdXdXdXdXdXdXdXdXdXdXdXdX",
"dXdXdXdXdXdXdXdXdXdXdXdXdXdXdXdXs @.{ -.>.I 1.S C.U.R.~.W.Q.W.W.W.W.U.!.S.K X.3.2.<.$.O.b w.dXdXdXdXdXdXdXdXdXdXdXdXdXdX",
"dXdXdXdXdXdXdXdXdXdXdXdXdXdXdXdXw O.| -.:.L 3.=.Y U.U.~.W././.W.W.W.H.~.4.A W U I ;.@.O.c 0.dXdXdXdXdXdXdXdXdXdXdXdXdXdX",
"dXdXdXdXdXdXdXdXdXdXdXdXdXdXdXdXq.j %._ :.R 2.I L Y.U.T.U.~.R.~.~.H.U.G.;.A E 3.X.} @.( p dXdXdXdXdXdXdXdXdXdXdXdXdXdXdX",
"dXdXdXdXdXdXdXdXdXdXdXdXdXdXdXdX% z @._ -.<.2.3.K C.Y.Y.G.U.U.U.U.U.I.B.S F 2.2.&.} [ v w dXdXdXdXdXdXdXdXdXdXdXdXdXdXdX",
"dXdXdXdXdXdXdXdXdXdXdXdXdXdXdXdXdXu O.#.} ;.2.3.I E Y.P.I.I.I.I.I.I.I.T Z U 2.,.$.$.@.c e.dXdXdXdXdXdXdXdXdXdXdXdXdXdXdX",
"dXdXdXdXdXdXdXdXdXdXdXdXdXdXdXdXdXq x @.#.-.>.2.>.W A.P.P.G.P.P.I.K.P.P _ U 1.&.#.[ b u dXdXdXdXdXdXdXdXdXdXdXdXdXdXdXdX",
"dXdXdXdXdXdXdXdXdXdXdXdXdXdXdXdXdX$ r O._ } <.>.I Y P.L.P.K.P.A.K.K.K.G _ Y I } _ O.c # dXdXdXdXdXdXdXdXdXdXdXdXdXdXdXdX",
"dXdXdXdXdXdXdXdXdXdXdXdXdXdXdXdXdXu 1 v @.S ,.<.I L A.C.).P.A.A.Z.C.Z.] D 2.:.} O.! 3 9 dXdXdXdXdXdXdXdXdXdXdXdXdXdXdXdX",
"dXdXdXdXdXdXdXdXdXdXdXdXdXdXdXdXu.} : 4 O.$.6.;.,.-.D.E 9.C.C.C.C.C.C.o./ ,.] #.O.p 1 M 5 dXdXdXdXdXdXdXdXdXdXdXdXdXdXdX",
"dXdXdXdXdXdXdXdXdXdXdXdXdXdXdXq ) 5.:.a y C -.>.S J V.E D.D.C.E D.E V.1.> _ } { a 1 j I M % dXdXdXdXdXdXdXdXdXdXdXdXdXdX",
"dXdXdXdXdXdXdXdXdXdXdXdXdXdXdXdX( >.K N 6 7 f x 8 _ T E D.D.E 4.4.E T 5.m 6 f 4 1 f ] :.M % dXdXdXdXdXdXdXdXdXdXdXdXdXdX",
"dXdXdXdXdXdXdXdXdXdXdXdXdXdXdXe.M X.6.;.[ x 1 q $ 0 M ..L T T E E 3...` < @ 1 y j } { :._ w.dXdXdXdXdXdXdXdXdXdXdXdXdXdX",
"dXdXdXdXdXdXdXdXdXdXdXdXdXdXdXw ) K %.O.f s e.dXdXdXdXw l h k k j x 0 dXdXdXe a V { o.X...i dXdXdXdXdXdXdXdXdXdXdXdXdXdX",
"dXdXdXdXdXdXdXdXdXdXdXdXdXdXdXe c c w.q.e.dXdXdXdXdXdXdXdXdXdXdXdXdXdXdXdXdXdXdXi.y.u.a.n t.dXdXdXdXdXdXdXdXdXdXdXdXdXdX",
"dXdXdXdXdXdXdXdXdXdXdXdXdXdXdXdXdXdXdXdXdXdXdXdXdXdXdXdXdXdXdXdXdXdXdXdXdXdXdXdXdXdXdXdXdXdXdXdXdXdXdXdXdXdXdXdXdXdXdXdX",
"dXdXdXdXdXdXdXdXdXdXdXdXdXdXdXdXdXdXdXdXdXdXdXdXdXdXdXdXdXdXdXdXdXdXdXdXdXdXdXdXdXdXdXdXdXdXdXdXdXdXdXdXdXdXdXdXdXdXdXdX",
"dXdXdXdXdXdXdXdXdXdXdXdXdXdXdXdXdXdXdXdXdXdXdXdXdXdXdXdXdXdXdXdXdXdXdXdXdXdXdXdXdXdXdXdXdXdXdXdXdXdXdXdXdXdXdXdXdXdXdXdX",
"dXdXdXdXdXdXdXdXdXdXdXdXdXdXdXdXdXdXdXdXdXdXdXdXdXdXdXdXdXdXdXdXdXdXdXdXdXdXdXdXdXdXdXdXdXdXdXdXdXdXdXdXdXdXdXdXdXdXdXdX",
"dXdXdXdXdXdXdXdXdXdXdXdXdXdXdXdXdXdXdXdXdXdXdXdXdXdXdXdXdXdXdXdXdXdXdXdXdXdXdXdXdXdXdXdXdXdXdXdXdXdXdXdXdXdXdXdXdXdXdXdX",
"dXdXdXdXdXdXdXdXdXdXdXdXdXdXdXdXdXdXdXdXdXdXdXdXdXdXdXdXdXdXdXdXdXdXdXdXdXdXdXdXdXdXdXdXdXdXdXdXdXdXdXdXdXdXdXdXdXdXdXdX",
"dXdXdXdXdXdXdXdXdXdXdXdXdXdXdXdXdXdXdXdXdXdXdXdXdXdXdXdXdXdXdXdXdXdXdXdXdXdXdXdXdXdXdXdXdXdXdXdXdXdXdXdXdXdXdXdXdXdXdXdX",
"dXdXdXdXdXdXdXdXdXdXdXdXdXdXdXdXdXdXdXdXdXdXdXdXdXdXdXdXdXdXdXdXdXdXdXdXdXdXdXdXdXdXdXdXdXdXdXdXdXdXdXdXdXdXdXdXdXdXdXdX",
"dXdXdXdXdXdXdXdXdXdXdXdXdXdXdXdXdXdXdXdXdXdXdXdXdXdXdXdXdXdXdXdXdXdXdXdXdXdXdXdXdXdXdXdXdXdXdXdXdXdXdXdXdXdXdXdXdXdXdXdX",
"dXdXdXdXdXdXdXdXdXdXdXdXdXdXdXdXdXdXdXdXdXdXdXdXdXdXdXdXdXdXdXdXdXdXdXdXdXdXdXdXdXdXdXdXdXdXdXdXdXdXdXdXdXdXdXdXdXdXdXdX",
"dXdXdXdXdXdXdXdXdXdXdXdXdXdXdXdXdXdXdXdXdXdXdXdXdXdXdXdXdXdXdXdXdXdXdXdXdXdXdXdXdXdXdXdXdXdXdXdXdXdXdXdXdXdXdXdXdXdXdXdX",
"dXdXdXdXdXdXdXdXdXdXdXdXdXdXdXdXdXdXdXdXdXdXdXdXdXdXdXdXdXdXdXdXdXdXdXdXdXdXdXdXdXdXdXdXdXdXdXdXdXdXdXdXdXdXdXdXdXdXdXdX",
"dXdXdXdXdXdXdXdXdXdXdXdXdXdXdXdXdXdXdXdXdXdXdXdXdXdXdXdXdXdXdXdXdXdXdXdXdXdXdXdXdXdXdXdXdXdXdXdXdXdXdXdXdXdXdXdXdXdXdXdX",
"dXdXdXdXdXdXdXdXdXdXdXdXdXdXdXdXdXdXdXdXdXdXdXdXdXdXdXdXdXdXdXdXdXdXdXdXdXdXdXdXdXdXdXdXdXdXdXdXdXdXdXdXdXdXdXdXdXdXdXdX"
};
