/* XPM */
static const char * frog6_xpm[] = {
/* columns rows colors chars-per-pixel */
"60 60 231 2 ",
"   c #011913",
".  c #1A3230",
"X  c #35553D",
"o  c #007D30",
"O  c #357A37",
"+  c #017F40",
"@  c #554D52",
"#  c #446354",
"$  c #7A6F77",
"%  c #158D1F",
"&  c #17951A",
"*  c #0F911B",
"=  c #259819",
"-  c #349C1D",
";  c #2B8F1F",
":  c #26A11B",
">  c #39A51A",
",  c #098D2A",
"<  c #078924",
"1  c #198F23",
"2  c #188C2B",
"3  c #0C932A",
"4  c #0C9627",
"5  c #129223",
"6  c #1C9424",
"7  c #14972A",
"8  c #038434",
"9  c #0A8535",
"0  c #0C8D34",
"q  c #01843C",
"w  c #0E8D3A",
"e  c #058939",
"r  c #118C34",
"t  c #188B37",
"y  c #0C933A",
"u  c #159435",
"i  c #13943B",
"p  c #149A3C",
"a  c #1C9939",
"s  c #229526",
"d  c #239926",
"f  c #249C2B",
"g  c #2C9C2E",
"h  c #22942B",
"j  c #359C26",
"k  c #359C2C",
"l  c #249A34",
"z  c #2B9C3B",
"x  c #279935",
"c  c #3B9D32",
"v  c #359F3B",
"b  c #349936",
"n  c #258B31",
"m  c #1DA135",
"M  c #28A327",
"N  c #3DA425",
"B  c #34A42A",
"V  c #3BA62C",
"C  c #3CAC2B",
"Z  c #32A423",
"A  c #27A036",
"S  c #3BA434",
"D  c #3CA33B",
"F  c #36A636",
"G  c #42A31D",
"H  c #48AA1C",
"J  c #54AE1D",
"K  c #5BAB1A",
"L  c #54B219",
"P  c #5DB31A",
"I  c #57B314",
"U  c #59AA0D",
"Y  c #64AF1E",
"T  c #66B315",
"R  c #64B21B",
"E  c #6DB41C",
"W  c #65BA1C",
"Q  c #75B31A",
"!  c #74BB1B",
"~  c #7DBD1B",
"^  c #77B918",
"/  c #72B210",
"(  c #479F2D",
")  c #479C36",
"_  c #4E8E3C",
"`  c #4DAB25",
"'  c #44A32C",
"]  c #45AB2A",
"[  c #48A826",
"{  c #53AB23",
"}  c #5AAD24",
"|  c #53A52C",
" . c #56AB2B",
".. c #5BAB2B",
"X. c #55A727",
"o. c #52B223",
"O. c #5DB422",
"+. c #5BB12A",
"@. c #57B428",
"#. c #43A233",
"$. c #4CA633",
"%. c #4BAB32",
"&. c #45AA38",
"*. c #51A433",
"=. c #53A931",
"-. c #5AA837",
";. c #5EB031",
":. c #42B12C",
">. c #63AD25",
",. c #64AD2C",
"<. c #6AAD2B",
"1. c #69AC24",
"2. c #64B324",
"3. c #6CB423",
"4. c #63B22B",
"5. c #6BB32A",
"6. c #68B924",
"7. c #72B522",
"8. c #7AB821",
"9. c #72B92B",
"0. c #77B725",
"q. c #61B936",
"w. c #77BC35",
"e. c #68AD30",
"r. c #7DC114",
"t. c #73C108",
"y. c #7BC336",
"u. c #008544",
"i. c #048C44",
"p. c #01834D",
"a. c #028E4D",
"s. c #0A8C45",
"d. c #158E47",
"f. c #01934D",
"g. c #0A9845",
"h. c #169846",
"j. c #038C55",
"k. c #049456",
"l. c #299645",
"z. c #3C9D44",
"x. c #319D5F",
"c. c #30A34D",
"v. c #339E69",
"b. c #489744",
"n. c #609955",
"m. c #55AC47",
"M. c #5EB442",
"N. c #41A648",
"B. c #63B641",
"V. c #78BA4B",
"C. c #66A850",
"Z. c #71B277",
"A. c #7CC453",
"S. c #8CBE0D",
"D. c #84BF08",
"F. c #85BE13",
"G. c #8BBE15",
"H. c #85BD1B",
"J. c #8DBF1B",
"K. c #92BE17",
"L. c #91BE1C",
"P. c #98BF1F",
"I. c #82BD21",
"U. c #88BD26",
"Y. c #94BD2A",
"T. c #83BF3B",
"R. c #8DC10F",
"E. c #84C10C",
"W. c #93C30B",
"Q. c #9CC60D",
"!. c #95C507",
"~. c #8EC115",
"^. c #8CC01B",
"/. c #85C216",
"(. c #93C315",
"). c #9BC514",
"_. c #92C21A",
"`. c #9CC51A",
"'. c #A6C805",
"]. c #A3C70C",
"[. c #A6C80B",
"{. c #A9C90C",
"}. c #A2C605",
"|. c #A3C613",
" X c #A6C812",
".X c #ABCA19",
"XX c #8AC123",
"oX c #83C524",
"OX c #96C426",
"+X c #8FC53A",
"@X c #B2CE29",
"#X c #B5D02F",
"$X c #A8CC35",
"%X c #B9D138",
"&X c #AECD31",
"*X c #83BD56",
"=X c #81B77C",
"-X c #98CB48",
";X c #8CC55C",
":X c #9DCD5C",
">X c #98C958",
",X c #89C24C",
"<X c #A7CD48",
"1X c #B8D54C",
"2X c #A1CB5D",
"3X c #AACC5B",
"4X c #ABD256",
"5X c #B6D45C",
"6X c #BCD65A",
"7X c #B6D556",
"8X c #B1CD5B",
"9X c #8DC766",
"0X c #94CB63",
"qX c #A2CB61",
"wX c #C0D74B",
"eX c #C4D956",
"rX c #C2D85A",
"tX c #C2D458",
"yX c #69B18A",
"uX c #70C28F",
"iX c #79C0A0",
"pX c #959798",
"aX c #86BC84",
"sX c #A598A6",
"dX c #95BCA1",
"fX c #89C1A3",
"gX c #93C4A6",
"hX c #B5DCCB",
"jX c #DAD6D7",
"kX c #C8E8D8",
"lX c None",
/* pixels */
"lXlXlXlXlXlXlXlXlXlXlXlXlXlXlXlXlXlXlXlXlXlXlXlXlXlXlXlXlXlXlXlXlXlXlXlXlXlXlXlXlXlXlXlXlXlXlXlXlXlXlXlXlXlXlXlXlXlXlXlX",
"lXlXlXlXlXlXlXlXlXlXlXlXlXlXlXlXlXlXlXlXlXlXlXlXlXlXlXlXlXlXlXlXlXlXlXlXlXlXlXlXlXlXlXlXlXlXlXlXlXlXlXlXlXlXlXlXlXlXlXlX",
"lXlXlXlXlXlXlXlXlXlXlXlXlXlXlXlXlXlXlXlXlXlXlXlXlXlXlXlXlXlXlXlXlXlXlXlXlXlXlXlXa.lXlXlXlXlXlXlXlXlXlXlXlXlXlXlXlXlXlXlX",
"lXlXlXlXlXlXlXlXlXlXlXlXlXlXlXlXlXc.h.k.f.lXlXlXlXlXlXlXlXlXlXlXlXlXlXlXlXlXlXa M a ( ' lXlXlXlXlXlXlXlXlXlXlXlXlXlXlXlX",
"lXlXlXlXlXlXlXlXlXlXlXlXlXlXp a N W Y C ] g.lXlXlXlXlXlXlXlXlXlXlXlXlXlXlXlXlXz.3.T R :.; d.lXlXlXlXlXlXlXlXlXlXlXlXlXlX",
"lXlXlXlXlXlXlXlXlXlXlXlXlXlXF 2.0.,.5.5.<.h.lXlXlXlXlXlXlXlXlXlXlXlXlXlXlXlXlXF 2.....;.1.F f.lXlXlXlXlXlXlXlXlXlXlXlXlX",
"lXlXlXlXlXlXlXlXlXlXlXlXlXlXh.:.j & Z @.| g.lXlXlXlXlXo < 6 h 2 e lXlXlXlXlXlXC d 3 Z { %.l.lXlXlXlXlXlXlXlXlXlXlXlXlXlX",
"lXlXlXlXlXlXlXlXlXlXlXlXlXlXlX3 t B J J %.lXlXlXlXt h :.;.w.y.w.4.V a lXlXlXlXz 2 B ' V l lXlXlXlXlXlXlXlXlXlXlXlXlXlXlX",
"lXlXlXlXlXlXlXlXlXlXlXlXlXlXlXq k 2.1.' M lXlXq 6 ,.T.-X>X2X>X:X:X>Xw.j s.lXlXq l O.6.g lXlXlXlXlXlXlXlXlXlXlXlXlXlXlXlX",
"lXlXlXlXlXlXlXlXlXlXlXlXlXlXlXa.c 2.3.A f.lXo = w.y.9XqX>X2XqX2XqXqX>Xw.[ 0 lXj.M +.5.F lXlXlXlXlXlXlXlXlXlXlXlXlXlXlXlX",
"lXlXlXlXlXlXlXlXlXlXlXlXlXlXlXf.#.>.E D lXlXf 2.C.b.O n.;X:X3XqX*Xn.O b.M.j 9 j.( e.7. .lXlXlXlXlXlXlXlXlXlXlXlXlXlXlXlX",
"lXlXlXlXlXlXlXlXlXlXlXlXlXlXlXg.#.>.7.%.p.1 @.B.Z..   # Z.9X3X9XaXX   . yXM.j 8 ) >.3.>.lXlXlXlXlXlXlXlXlXlXlXlXlXlXlXlX",
"lXlXlXlXlXlXlXlXlXlXlXlXlXlXlXg.' <.7.N 9 K q.yXjX$ @ sXhXA.qXZ.kXpX@ $ jXZ.R s b } 2.} lXlXlXlXlXlXlXlXlXlXlXlXlXlXlXlX",
"lXlXlXlXlXlXlXlXlXlXlXlXlXlXlXd.[ e.2.& f I.q.v.fXgXfXgXyXx.9XN.yXgXdXgXiXx.4.J 5  .5.P lXlXlXlXlXlXlXlXlXlXlXlXlXlXlXlX",
"lXlXlXlXlXlXlXlXlXlXlXlXlXlXlXh.' >.V % P oXV.e z D D z.t c.>Xx i z.m.&.p i V.y.f B 7.P lXlXlXlXlXlXlXlXlXlXlXlXlXlXlXlX",
"lXlXlXlXlXlXlXlXlXlXlXlXlXlXlXd.#. .6 n F.XX;Xa , F ) z., B.3Xm.r x c g 0 F >XU.` 6 5.K lXlXlXlXlXlXlXlXlXlXlXlXlXlXlXlX",
"lXlXlXlXlXlXlXlXlXlXlXlXlXlXlXd.#.X.< { J.Y.-XA.l.y i u m.8X5X:XN.i 0 0 z.9X<XJ.W & ....lXlXlXlXlXlXlXlXlXlXlXlXlXlXlXlX",
"lXlXlXlXlXlXlXlXlXlXlXlXlXlXlXj.&.k * T J.K.OX<X:XV.V.A.4XtX5X6X4X,XV.,X:X<XOXK.^ = [ =.lXlXlXlXlXlXlXlXlXlXlXlXlXlXlXlX",
"lXlXlXlXlXlXlXlXlXlXlXlXlXlXlXj.) s 6 ^ P.R.OX+X4X5X5X6X6X6X6X6X6X7X5X4X<XOX^.G.XXB M M lXlXlXlXlXlXlXlXlXlXlXlXlXlXlXlX",
"lXlXlXlXlXlXlXlXlXlXlXlXlXlXlXlXl.2 M r.L.K.K.`.$X4X7X6X6X6X6X6X6X6X7X$XOXW.^.R.F.J 4 y lXlXlXlXlXlXlXlXlXlXlXlXlXlXlXlX",
"lXlXlXlXlXlXlXlXlXlXlXlXlXlXlXlXk.9 [ D.J.~.(.).`.&X1XeXrXrX6XeX6X1X&X).Q.!.~.~.S.T 0 lXlXlXlXlXlXlXlXlXlXlXlXlXlXlXlXlX",
"lXlXlXlXlXlXlXlXlXlXlXlXlXlXlXlXlX9 K R.XX~.).`.Q.|.&X1XeXeXeXeX1X%X XQ.`.Q._.OXK.3.i lXlXlXlXlXlXlXlXlXlXlXlXlXlXlXlXlX",
"lXlXlXlXlXlXlXlXlXlXlXlXlXlXlXlXlXr Y U._.~.(.).Q. X.X#XeXrXrXeX%X.X'.].`.W.~.~.^.! i lXlXlXlXlXlXlXlXlXlXlXlXlXlXlXlXlX",
"lXlXlXlXlXlXlXlXlXlXlXlXlXlXlXlXlXt E I.S.W.(.).). X{..X%XwXeXwX#X.X'.Q.).(.(.^.^.! i lXlXlXlXlXlXlXlXlXlXlXlXlXlXlXlXlX",
"lXlXlXlXlXlXlXlXlXlXlXlXlXlXlXlXlXr ! F.S.W.(.).). X X[.{.@X#X@X.X.X].Q.).(.(.J.XX7.p lXlXlXlXlXlXlXlXlXlXlXlXlXlXlXlXlX",
"lXlXlXlXlXlXlXlXlXlXlXlXlXlXlXlXlX0 E F.S.K.(.).`.).|.].'.{.{.{.].].).).Q.(._.^.XX! i lXlXlXlXlXlXlXlXlXlXlXlXlXlXlXlXlX",
"lXlXlXlXlXlXlXlXlXlXlXlXlXlXlXlXlXr E H.G.G.K._.).). X.X.X].'.'.'.}.).).!.W.~.^.H.3.h.lXlXlXlXlXlXlXlXlXlXlXlXlXlXlXlXlX",
"lXlXlXlXlXlXlXlXlXlXlXlXlXlXlXlXlX9 J G.U.E.Y.).(.).`.|.|.|.|.].].).).).(.~.~.OXF.>.lXlXlXlXlXlXlXlXlXlXlXlXlXlXlXlXlXlX",
"lXlXlXlXlXlXlXlXlXlXlXlXlXlXlXlXlXu.Z H.I.r.J.(.(.`.).).).).|.).).).(.(.(.XXE.F.t.Z lXlXlXlXlXlXlXlXlXlXlXlXlXlXlXlXlXlX",
"lXlXlXlXlXlXlXlXlXlXlXlXlXlXlXlXlXlX6 ^ H./.J.J._._._.`.).(.).).).(.(.K.K.K.D.R.W g.lXlXlXlXlXlXlXlXlXlXlXlXlXlXlXlXlXlX",
"lXlXlXlXlXlXlXlXlXlXlXlXlXlXlXlXlXlX8 ` I.~ G.^.J.^._._.(.(.(.(.(.(.(.G.G.G.r.w.=.a.lXlXlXlXlXlXlXlXlXlXlXlXlXlXlXlXlXlX",
"lXlXlXlXlXlXlXlXlXlXlXlXlXlXlXlXlXlXq * j > } 2.H.~._._._.(._.~.~.^.H.~ Q T H } G x lXlXlXlXlXlXlXlXlXlXlXlXlXlXlXlXlXlX",
"lXlXlXlXlXlXlXlXlXlXlXlXlXlXlXlXlXh.N [ - - = * : I /.^.J.G.(.J.^./.W K } P E 8.7.3.B lXlXlXlXlXlXlXlXlXlXlXlXlXlXlXlXlX",
"lXlXlXlXlXlXlXlXlXlXlXlXlXlXlXlXf 5.8.~ I.8.7.O.M 4 > ~ G.I.H.J.8.U U Y 5.9.9.7.7.7.R p lXlXlXlXlXlXlXlXlXlXlXlXlXlXlXlX",
"lXlXlXlXlXlXlXlXlXlXlXlXlXlXlXi.[ 3.2.2.2.W W E 9.4.= > ~ r.H.I.R J 2.9.3.3.3.4.,.<...u lXlXlXlXlXlXlXlXlXlXlXlXlXlXlXlX",
"lXlXlXlXlXlXlXlXlXlXlXlXlXlXlXa.S +.>.,.<.<.<.7.Q ^ @.= { ~ F.W G +.e.<.<.>...%.$.=.b , lXlXlXlXlXlXlXlXlXlXlXlXlXlXlXlX",
"lXlXlXlXlXlXlXlXlXlXlXlXlXlXlXlXn k [ =...-.} e...+...- C ~ ^ I = { } | &.=.| #.v x % 1 lXlXlXlXlXlXlXlXlXlXlXlXlXlXlXlX",
"lXlXlXlXlXlXlXlXlXlXlXlXlXlXlXlX< < l D [ *.-.=.| >.[ = Z R T ` % x #.*.) z c 7 r 3 g ) lXlXlXlXlXlXlXlXlXlXlXlXlXlXlXlX",
"lXlXlXlXlXlXlXlXlXlXlXlXlXlXlXlXi 6 , 0 u z g c ) A h.q i.w r i.u.p.i.t n e < 4 S [ =.b lXlXlXlXlXlXlXlXlXlXlXlXlXlXlXlX",
"lXlXlXlXlXlXlXlXlXlXlXlXlXlXlXlXl.*.{ B s 5 e a.lXlXlXlXlXlXlXlXlXlXlXlXlXlX' E Q } | a lXlXlXlXlXlXlXlXlXlXlXlXlXlXlXlX",
"lXlXlXlXlXlXlXlXlXlXlXlXlXlXlXlXd.S  .P 7.C j.lXlXlXlXlXlXlXlXlXlXlXlXlXlXlXH 8.T ..$.d.lXlXlXlXlXlXlXlXlXlXlXlXlXlXlXlX",
"lXlXlXlXlXlXlXlXlXlXlXlXlXlXlXlXs.d } O.9.C f.lXlXlXlXlXlXlXlXlXlXlXlXlXlXf.H 6.....B s.lXlXlXlXlXlXlXlXlXlXlXlXlXlXlXlX",
"lXlXlXlXlXlXlXlXlXlXlXlXlXlXlXlXp.x =.1.R ] f.lXlXlXlXlXlXlXlXlXlXlXlXlXlXf.[ E ,.-.z u.lXlXlXlXlXlXlXlXlXlXlXlXlXlXlXlX",
"lXlXlXlXlXlXlXlXlXlXlXlXlXlXlXh.m , D 1.Q ] u.lXlXlXlXlXlXlXlXlXlXlXlXlXlXlX%.E ,.*., u h.lXlXlXlXlXlXlXlXlXlXlXlXlXlXlX",
"lXlXlXlXlXlXlXlXlXlXlXlXlXlXz 3.L 4 l ..4.j lXlXlXlXlXlXlXlXlXlXlXlXlXlXlXlXj 2.{ g , $.| m lXlXlXlXlXlXlXlXlXlXlXlXlXlX",
"lXlXlXlXlXlXlXlXlXlXlXlXlXlXe N 5...d j f 1 lXlXlXlXlXlXlXlXlXlXlXlXlXlXlXlX2 V d , k e.O.m u.lXlXlXlXlXlXlXlXlXlXlXlXlX",
"lXlXlXlXlXlXlXlXlXlXlXlXlXlXlXy L 7.-.> l 2 lXlXlXlXlXlXlXlXlXlXlXlXlXlXlXlXe 6 4 B L 2.B u.lXlXlXlXlXlXlXlXlXlXlXlXlXlX",
"lXlXlXlXlXlXlXlXlXlXlXlXlXlXlXlX[ Q 0.<.*.y lXlXlXlXlXlXlXlXlXlXlXlXlXlXlXlXk.&.+.4.5.J w lXlXlXlXlXlXlXlXlXlXlXlXlXlXlX",
"lXlXlXlXlXlXlXlXlXlXlXlXlXlXlXlXs.g O.5.( s.lXlXlXlXlXlXlXlXlXlXlXlXlXlXlXlXlXB Q &.F 5 lXlXlXlXlXlXlXlXlXlXlXlXlXlXlXlX",
"lXlXlXlXlXlXlXlXlXlXlXlXlXlXlXlXlXlXa &.h.lXlXlXlXlXlXlXlXlXlXlXlXlXlXlXlXlXlXh.l.s.lXlXlXlXlXlXlXlXlXlXlXlXlXlXlXlXlXlX",
"lXlXlXlXlXlXlXlXlXlXlXlXlXlXlXlXlXlXlX4 lXlXlXlXlXlXlXlXlXlXlXlXlXlXlXlXlXlXlXlXj.lXlXlXlXlXlXlXlXlXlXlXlXlXlXlXlXlXlXlX",
"lXlXlXlXlXlXlXlXlXlXlXlXlXlXlXlXlXlXlXlXlXlXlXlXlXlXlXlXlXlXlXlXlXlXlXlXlXlXlXlXlXlXlXlXlXlXlXlXlXlXlXlXlXlXlXlXlXlXlXlX",
"lXlXlXlXlXlXlXlXlXlXlXlXlXlXlXlXlXlXlXlXlXlXlXlXlXlXlXlXlXlXlXlXlXlXlXlXlXlXlXlXlXlXlXlXlXlXlXlXlXlXlXlXlXlXlXlXlXlXlXlX",
"lXlXlXlXlXlXlXlXlXlXlXlXlXlXlXlXlXlXlXlXlXlXlXlXlXlXlXlXlXlXlXlXlXlXlXlXlXlXlXlXlXlXlXlXlXlXlXlXlXlXlXlXlXlXlXlXlXlXlXlX",
"lXlXlXlXlXlXlXlXlXlXlXlXlXlXlXlXlXlXlXlXlXlXlXlXlXlXlXlXlXlXlXlXlXlXlXlXlXlXlXlXlXlXlXlXlXlXlXlXlXlXlXlXlXlXlXlXlXlXlXlX",
"lXlXlXlXlXlXlXlXlXlXlXlXlXlXlXlXlXlXlXlXlXlXlXlXlXlXlXlXlXlXlXlXlXlXlXlXlXlXlXlXlXlXlXlXlXlXlXlXlXlXlXlXlXlXlXlXlXlXlXlX",
"lXlXlXlXlXlXlXlXlXlXlXlXlXlXlXlXlXlXlXlXlXlXlXlXlXlXlXlXlXlXlXlXlXlXlXlXlXlXlXlXlXlXlXlXlXlXlXlXlXlXlXlXlXlXlXlXlXlXlXlX",
"lXlXlXlXlXlXlXlXlXlXlXlXlXlXlXlXlXlXlXlXlXlXlXlXlXlXlXlXlXlXlXlXlXlXlXlXlXlXlXlXlXlXlXlXlXlXlXlXlXlXlXlXlXlXlXlXlXlXlXlX",
"lXlXlXlXlXlXlXlXlXlXlXlXlXlXlXlXlXlXlXlXlXlXlXlXlXlXlXlXlXlXlXlXlXlXlXlXlXlXlXlXlXlXlXlXlXlXlXlXlXlXlXlXlXlXlXlXlXlXlXlX",
"lXlXlXlXlXlXlXlXlXlXlXlXlXlXlXlXlXlXlXlXlXlXlXlXlXlXlXlXlXlXlXlXlXlXlXlXlXlXlXlXlXlXlXlXlXlXlXlXlXlXlXlXlXlXlXlXlXlXlXlX"
};
