/* XPM */
static const char * frog3_xpm[] = {
/* columns rows colors chars-per-pixel */
"60 60 233 2 ",
"   c #141010",
".  c #252F28",
"X  c #35473C",
"o  c #057F37",
"O  c #007C2F",
"+  c #3C4749",
"@  c #007F48",
"#  c #44504A",
"$  c #586567",
"%  c #746D73",
"&  c #169418",
"*  c #0F8F1C",
"=  c #279E1C",
"-  c #329B1E",
";  c #38A418",
":  c #0A8B25",
">  c #038B2C",
",  c #0B8C2A",
"<  c #068627",
"1  c #148C2B",
"2  c #148D23",
"3  c #0A9428",
"4  c #139423",
"5  c #1A9325",
"6  c #14942D",
"7  c #199729",
"8  c #0B8C32",
"9  c #02853B",
"0  c #038A3A",
"q  c #0B8C3C",
"w  c #068633",
"e  c #128E35",
"r  c #118C3A",
"t  c #1D8E36",
"y  c #099639",
"u  c #139434",
"i  c #1B9A34",
"p  c #13933A",
"a  c #179939",
"s  c #249B25",
"d  c #259D2B",
"f  c #2A9C2B",
"g  c #279727",
"h  c #349D23",
"j  c #359D2E",
"k  c #229235",
"l  c #239C33",
"z  c #249B3B",
"x  c #2B993A",
"c  c #369B3A",
"v  c #248C2B",
"b  c #2CA226",
"n  c #24A32D",
"m  c #2CA829",
"M  c #3BA422",
"N  c #36A12A",
"B  c #3EA52D",
"V  c #36A727",
"C  c #2CA234",
"Z  c #28A339",
"A  c #34A334",
"S  c #39A433",
"D  c #3CA33C",
"F  c #36A63A",
"G  c #3EB420",
"H  c #48AB1C",
"J  c #53AC1C",
"K  c #5AAD1B",
"L  c #59AB13",
"P  c #5CB41D",
"I  c #58B015",
"U  c #55AA0D",
"Y  c #69B20E",
"T  c #63B216",
"R  c #65B31C",
"E  c #6CB41E",
"W  c #6BB918",
"Q  c #7ABB15",
"!  c #73B61C",
"~  c #75BB1B",
"^  c #79BA1B",
"/  c #77B516",
"(  c #6FB315",
")  c #489F37",
"_  c #45803E",
"`  c #4CAB24",
"'  c #42A42C",
"]  c #4CA52C",
"[  c #4DAB2A",
"{  c #44AA25",
"}  c #55AB26",
"|  c #5CAD24",
" . c #5BA62C",
".. c #53AC2C",
"X. c #5CAC2C",
"o. c #55A628",
"O. c #5EB52A",
"+. c #53B229",
"@. c #43A135",
"#. c #4BA334",
"$. c #45A935",
"%. c #53AB31",
"&. c #5DAD32",
"*. c #56A433",
"=. c #5BB334",
"-. c #64AE22",
";. c #62AD2C",
":. c #6CAD2A",
">. c #6BAD24",
",. c #63B224",
"<. c #6BB324",
"1. c #65B329",
"2. c #6CB329",
"3. c #69B827",
"4. c #73B424",
"5. c #73BA22",
"6. c #73B329",
"7. c #78B72A",
"8. c #67AD34",
"9. c #63B233",
"0. c #7ABA37",
"q. c #70AF2B",
"w. c #7AC015",
"e. c #7CC03C",
"r. c #048D44",
"t. c #0A8D43",
"y. c #058648",
"u. c #128E49",
"i. c #01934C",
"p. c #079846",
"a. c #149343",
"s. c #189845",
"d. c #028F55",
"f. c #019052",
"g. c #079659",
"h. c #1E9F5A",
"j. c #269E44",
"k. c #12A440",
"l. c #26A542",
"z. c #33A54B",
"x. c #31A369",
"c. c #469346",
"v. c #428549",
"b. c #629953",
"n. c #56AA4B",
"m. c #69B846",
"M. c #78B64E",
"N. c #77BE56",
"B. c #6AAE41",
"V. c #6C9E77",
"C. c #76AD7D",
"Z. c #8BBF0E",
"A. c #87BF0D",
"S. c #92BE0F",
"D. c #85BE16",
"F. c #8BBE15",
"G. c #83BD1B",
"H. c #8BBE1B",
"J. c #91BF1B",
"K. c #90BE14",
"L. c #82BC23",
"P. c #8ABD23",
"I. c #8ABF29",
"U. c #95BE26",
"Y. c #8CC00F",
"T. c #87C107",
"R. c #95C20F",
"E. c #9CC60E",
"W. c #9FC607",
"Q. c #83C113",
"!. c #8DC114",
"~. c #8CC11A",
"^. c #85C11D",
"/. c #94C314",
"(. c #9BC512",
"). c #92C219",
"_. c #9EC719",
"`. c #A3C803",
"'. c #A8C905",
"]. c #A3C70B",
"[. c #A5C90B",
"{. c #A6C808",
"}. c #A2C612",
"|. c #AACA19",
" X c #A7C815",
".X c #89C124",
"XX c #9BC52A",
"oX c #99C237",
"OX c #AACC28",
"+X c #B2CE24",
"@X c #A9CB35",
"#X c #B6D034",
"$X c #B4CF34",
"%X c #80BE41",
"&X c #88BF55",
"*X c #87B86D",
"=X c #89C549",
"-X c #96C849",
";X c #86C757",
":X c #9ECC5C",
">X c #97CA57",
",X c #93D159",
"<X c #A8D14B",
"1X c #BAD44B",
"2X c #A1CD5C",
"3X c #A8CE55",
"4X c #BCD456",
"5X c #B4D55D",
"6X c #BDD45B",
"7X c #B6D454",
"8X c #B1CE56",
"9X c #95C862",
"0X c #87C172",
"qX c #A3CB62",
"wX c #B6D663",
"eX c #C1D74E",
"rX c #C1D655",
"tX c #C2D854",
"yX c #C2D659",
"uX c #C4D95A",
"iX c #5BBE92",
"pX c #7DBD85",
"aX c #71B896",
"sX c #78C19D",
"dX c #72C6A1",
"fX c #99999C",
"gX c #9CD0B1",
"hX c #A4C7B5",
"jX c #A2C0AE",
"kX c #CDDBD4",
"lX c #CCD7CE",
"zX c #D0E0D9",
"xX c None",
/* pixels */
"xXxXxXxXxXxXxXxXxXxXxXxXxXxXxXxXxXxXxXxXxXxXxXxXxXxXxXxXxXxXxXxXxXxXxXxXxXxXxXxXxXxXxXxXxXxXxXxXxXxXxXxXxXxXxXxXxXxXxXxX",
"xXxXxXxXxXxXxXxXxXxXxXxXxXxXxXxXxXxXxXxXxXxXxXxXxXxXxXxXxXxXxXxXxXxXxXxXxXxXxXxXxXxXxXxXxXxXxXxXxXxXxXxXxXxXxXxXxXxXxXxX",
"xXxXxXxXxXxXxXxXxXxXxXxXxXxXxXxXxXxXxXxXxXxXxXxXxXxXxXxXxXxXxXxXxXxXxXxXxXxXxXxXxXxXxXxXxXxXxXxXxXxXxXxXxXxXxXxXxXxXxXxX",
"xXxXxXxXxXxXxXxXxXxXxXxXxXxXxXxXxXxXxXxXxXxXxXxXxXxXxXxXxXxXxXxXxXxXxXxXxXxXxXxXxXxXxXxXxXxXxXxXxXxXxXxXxXxXxXxXxXxXxXxX",
"xXxXxXxXxXxXxXxXxXxXxXxXxXxXxXxXxXxXxXxXxXxXxXxXxXxXxXxXxXxXxXxXxXxXxXxXxXxXxXxXxXxXxXxXxXxXxXxXxXxXxXxXxXxXxXxXxXxXxXxX",
"xXxXxXxXxXxXxXxXxXxXxXxXxXxXxXxXxXxXxXxXxXxXxXxXxXxXxXxXxXxXxXxXxXxXxXxXxXxXxXxXxXxXxXxXxXxXxXxXxXxXxXxXxXxXxXxXxXxXxXxX",
"xXxXxXxXxXxXxXxXxXxXxXxXxXxXxXxXxXxXxXxXxXxXxXxXxXxXxXxXxXxXxXxXxXxXxXxXxXxXxXxXxXxXxXxXxXxXxXxXxXxXxXxXxXxXxXxXxXxXxXxX",
"xXxXxXxXxXxXxXxXxXxXxXxXxXxXxXxXxXxXxXxXxXxXxXxXxXxXxXO 1 1 1 1 w 9 xXxXxXxXxXxXxXxXxXxXxXxXxXxXxXxXxXxXxXxXxXxXxXxXxXxX",
"xXxXxXxXxXxXxXxXxXxXxXxXxXxXxXxXxXxXxXxXxXxXxXxXxX9 5 H 9.0.%Xe.9.' a y.xXxXxXxXxXxXxXxXxXxXxXxXxXxXxXxXxXxXxXxXxXxXxXxX",
"xXxXxXxXxXxXxXxXxXxXxXxXxXxXxXxXxXxXxXxXxXxXxX@ 2 } e.-X>X2XqX>X:X-X0.M r.xXxXxXxXxXxXxXxXxXxXxXxXxXxXxXxXxXxXxXxXxXxXxX",
"xXxXxXxXxXxXxXxXxXxXxXxXxXxXxXxXxXxXxXxXxXxX@ 5 <.=X:X:X2X:X:X:X9XqX-X=XB q xXxXxXxXxXxXxXxXxXxXxXxXxXxXxXxXxXxXxXxXxXxX",
"xXxXxXxXxXxXxXxXxXxXxXxXxXxXxXxXxXxXxXxXxXxX5 P B.c._ b.;X3X2XqX;Xb.v.) B.@.0 xXxXxXxXxXxXxXxXxXxXxXxXxXxXxXxXxXxXxXxXxX",
"xXxXxXxXxXxXxXxXxXxXxXxXxXxXxXxXxXxXxXxXxXe | M.C..   X pX9X,X0XpX+   . V.| b xXxXxXxXxXxXxXxXxXxXxXxXxXxXxXxXxXxXxXxXxX",
"xXxXxXxXxXxXxXxXxXxXxXxXxXxXxXxXxXi.xXxX< ; 0.pXlX% # fXkX*X>X*XkXfX+ $ lXjX8.g y.p l.u.xXxXxXxXxXxXxXxXxXxXxXxXxXxXxXxX",
"xXxXxXxXxXxXxXxXxXxXxXxXxXxXxXq u m n 9 5 ^ m.h.aXhXjXhXaXz.=Xz.iXgXhXhXdXx.8.I 4 H / M y p.xXxXxXxXxXxXxXxXxXxXxXxXxXxX",
"xXxXxXxXxXxXxXxXxXxXxXxXxXxXs.I +.7.` > ` U.m.8 a z.F z.t l 9Xl.p x F A i e m.~ f f >.T } j.xXxXxXxXxXxXxXxXxXxXxXxXxXxX",
"xXxXxXxXxXxXxXxXxXxXxXxXxXxXs.| H ..g & 5.I.=Xj.q z ) z.1 %.6Xn.1 c ) ) t c ,XI.o.3 D +.o.s.xXxXxXxXxXxXxXxXxXxXxXxXxXxX",
"xXxXxXxXxXxXxXxXxXxXxXxXxXxXg.a & b : M A.I.-X;Xk , 1 v ) ,XyXqXz.1 e e s.N.-XJ.<.& - F Z xXxXxXxXxXxXxXxXxXxXxXxXxXxXxX",
"xXxXxXxXxXxXxXxXxXxXxXxXxXxXxXy.d ' 1 | T.!.oX3X:XN.m.&X2XwX6XyX3X&XM.N.>X<XI.S.7.s H C f.xXxXxXxXxXxXxXxXxXxXxXxXxXxXxX",
"xXxXxXxXxXxXxXxXxXxXxXxXxXxXxXd.@.g v Q Y.Y.U.@X<XwX6XrXyX6XyX6X4X5XwXwX<XOXP.S.D.{ ; { xXxXxXxXxXxXxXxXxXxXxXxXxXxXxXxX",
"xXxXxXxXxXxXxXxXxXxXxXxXxXxXxXu.@.7 h F.H.S.R./.OX7XwX4X4XyX4X6X5X6X1X@XXX/.~.).F.,.h [ xXxXxXxXxXxXxXxXxXxXxXxXxXxXxXxX",
"xXxXxXxXxXxXxXxXxXxXxXxXxXxXxXu.@.1 ; G.F.J.R.E.(.OX7X6XyXrXyXyXyX7XOX X_./.).~.~./ ; J xXxXxXxXxXxXxXxXxXxXxXxXxXxXxXxX",
"xXxXxXxXxXxXxXxXxXxXxXxXxXxXxXu.j , ` L.F.)./.(.(. X$X1XtXtXtXyXeX$X|.W._././.!.~.~ h H xXxXxXxXxXxXxXxXxXxXxXxXxXxXxXxX",
"xXxXxXxXxXxXxXxXxXxXxXxXxXxXxXi.d : | H.S.).R.(._.E.|.#XeXuXuXyX1XOX].`.E./.).).!.~ g { xXxXxXxXxXxXxXxXxXxXxXxXxXxXxXxX",
"xXxXxXxXxXxXxXxXxXxXxXxXxXxXxXf.i : -.H.J.)./.(.(.}.[.|.#XeXtXeX#X|.[.].(././.~.Q.~ = Z xXxXxXxXxXxXxXxXxXxXxXxXxXxXxXxX",
"xXxXxXxXxXxXxXxXxXxXxXxXxXxXxXxXp : R J.J.F./.(._.}.{.'.'.+X#X+X|. X XE._./.).~.H.Q = k.xXxXxXxXxXxXxXxXxXxXxXxXxXxXxXxX",
"xXxXxXxXxXxXxXxXxXxXxXxXxXxXxXxXr.: T P.!.T.).(.(.E.W.`.'.'.'.'.'.`.].(._./.Y.~.P.Q 7 xXxXxXxXxXxXxXxXxXxXxXxXxXxXxXxXxX",
"xXxXxXxXxXxXxXxXxXxXxXxXxXxXxXxXxXw L D.Q.Q.H.(.E.E.E.].{. X[.{.].].E.(.(./.~.!.Z.Q u xXxXxXxXxXxXxXxXxXxXxXxXxXxXxXxXxX",
"xXxXxXxXxXxXxXxXxXxXxXxXxXxXxXxXxX9 ` D.A.G.~.).).(.(.(. X X}.}.E.E.(././.).~.Z.A.,.p xXxXxXxXxXxXxXxXxXxXxXxXxXxXxXxXxX",
"xXxXxXxXxXxXxXxXxXxXxXxXxXxXxXxXxXxXn Q F.P./.H.).(.(.(.E.E._.E.E./././.).Z..X^.Q V xXxXxXxXxXxXxXxXxXxXxXxXxXxXxXxXxXxX",
"xXxXxXxXxXxXxXxXxXxXxXxXxXxXxXxXxXxX1 P Q L./.).).).(././.(.(./.(.R./.).Z.Z..XQ.W a xXxXxXxXxXxXxXxXxXxXxXxXxXxXxXxXxXxX",
"xXxXxXxXxXxXxXxXxXxXxXxXxXxXxXxXxXxXl P T K Y G..X~.).!././././././.).~.~.Q 5.Y H y xXxXxXxXxXxXxXxXxXxXxXxXxXxXxXxXxXxX",
"xXxXxXxXxXxXxXxXxXxXxXxXxXxXxXxXxXZ <./ ! O.P T / w.Q./.J.).).).).!.Q.~ R } ..| T G l.g.xXxXxXxXxXxXxXxXxXxXxXxXxXxXxXxX",
"xXxXxXxXxXxXxXxXxXxXxXxXxXxXxXxXs.L ,.2.5.E ! E R 5.D.F.H.D.F.D.H.H.W U ,.Y W 7.7.7.E j.xXxXxXxXxXxXxXxXxXxXxXxXxXxXxXxX",
"xXxXxXxXxXxXxXxXxXxXxXxXxXxXxXxXt ` } :.:.<.^ 5.2.R ^ G.D.D.D.D.~./ K 1.~ 4.<.1.2.E >.A xXxXxXxXxXxXxXxXxXxXxXxXxXxXxXxX",
"xXxXxXxXxXxXxXxXxXxXxXxXxXxXxXxXo x o.X.[ +.9.>.<.<.T ^ G.L.G.L.L.L } 1.R P X.&.&...*.a xXxXxXxXxXxXxXxXxXxXxXxXxXxXxXxX",
"xXxXxXxXxXxXxXxXxXxXxXxXxXxXxXxXO > f B ]  .8...2.O.J ! G.G.G.G.5.{ $.=...;.;.o.] ) l 8 xXxXxXxXxXxXxXxXxXxXxXxXxXxXxXxX",
"xXxXxXxXxXxXxXxXxXxXxXxXxXxXxXxXt.6 > p c ] o.X.;.[ U ~ 5.~ Q Q W - f .. .*.' j z k 3 y xXxXxXxXxXxXxXxXxXxXxXxXxXxXxXxX",
"xXxXxXxXxXxXxXxXxXxXxXxXxXxXxXxXu.C C 5 , u a Z z t d ..,.E ( R +.7 < t z a.6 8 8 4 C y xXxXxXxXxXxXxXxXxXxXxXxXxXxXxXxX",
"xXxXxXxXxXxXxXxXxXxXxXxXxXxXxXxXy.i ..X.H b 1 xXxXxXxXy.r r q r q xXxXxXxX@ 3 ` &...[ p xXxXxXxXxXxXxXxXxXxXxXxXxXxXxXxX",
"xXxXxXxXxXxXxXxXxXxXxXxXxXxXxXxXxXf *.;.<.3.{ xXxXxXxXxXxXxXxXxXxXxXxXxXxXxXS ! 2.X.' u xXxXxXxXxXxXxXxXxXxXxXxXxXxXxXxX",
"xXxXxXxXxXxXxXxXxXxXxXxXxXxXxXxXxXu #.X.1.5...xXxXxXxXxXxXxXxXxXxXxXxXxXxXxX` ! >.X.) p.xXxXxXxXxXxXxXxXxXxXxXxXxXxXxXxX",
"xXxXxXxXxXxXxXxXxXxXxXxXxXxXxXxXxXr.S } <.E ..xXxXxXxXxXxXxXxXxXxXxXxXxXxXi.H ! ;. .c f.xXxXxXxXxXxXxXxXxXxXxXxXxXxXxXxX",
"xXxXxXxXxXxXxXxXxXxXxXxXxXxXxXxXxXf.l %.>.2.[ xXxXxXxXxXxXxXxXxXxXxXxXxXxXi.` 6.;.] 7 r.xXxXxXxXxXxXxXxXxXxXxXxXxXxXxXxX",
"xXxXxXxXxXxXxXxXxXxXxXxXxXxXxXxXxXr.6 #.:.2.' xXxXxXxXxXxXxXxXxXxXxXxXxXxXf.[ q.&.' : i g.xXxXxXxXxXxXxXxXxXxXxXxXxXxXxX",
"xXxXxXxXxXxXxXxXxXxXxXxXxXxXxXxXp.N 6 g ;.=.7 xXxXxXxXxXxXxXxXxXxXxXxXxXxXxXV ! ..6 2 %.A g.xXxXxXxXxXxXxXxXxXxXxXxXxXxX",
"xXxXxXxXxXxXxXxXxXxXxXxXxXxXxXk.H =.F 3 s n > xXxXxXxXxXxXxXxXxXxXxXxXxXxXxX, S a : N ..;.l xXxXxXxXxXxXxXxXxXxXxXxXxXxX",
"xXxXxXxXxXxXxXxXxXxXxXxXxXxXxXn / 6.E N s 7 p xXxXxXxXxXxXxXxXxXxXxXxXxXxXxX3 & * A X.-.h a.xXxXxXxXxXxXxXxXxXxXxXxXxXxX",
"xXxXxXxXxXxXxXxXxXxXxXxXxXxXxXt.c 7./ :.X.%.k xXxXxXxXxXxXxXxXxXxXxXxXxXxXxXk...X.,.O.j 9 xXxXxXxXxXxXxXxXxXxXxXxXxXxXxX",
"xXxXxXxXxXxXxXxXxXxXxXxXxXxXxXxXf.` <.2.:...u xXxXxXxXxXxXxXxXxXxXxXxXxXxXxXp.1.1.[ h y xXxXxXxXxXxXxXxXxXxXxXxXxXxXxXxX",
"xXxXxXxXxXxXxXxXxXxXxXxXxXxXxXxXxXa.n ` :.G 0 xXxXxXxXxXxXxXxXxXxXxXxXxXxXxXxXm Z f.xXxXxXxXxXxXxXxXxXxXxXxXxXxXxXxXxXxX",
"xXxXxXxXxXxXxXxXxXxXxXxXxXxXxXxXxXxXxXp.V ; xXxXxXxXxXxXxXxXxXxXxXxXxXxXxXxXxXp.xXxXxXxXxXxXxXxXxXxXxXxXxXxXxXxXxXxXxXxX",
"xXxXxXxXxXxXxXxXxXxXxXxXxXxXxXxXxXxXxXxXt.q xXxXxXxXxXxXxXxXxXxXxXxXxXxXxXxXxXxXxXxXxXxXxXxXxXxXxXxXxXxXxXxXxXxXxXxXxXxX",
"xXxXxXxXxXxXxXxXxXxXxXxXxXxXxXxXxXxXxXxXxXxXxXxXxXxXxXxXxXxXxXxXxXxXxXxXxXxXxXxXxXxXxXxXxXxXxXxXxXxXxXxXxXxXxXxXxXxXxXxX",
"xXxXxXxXxXxXxXxXxXxXxXxXxXxXxXxXxXxXxXxXxXxXxXxXxXxXxXxXxXxXxXxXxXxXxXxXxXxXxXxXxXxXxXxXxXxXxXxXxXxXxXxXxXxXxXxXxXxXxXxX",
"xXxXxXxXxXxXxXxXxXxXxXxXxXxXxXxXxXxXxXxXxXxXxXxXxXxXxXxXxXxXxXxXxXxXxXxXxXxXxXxXxXxXxXxXxXxXxXxXxXxXxXxXxXxXxXxXxXxXxXxX",
"xXxXxXxXxXxXxXxXxXxXxXxXxXxXxXxXxXxXxXxXxXxXxXxXxXxXxXxXxXxXxXxXxXxXxXxXxXxXxXxXxXxXxXxXxXxXxXxXxXxXxXxXxXxXxXxXxXxXxXxX",
"xXxXxXxXxXxXxXxXxXxXxXxXxXxXxXxXxXxXxXxXxXxXxXxXxXxXxXxXxXxXxXxXxXxXxXxXxXxXxXxXxXxXxXxXxXxXxXxXxXxXxXxXxXxXxXxXxXxXxXxX",
"xXxXxXxXxXxXxXxXxXxXxXxXxXxXxXxXxXxXxXxXxXxXxXxXxXxXxXxXxXxXxXxXxXxXxXxXxXxXxXxXxXxXxXxXxXxXxXxXxXxXxXxXxXxXxXxXxXxXxXxX",
"xXxXxXxXxXxXxXxXxXxXxXxXxXxXxXxXxXxXxXxXxXxXxXxXxXxXxXxXxXxXxXxXxXxXxXxXxXxXxXxXxXxXxXxXxXxXxXxXxXxXxXxXxXxXxXxXxXxXxXxX"
};
