/* XPM */
static const char * frog4_xpm[] = {
/* columns rows colors chars-per-pixel */
"60 60 227 2 ",
"   c #171918",
".  c #0C0F06",
"X  c #31363E",
"o  c #185627",
"O  c #007D3D",
"+  c #34783F",
"@  c #3B4941",
"#  c #007D42",
"$  c #346142",
"%  c #6E797B",
"&  c #7E7B7C",
"*  c #07861B",
"=  c #12961C",
"-  c #138E11",
";  c #279C1C",
":  c #2C9912",
">  c #1FA211",
",  c #26A31A",
"<  c #39A71B",
"1  c #37B315",
"2  c #058B22",
"3  c #0B8E2C",
"4  c #068928",
"5  c #188C27",
"6  c #0C932C",
"7  c #0A9426",
"8  c #149323",
"9  c #1D9526",
"0  c #13952D",
"q  c #139A2B",
"w  c #1C9A2C",
"e  c #199925",
"r  c #018B33",
"t  c #028A3C",
"y  c #058739",
"u  c #168936",
"i  c #0B923B",
"p  c #0A9736",
"a  c #119434",
"s  c #1B9A35",
"d  c #13933A",
"f  c #179B37",
"g  c #229B22",
"h  c #2C9C23",
"j  c #25982A",
"k  c #329C25",
"l  c #349C2E",
"z  c #3A9E28",
"x  c #259C34",
"c  c #2C9D34",
"v  c #239D3A",
"b  c #269738",
"n  c #2C9532",
"m  c #1AA129",
"M  c #1BA036",
"N  c #19A63A",
"B  c #27A529",
"V  c #3CA526",
"C  c #3BA32C",
"Z  c #36A629",
"A  c #2DA332",
"S  c #29A73B",
"D  c #3EAA32",
"F  c #34A239",
"G  c #37A434",
"H  c #469F19",
"J  c #4CAB1D",
"K  c #46A719",
"L  c #59AC1B",
"P  c #55B21A",
"I  c #5BB21B",
"U  c #55B215",
"Y  c #7BBB0F",
"T  c #67AC1E",
"R  c #64B31B",
"E  c #6CB31C",
"W  c #68B616",
"Q  c #73BA13",
"!  c #7CBC1C",
"~  c #76B71A",
"^  c #6FB413",
"/  c #489E2A",
"(  c #489D35",
")  c #45AA24",
"_  c #43A62C",
"`  c #44AA2C",
"'  c #4BA826",
"]  c #5AAC24",
"[  c #55A52C",
"{  c #55AC2B",
"}  c #5CAB2B",
"|  c #55A828",
" . c #56B222",
".. c #5CB222",
"X. c #55B12A",
"o. c #5CB12B",
"O. c #5DB82F",
"+. c #47A735",
"@. c #53A433",
"#. c #57AB31",
"$. c #51B32B",
"%. c #63AD24",
"&. c #63AC2B",
"*. c #69AC27",
"=. c #72AD29",
"-. c #63B324",
";. c #6CB424",
":. c #6BB924",
">. c #64B12A",
",. c #6CB22A",
"<. c #6ABA2C",
"1. c #72B425",
"2. c #75BA23",
"3. c #7BBA22",
"4. c #79B526",
"5. c #62AB30",
"6. c #66AA36",
"7. c #68B433",
"8. c #75B838",
"9. c #7DC019",
"0. c #008442",
"q. c #028C44",
"w. c #0B8E44",
"e. c #058646",
"r. c #0D9342",
"t. c #049943",
"y. c #079649",
"u. c #159C44",
"i. c #199647",
"p. c #008B53",
"a. c #008558",
"s. c #019552",
"d. c #02975B",
"f. c #2B9D41",
"g. c #229C47",
"h. c #04A34A",
"j. c #1EA142",
"k. c #16A753",
"l. c #27A645",
"z. c #39A449",
"x. c #27A358",
"c. c #019861",
"v. c #309C64",
"b. c #37A964",
"n. c #559656",
"m. c #699F41",
"M. c #5AB346",
"N. c #56BA5C",
"B. c #66B44A",
"V. c #7AB855",
"C. c #6BB24C",
"Z. c #419F64",
"A. c #4BB46F",
"S. c #75B566",
"D. c #6FB37A",
"F. c #7EC24E",
"G. c #86BF0C",
"H. c #85BD14",
"J. c #8ABE15",
"K. c #84BD1B",
"L. c #8BBE1A",
"P. c #91BF15",
"I. c #90BF19",
"U. c #84BE21",
"Y. c #8CBD24",
"T. c #86C10F",
"R. c #93C30C",
"E. c #9CC60E",
"W. c #98C706",
"Q. c #85C015",
"!. c #8DC115",
"~. c #84C11A",
"^. c #8CC119",
"/. c #93C314",
"(. c #9CC514",
"). c #92C21A",
"_. c #9FC71C",
"`. c #A4C70D",
"'. c #A4C80C",
"]. c #A7C806",
"[. c #A2C713",
"{. c #A4C812",
"}. c #ABCA14",
"|. c #8BC224",
" X c #97C527",
".X c #8DC63A",
"XX c #ACCB24",
"oX c #B2CD27",
"OX c #ADCC3B",
"+X c #B7D138",
"@X c #83BD49",
"#X c #88847D",
"$X c #85BE65",
"%X c #8DC544",
"&X c #96C74A",
"*X c #86C557",
"=X c #9CCC5C",
"-X c #99C956",
";X c #A5CD44",
":X c #BAD345",
">X c #A6CD5A",
",X c #ABD25B",
"<X c #BBD555",
"1X c #B3D35A",
"2X c #BBD65A",
"3X c #BCD85C",
"4X c #BAD754",
"5X c #8BC462",
"6X c #97CB61",
"7X c #A0C762",
"8X c #C3D95A",
"9X c #C4D859",
"0X c #C1D746",
"qX c #789E88",
"wX c #6BBD8C",
"eX c #72B283",
"rX c #7CC293",
"tX c #9CA0A2",
"yX c #9EB1A1",
"uX c #87C199",
"iX c #9CC28D",
"pX c #8AC7A1",
"aX c #BBD8C5",
"sX c #D3DDDC",
"dX c #C8C9C9",
"fX c #D1E2DC",
"gX c None",
/* pixels */
"gXgXgXgXgXgXgXgXgXgXgXgXgXgXgXgXgXgXgXgXgXgXgXgXgXgXgXgXgXgXgXgXgXgXgXgXgXgXgXgXgXgXgXgXgXgXgXgXgXgXgXgXgXgXgXgXgXgXgXgX",
"gXgXgXgXgXgXgXgXgXgXgXgXgXgXgXgXgXgXgXgXgXgXgXgXgXgXgXgXgXgXgXgXgXgXgXgXgXgXgXgXgXgXgXgXgXgXgXgXgXgXgXgXgXgXgXgXgXgXgXgX",
"gXgXgXgXgXgXgXgXgXgXgXgXgXgXgXgXgXgXgXgXgXgXgXgXgXgXgXgXgXgX# gXgXgXgXgXgXgXgXgXgXgXgXgXgXgXgXgXgXgXgXgXgXgXgXgXgXgXgXgX",
"gXgXgXgXgXgXgXgXgXgXgXgXgXgXgXgXgXc.c.gXgXgXgXgXgXgXO 4 9 k k k w r e.gXgXgXgXgXq y.y.f c.gXgXgXgXgXgXgXgXgXgXgXgXgXgXgX",
"gXgXgXgXgXgXgXgXgXgXgXgXgXgXs.s.r.G D M B j.gXgXgX3 V 7.V..X&X&XF.O.C p gXgXgXy.J { K ] r.gXgXgXgXgXgXgXgXgXgXgXgXgXgXgX",
"gXgXgXgXgXgXgXgXgXgXgXgXgXgXh.< X.W ^ R  .N gXr j &..X-X-X=X=X=X=X-X%XO.w gXgXS ;.7.o.*.D A r.gXgXgXgXgXgXgXgXgXgXgXgXgX",
"gXgXgXgXgXgXgXgXgXgXgXgXgXgXh.T &.[ [ ,.R p y > >.@X@X*X6X6X=X=X=X5XV.V.;.B q.A { Z C &.=.@.y.gXgXgXgXgXgXgXgXgXgXgXgXgX",
"gXgXgXgXgXgXgXgXgXgXgXgXgXgXgXf = h C ' { 2 9 o.B.+ o + S.7X>X=X5Xn.o $ m.U j 7 6 q G K ' f gXgXgXgXgXgXgXgXgXgXgXgXgXgX",
"gXgXgXgXgXgXgXgXgXgXgXgXgXgXgXe.q { %.K 0 2 U C.uX@ . X uX$X=X5XiX%     qXS.X.* 3 | ,.< i gXgXgXgXgXgXgXgXgXgXgXgXgXgXgX",
"gXgXgXgXgXgXgXgXgXgXgXgXgXgXgXgXl } ;.K * _ 1.A.sXyX& tXsXeX&XN.aXdX% #XsXpX#.C 6 } ,.J t.gXgXgXgXgXgXgXgXgXgXgXgXgXgXgX",
"gXgXgXgXgXgXgXgXgXgXgXgXgXgXgXs.( ] >.9 9 Q @Xg.Z.wXuXwXb.i.*Xz.v.D.uXwXA.i.+.7.7 C 7.I t.gXgXgXgXgXgXgXgXgXgXgXgXgXgXgX",
"gXgXgXgXgXgXgXgXgXgXgXgXgXgXgXs.( ] ' 2 ' J.@Xg.d F C l u d =XM.r c @.z f 3 C.Y.Z e 5.R l.gXgXgXgXgXgXgXgXgXgXgXgXgXgXgX",
"gXgXgXgXgXgXgXgXgXgXgXgXgXgXgXs.( #.h 7 3.U..XM.u b c b u C.1X-Xb a c n i b 5X XW = ] -.f.gXgXgXgXgXgXgXgXgXgXgXgXgXgXgX",
"gXgXgXgXgXgXgXgXgXgXgXgXgXgXgXgX/ #.5 B Q.~..X>XB.n g.s M.,X2X,XV.f.s b z.*X;X|.Y ; J -.l.gXgXgXgXgXgXgXgXgXgXgXgXgXgXgX",
"gXgXgXgXgXgXgXgXgXgXgXgXgXgXgXgX( +.2 L J.^. X;X>X>X-X>X1X2X2X2X3X,X-X>X,X;X XL.G.) h ] d.gXgXgXgXgXgXgXgXgXgXgXgXgXgXgX",
"gXgXgXgXgXgXgXgXgXgXgXgXgXgXgXgXu.f - 2.Q.J.P. X;X1X3X2X2X<X2X2X1X3X1X1X;X X/.^.G.-.g S gXgXgXgXgXgXgXgXgXgXgXgXgXgXgXgX",
"gXgXgXgXgXgXgXgXgXgXgXgXgXgXgXgXc.q.: ! ^.!.R.R. X+X4X<X2X9X9X4X<X3X:XOX XR.R.P.G.~ 7 d.gXgXgXgXgXgXgXgXgXgXgXgXgXgXgXgX",
"gXgXgXgXgXgXgXgXgXgXgXgXgXgXgXgXgXa.h J.).!.R.E.R.XX+X<X2X9X8X3X<X:XXX[.W.R./.L.I.! v gXgXgXgXgXgXgXgXgXgXgXgXgXgXgXgXgX",
"gXgXgXgXgXgXgXgXgXgXgXgXgXgXgXgXgXgXV J./.!./.(.E.E.XX:X8X8X8X8X<X+X{.W.W.R./. XL.K.G gXgXgXgXgXgXgXgXgXgXgXgXgXgXgXgXgX",
"gXgXgXgXgXgXgXgXgXgXgXgXgXgXgXgXgXgXK ~.!.!.R.(.`.].].XX0X9X8X8X0XoX'.E.E.(./.^.Q.L.V gXgXgXgXgXgXgXgXgXgXgXgXgXgXgXgXgX",
"gXgXgXgXgXgXgXgXgXgXgXgXgXgXgXgXgXe.L T.Q.!./.(.(.`.].].oX+X0X0XoX}.`.[.(././.!.Q.K._ gXgXgXgXgXgXgXgXgXgXgXgXgXgXgXgXgX",
"gXgXgXgXgXgXgXgXgXgXgXgXgXgXgXgXgXy ] H.Q.^.).(.(.E.`.].].}.oXoX}.].{.[.(././.R.T.L._ gXgXgXgXgXgXgXgXgXgXgXgXgXgXgXgXgX",
"gXgXgXgXgXgXgXgXgXgXgXgXgXgXgXgXgXe.L K.K.^./././.(.[.`.].].].'.].{.{.(.(././.J.Q.K.V gXgXgXgXgXgXgXgXgXgXgXgXgXgXgXgXgX",
"gXgXgXgXgXgXgXgXgXgXgXgXgXgXgXgXgXgXK Y.T.T.!.)./.(.[.{.].`.}.}.`.{.(.(.(././.P.J.4.x gXgXgXgXgXgXgXgXgXgXgXgXgXgXgXgXgX",
"gXgXgXgXgXgXgXgXgXgXgXgXgXgXgXgXgXgXk U.~.~.L././.(._.(.[.[.[.[.(.(.E.(.!././.Q.^.R d gXgXgXgXgXgXgXgXgXgXgXgXgXgXgXgXgX",
"gXgXgXgXgXgXgXgXgXgXgXgXgXgXgXgXgXgXj 2.U.K.J./.R././.(.(.(.(._.(.(./././.!.Q.9.Y.U gXgXgXgXgXgXgXgXgXgXgXgXgXgXgXgXgXgX",
"gXgXgXgXgXgXgXgXgXgXgXgXgXgXgXgXgXgXy ..L.J.L.^.).I./.).(.(.P.(././.).I.^.L.H.K.3.B gXgXgXgXgXgXgXgXgXgXgXgXgXgXgXgXgXgX",
"gXgXgXgXgXgXgXgXgXgXgXgXgXgXgXgXgXgXgXH U.4.R J I J.).).P.).).I./.!.I.L.J.H.K.K.R p gXgXgXgXgXgXgXgXgXgXgXgXgXgXgXgXgXgX",
"gXgXgXgXgXgXgXgXgXgXgXgXgXgXgXgXgXgXgX8 < B h m ; < 9.P.L.!.).^.^.Q.:.K Z ) R E D gXgXgXgXgXgXgXgXgXgXgXgXgXgXgXgXgXgXgX",
"gXgXgXgXgXgXgXgXgXgXgXgXgXgXgXgXgXgXgX# 4 Z R E &.e W J.K.Q.L.J.L.! : z $.] I < t.gXgXgXgXgXgXgXgXgXgXgXgXgXgXgXgXgXgXgX",
"gXgXgXgXgXgXgXgXgXgXgXgXgXgXgXgXgXgXgXi K :.~ =.6.j U H.9.H.H.H.U.~ 9 F *.*.;.X.l.gXgXgXgXgXgXgXgXgXgXgXgXgXgXgXgXgXgXgX",
"gXgXgXgXgXgXgXgXgXgXgXgXgXgXgXgXgXgXr V ~ =.7.I L x ' Y ! K.! K.! E 8 x [ T ;.3.1.l.gXgXgXgXgXgXgXgXgXgXgXgXgXgXgXgXgXgX",
"gXgXgXgXgXgXgXgXgXgXgXgXgXgXgXgXgXgXw ;.~ -.&.} | 0 ` H.3.3.4.3.! W e q +.@.*.;.~ I x.gXgXgXgXgXgXgXgXgXgXgXgXgXgXgXgXgX",
"gXgXgXgXgXgXgXgXgXgXgXgXgXgXgXgXgXw.X.4.:.I } @.G 3 ) Q 3.Q ! 3.3.9., i G _ 5.*.;.! +.gXgXgXgXgXgXgXgXgXgXgXgXgXgXgXgXgX",
"gXgXgXgXgXgXgXgXgXgXgXgXgXgXgXgXgXv :.;.,.>.5.@.b r 7 e Z K L | ( F i 0.s / 6.&.>.2.-.k.gXgXgXgXgXgXgXgXgXgXgXgXgXgXgXgX",
"gXgXgXgXgXgXgXgXgXgXgXgXgXgXgXgXgX) ! :.>.{ @.c e.gXgXgXgXgXt q.gXgXgXgXt b _ [ } ..Y S gXgXgXgXgXgXgXgXgXgXgXgXgXgXgXgX",
"gXgXgXgXgXgXgXgXgXgXgXgXgXgXgXgXgXK 4.%.] [ A y.gXgXgXgXgXgXgXgXgXgXgXgXgXp.M +.} ] -.M gXgXgXgXgXgXgXgXgXgXgXgXgXgXgXgX",
"gXgXgXgXgXgXgXgXgXgXgXgXgXgXgXgXgX, 7.%.[ G a gXgXgXgXgXgXgXgXgXgXgXgXgXgXgXr s +.D Z 4 gXgXgXgXgXgXgXgXgXgXgXgXgXgXgXgX",
"gXgXgXgXgXgXgXgXgXgXgXgXgXgXgXgXgX2 z _ k 3 r gXgXgXgXgXgXgXgXgXgXgXgXgXgXgXs j q q a r gXgXgXgXgXgXgXgXgXgXgXgXgXgXgXgX",
"gXgXgXgXgXgXgXgXgXgXgXgXgXgXgXgXgXi 6 2 8 A N gXgXgXgXgXgXgXgXgXgXgXgXgXgXgX` ;.] | +.p gXgXgXgXgXgXgXgXgXgXgXgXgXgXgXgX",
"gXgXgXgXgXgXgXgXgXgXgXgXgXgXgXgXgXi.( _ o.4.J gXgXgXgXgXgXgXgXgXgXgXgXgXgXy.L Q >.&.F q.gXgXgXgXgXgXgXgXgXgXgXgXgXgXgXgX",
"gXgXgXgXgXgXgXgXgXgXgXgXgXgXgXgXgXr.@.T E ~ U gXgXgXgXgXgXgXgXgXgXgXgXgXgXu.R ^ 6.} S p.gXgXgXgXgXgXgXgXgXgXgXgXgXgXgXgX",
"gXgXgXgXgXgXgXgXgXgXgXgXgXgXgXgXgXs.c #.} <. .y.gXgXgXgXgXgXgXgXgXgXgXgXgXf ;.:.*.&.n gXgXgXgXgXgXgXgXgXgXgXgXgXgXgXgXgX",
"gXgXgXgXgXgXgXgXgXgXgXgXgXgXgXgXgXp.s [ } ;.R u.gXgXgXgXgXgXgXgXgXgXgXgXgXs 1.,.] [ d gXgXgXgXgXgXgXgXgXgXgXgXgXgXgXgXgX",
"gXgXgXgXgXgXgXgXgXgXgXgXgXgXgXgXgXgXr.' &.E I u.gXgXgXgXgXgXgXgXgXgXgXgXgXf R ;.&.+.r.gXgXgXgXgXgXgXgXgXgXgXgXgXgXgXgXgX",
"gXgXgXgXgXgXgXgXgXgXgXgXgXgXgXgXgXgX0.G } R X.w.gXgXgXgXgXgXgXgXgXgXgXgXgXa ..,.#.c t gXgXgXgXgXgXgXgXgXgXgXgXgXgXgXgXgX",
"gXgXgXgXgXgXgXgXgXgXgXgXgXgXgXgXgXd.r 0 @.} ' y gXgXgXgXgXgXgXgXgXgXgXgXgX4 ' >.A 4 p c.gXgXgXgXgXgXgXgXgXgXgXgXgXgXgXgX",
"gXgXgXgXgXgXgXgXgXgXgXgXgXgXgXgXgXj.D h l B ; u e.gXgXgXgXgXgXgXgXgXgXgXgXq g l 2 8 ` i.gXgXgXgXgXgXgXgXgXgXgXgXgXgXgXgX",
"gXgXgXgXgXgXgXgXgXgXgXgXgXgXgXgXgX+.1. .V w x C t gXgXgXgXgXgXgXgXgXgXgXgXG c e m ` %.+.d.gXgXgXgXgXgXgXgXgXgXgXgXgXgXgX",
"gXgXgXgXgXgXgXgXgXgXgXgXgXgXgXgXh.1 ~ -.R ] &.| i gXgXgXgXgXgXgXgXgXgXgXy.J =...&.=.%.Z y.gXgXgXgXgXgXgXgXgXgXgXgXgXgXgX",
"gXgXgXgXgXgXgXgXgXgXgXgXgXgXgXgXgXi x $.4.I W T i gXgXgXgXgXgXgXgXgXgXgXt.) o.%.E [ s r p.gXgXgXgXgXgXgXgXgXgXgXgXgXgXgX",
"gXgXgXgXgXgXgXgXgXgXgXgXgXgXgXgXgXgXgXm < w A | p gXgXgXgXgXgXgXgXgXgXgXgXl.p p g a gXgXgXgXgXgXgXgXgXgXgXgXgXgXgXgXgXgX",
"gXgXgXgXgXgXgXgXgXgXgXgXgXgXgXgXgXgXgXgXt gXgXd 4 gXgXgXgXgXgXgXgXgXgXgXgXgXgXgXgXgXgXgXgXgXgXgXgXgXgXgXgXgXgXgXgXgXgXgX",
"gXgXgXgXgXgXgXgXgXgXgXgXgXgXgXgXgXgXgXgXgXgXgXgXgXgXgXgXgXgXgXgXgXgXgXgXgXgXgXgXgXgXgXgXgXgXgXgXgXgXgXgXgXgXgXgXgXgXgXgX",
"gXgXgXgXgXgXgXgXgXgXgXgXgXgXgXgXgXgXgXgXgXgXgXgXgXgXgXgXgXgXgXgXgXgXgXgXgXgXgXgXgXgXgXgXgXgXgXgXgXgXgXgXgXgXgXgXgXgXgXgX",
"gXgXgXgXgXgXgXgXgXgXgXgXgXgXgXgXgXgXgXgXgXgXgXgXgXgXgXgXgXgXgXgXgXgXgXgXgXgXgXgXgXgXgXgXgXgXgXgXgXgXgXgXgXgXgXgXgXgXgXgX",
"gXgXgXgXgXgXgXgXgXgXgXgXgXgXgXgXgXgXgXgXgXgXgXgXgXgXgXgXgXgXgXgXgXgXgXgXgXgXgXgXgXgXgXgXgXgXgXgXgXgXgXgXgXgXgXgXgXgXgXgX",
"gXgXgXgXgXgXgXgXgXgXgXgXgXgXgXgXgXgXgXgXgXgXgXgXgXgXgXgXgXgXgXgXgXgXgXgXgXgXgXgXgXgXgXgXgXgXgXgXgXgXgXgXgXgXgXgXgXgXgXgX",
"gXgXgXgXgXgXgXgXgXgXgXgXgXgXgXgXgXgXgXgXgXgXgXgXgXgXgXgXgXgXgXgXgXgXgXgXgXgXgXgXgXgXgXgXgXgXgXgXgXgXgXgXgXgXgXgXgXgXgXgX",
"gXgXgXgXgXgXgXgXgXgXgXgXgXgXgXgXgXgXgXgXgXgXgXgXgXgXgXgXgXgXgXgXgXgXgXgXgXgXgXgXgXgXgXgXgXgXgXgXgXgXgXgXgXgXgXgXgXgXgXgX"
};
