/* XPM */
static const char * frog2_xpm[] = {
/* columns rows colors chars-per-pixel */
"60 60 225 2 ",
"   c #11110C",
".  c #0B1113",
"X  c #1F1E21",
"o  c #28282C",
"O  c #31592B",
"+  c #007E2E",
"@  c #017C37",
"#  c #1C6430",
"$  c #2C6D38",
"%  c #007F47",
"&  c #566A64",
"*  c #6D7072",
"=  c #0D8E1F",
"-  c #289C1D",
";  c #2CA319",
":  c #3BAB1B",
">  c #098425",
",  c #0C8C2C",
"<  c #068928",
"1  c #168C29",
"2  c #0B9128",
"3  c #14942B",
"4  c #19932D",
"5  c #139A2C",
"6  c #179726",
"7  c #018332",
"8  c #048B35",
"9  c #0C8C32",
"0  c #01833B",
"q  c #048C3B",
"w  c #0C8B3C",
"e  c #148B32",
"r  c #1C8C36",
"t  c #0A9236",
"y  c #0D943C",
"u  c #069339",
"i  c #1B9433",
"p  c #1B943B",
"a  c #13993D",
"s  c #15953A",
"d  c #208E26",
"f  c #2D9C24",
"g  c #2B9C2B",
"h  c #249729",
"j  c #3A9B2E",
"k  c #339927",
"l  c #239C33",
"z  c #289737",
"x  c #349C34",
"c  c #3E9D33",
"v  c #349B3A",
"b  c #248C34",
"n  c #19A12B",
"m  c #2AA32C",
"M  c #34A52C",
"N  c #3BA42B",
"B  c #38A525",
"V  c #27A138",
"C  c #36A334",
"Z  c #44A21C",
"A  c #4AA91A",
"S  c #46AC18",
"D  c #5AAD1D",
"F  c #58AB19",
"G  c #5AB21C",
"H  c #59B417",
"J  c #4BB01D",
"K  c #61AF0C",
"L  c #67AE15",
"P  c #64B21B",
"I  c #6BB31C",
"U  c #68B518",
"Y  c #7DB914",
"T  c #71B61C",
"R  c #7CBB1C",
"E  c #78B81A",
"W  c #74B50F",
"Q  c #429D2C",
"!  c #449D23",
"~  c #5B9E2A",
"^  c #45A424",
"/  c #4DAB23",
"(  c #4CA32C",
")  c #43AA2C",
"_  c #48A828",
"`  c #52AC24",
"'  c #5CAE23",
"]  c #55A62C",
"[  c #5BAC2B",
"{  c #56A727",
"}  c #5DB32A",
"|  c #57B125",
" . c #43A434",
".. c #4CA532",
"X. c #48A932",
"o. c #53AA32",
"O. c #59A833",
"+. c #57B238",
"@. c #4FB423",
"#. c #63AC25",
"$. c #63AB2C",
"%. c #6BAF2A",
"&. c #68AF25",
"*. c #70AF26",
"=. c #64B323",
"-. c #6DB424",
";. c #65B22B",
":. c #6BB32B",
">. c #6BBC22",
",. c #72B523",
"<. c #74BB23",
"1. c #7CBC21",
"2. c #71BA2B",
"3. c #73B12A",
"4. c #63AA34",
"5. c #68B536",
"6. c #78BC3B",
"7. c #7FC116",
"8. c #028443",
"9. c #018D45",
"0. c #01854C",
"q. c #0B8D44",
"w. c #039145",
"e. c #079645",
"r. c #1A9442",
"t. c #1B9E43",
"y. c #139642",
"u. c #0D9454",
"i. c #229745",
"p. c #2C9347",
"a. c #1AA24E",
"s. c #37A040",
"d. c #309D65",
"f. c #25A668",
"g. c #4B904B",
"h. c #44A345",
"j. c #43A647",
"k. c #5FB142",
"l. c #40B34B",
"z. c #6AB853",
"x. c #6DB452",
"c. c #4CB07E",
"v. c #65B57B",
"b. c #71BB7F",
"n. c #68AB60",
"m. c #78C254",
"M. c #83BE0E",
"N. c #82BD14",
"B. c #8DBF14",
"V. c #83BD1B",
"C. c #8ABE1C",
"Z. c #90BE1A",
"A. c #83BC23",
"S. c #87BC25",
"D. c #89BE3B",
"F. c #A6BF3F",
"G. c #8CC10D",
"H. c #85C20A",
"J. c #95C30D",
"K. c #9CC40D",
"L. c #98C307",
"P. c #8BC114",
"I. c #8EC11A",
"U. c #83C118",
"Y. c #94C314",
"T. c #9BC512",
"R. c #92C21A",
"E. c #98C41E",
"W. c #A5C905",
"Q. c #A9CA04",
"!. c #A3C60C",
"~. c #A4C80C",
"^. c #AACA0C",
"/. c #A3C701",
"(. c #A3C612",
"). c #A4C619",
"_. c #ABC818",
"`. c #B0CD1E",
"'. c #8AC123",
"]. c #83C024",
"[. c #98C52A",
"{. c #9DC53B",
"}. c #87C638",
"|. c #A7CA28",
" X c #B2CE23",
".X c #A7CC39",
"XX c #B6CD38",
"oX c #B9D23A",
"OX c #87BC5A",
"+X c #85BD7C",
"@X c #96BE63",
"#X c #8CC544",
"$X c #8BC659",
"%X c #9DCC52",
"&X c #96CA57",
"*X c #ACCE46",
"=X c #BBD445",
"-X c #A2CB55",
";X c #A5CD5A",
":X c #A9CC5E",
">X c #ADD35A",
",X c #BBD654",
"<X c #B5D65E",
"1X c #BCD55A",
"2X c #B9D757",
"3X c #8AC460",
"4X c #99CD62",
"5X c #AED160",
"6X c #C3D855",
"7X c #C5D65C",
"8X c #C1D85A",
"9X c #C2D651",
"0X c #C0D64C",
"qX c #887C85",
"wX c #5EB482",
"eX c #6FBB88",
"rX c #88938C",
"tX c #8DBD8D",
"yX c #BAB5BA",
"uX c #9CC99E",
"iX c #AAD7BC",
"pX c #B7E1CD",
"aX c #D4DADD",
"sX c #C0C6C8",
"dX c None",
/* pixels */
"dXdXdXdXdXdXdXdXdXdXdXdXdXdXdXdXdXdXdXdXdXdXdXdXdXdXdXdXdXdXdXdXdXdXdXdXdXdXdXdXdXdXdXdXdXdXdXdXdXdXdXdXdXdXdXdXdXdXdXdX",
"dXdXdXdXdXdXdXdXdXdXdXdXdXdXdXdXdXdXdXdXdXdXdXdXdXdXdXdXdXdXdXdXdXdXdXdXdXdXdXdXdXdXdXdXdXdXdXdXdXdXdXdXdXdXdXdXdXdXdXdX",
"dXdXdXdXdXdXdXdXdXdXdXdXdXdXdXdXdXdXdXdXdXdXdXdXdXdXdXdXdXdXdXdXdXdXdXdXdXdXdXdXdXdXdXdXdXdXdXdXdXdXdXdXdXdXdXdXdXdXdXdX",
"dXdXdXdXdXdXdXdXdXdXdXdXdXdXdXdXdXdXdXdXdXdXdXdXdXdXdXdXdXdXdXdXdXdXdXdXdXdXdXdXdXdXdXdXdXdXdXdXdXdXdXdXdXdXdXdXdXdXdXdX",
"dXdXdXdXdXdXdXdXdXdXdXdXdXdXdXdXdXdXdXdXdXdXdXdXdXdXdXdXdXdXdXdXdXdXdXdXdXdXdXdXdXdXdXdXdXdXdXdXdXdXdXdXdXdXdXdXdXdXdXdX",
"dXdXdXdXdXdXdXdXdXdXdXdXdXdXdXdXdXdXdXdXdXdXdXdXdXdXdXdXdXdXdXdXdXdXdXdXdXdXdXdXdXdXdXdXdXdXdXdXdXdXdXdXdXdXdXdXdXdXdXdX",
"dXdXdXdXdXdXdXdXdXdXdXdXdXdXdXdXdXdXdXdXdXdXdXdXdXdXdXdXdXdXdXdXdXdXdXdXdXdXdXdXdXdXdXdXdXdXdXdXdXdXdXdXdXdXdXdXdXdXdXdX",
"dXdXdXdXdXdXdXdXdXdXdXdXdXdXdXdXdXdXdXdXdXdXdXdXdXdXdXdXdXdXdXdXdXdXdXdXdXdXdXdXdXdXdXdXdXdXdXdXdXdXdXdXdXdXdXdXdXdXdXdX",
"dXdXdXdXdXdXdXdXdXdXdXdXdXdXdXdXdXdXdXdXdXdXdXdXdXdXdXdXdXdXdXdXdXdXdXdXdXdXdXdXdXdXdXdXdXdXdXdXdXdXdXdXdXdXdXdXdXdXdXdX",
"dXdXdXdXdXdXdXdXdXdXdXdXdXdXdXdXdXdXdXdXdXdXdXdXdXdXdXdXdXdXdXdXdXdXdXdXdXdXdXdXdXdXdXdXdXdXdXdXdXdXdXdXdXdXdXdXdXdXdXdX",
"dXdXdXdXdXdXdXdXdXdXdXdXdXdXdXdXdXdXdXdXdXdXdXdXdXdXdXdXdXdXdXdXdXdXdXdXdXdXdXdXdXdXdXdXdXdXdXdXdXdXdXdXdXdXdXdXdXdXdXdX",
"dXdXdXdXdXdXdXdXdXdXdXdXdXdXdXdXdXdXdXdXdXdXdXdXdXdX@ 0 r Q ! ! x e @ dXdXdXdXdXdXdXdXdXdXdXdXdXdXdXdXdXdXdXdXdXdXdXdXdX",
"dXdXdXdXdXdXdXdXdXdXdXdXdXdXdXdXdXdXdXdXdXdXdXdXdX> - @.6.}.#X#XOXD.^ b dXdXdXdXdXdXdXdXdXdXdXdXdXdXdXdXdXdXdXdXdXdXdXdX",
"dXdXdXdXdXdXdXdXdXdXdXdXdXdXdXdXdXdXdXdXdXdXdXdXd F D.-X%X%X4X4X&X-X#X5.g 8.dXdXdXdXdXdXdXdXdXdXdXdXdXdXdXdXdXdXdXdXdXdX",
"dXdXdXdXdXdXdXdXdXdXdXdXdXdXdXdXdXdXdXdXdXdXdX4 P x.$X$X&X4X4X;X-X&X3X$X6.j dXdXdXdXdXdXdXdXdXdXdXdXdXdXdXdXdXdXdXdXdXdX",
"dXdXdXdXdXdXdXdXdXdXdXdXdXdXdXdXdXdXdXdXdXdX1 -.5.g.O $ n.3X>X&X@Xn.% # g.4.l dXdXdXdXdXdXdXdXdXdXdXdXdXdXdXdXdXdXdXdXdX",
"dXdXdXdXdXdXdXdXdXdXdXdXdXdXdXdXdXdXdXdXdX> A %.eX&   o rX+X&X&XtXrXX   * +XJ z dXdXdXdXdXdXdXdXdXdXdXdXdXdXdXdXdXdXdXdX",
"dXdXdXdXdXdXdXdXdXdXdXdXdXdXdXdXdXdXdXdXdXf S.x.pXyX* rXaXtX@XOXuXaXqX* sXiXk.o.q.dXdXdXdXdXdXdXdXdXdXdXdXdXdXdXdXdXdXdX",
"dXdXdXdXdXdXdXdXdXdXdXdXdXdXdXdXdXdXdXdX1 =.}.p.f.v.wXwXc.r.k.l.a.c.eXwXv.d.j.A.g dXdXdXdXdXdXdXdXdXdXdXdXdXdXdXdXdXdXdX",
"dXdXdXdXdXdXdXdXdXdXdXdXdXdXdXdXdXdXdXdXZ Z.%Xj.w v N N s w $Xz.e p Q  .h q j.[.@.w.dXdXdXdXdXdXdXdXdXdXdXdXdXdXdXdXdXdX",
"dXdXdXdXdXdXdXdXdXdXdXdXdXdXdXdXdXy q.< H C.{.m.w 3 x c e C :X;Xv 9 z c l r.z.*X>.4 w.e.dXdXdXdXdXdXdXdXdXdXdXdXdXdXdXdX",
"dXdXdXdXdXdXdXdXdXdXdXdXdXdXdXdXdX) d 6 R M.'.%Xz.z r.b h.&X<X<X$Xh.z r v z.-X[.U.B - _ 9.dXdXdXdXdXdXdXdXdXdXdXdXdXdXdX",
"dXdXdXdXdXdXdXdXdXdXdXdXdXdXdXq.m [ 1 : 7.U.'..X>X-X&X-X>X<X<X1X<X>X&XOX:X*X[.H.H.=.6 ) y dXdXdXdXdXdXdXdXdXdXdXdXdXdXdX",
"dXdXdXdXdXdXdXdXdXdXdXdXdXdXw.M I F 9 H 7.'.P.E..X2X1X1X1X1X1X1X,X,X,X2X*X.XE.P.P.<.6 / ` p dXdXdXdXdXdXdXdXdXdXdXdXdXdX",
"dXdXdXdXdXdXdXdXdXdXdXdXdXdXdXt.J N < W U.P.Y.E.R..X<X<X1X1X6X2X,X1X,X.X[.E.I.'.I.R - M  .dXdXdXdXdXdXdXdXdXdXdXdXdXdXdX",
"dXdXdXdXdXdXdXdXdXdXdXdXdXdXdXdXi.3 2 E S.Y.R.J.!.(.XX9X7X1X8X8X7X8XXXK.~.T.Y.Y.P.V.B u dXdXdXdXdXdXdXdXdXdXdXdXdXdXdXdX",
"dXdXdXdXdXdXdXdXdXdXdXdXdXdXdXdXdX% - A.I.Y.Y.T.T.(.).XX6X7X7X7X6X=X)./.T.T.G.Y.P.].X.dXdXdXdXdXdXdXdXdXdXdXdXdXdXdXdXdX",
"dXdXdXdXdXdXdXdXdXdXdXdXdXdXdXdXdXdXg N.P.I.R.T.).(.!._.oX6X7X7X,X X~.~.).T.Y.I.Y.S.) dXdXdXdXdXdXdXdXdXdXdXdXdXdXdXdXdX",
"dXdXdXdXdXdXdXdXdXdXdXdXdXdXdXdXdXdXg M.T.R.Y.Y.T.(.W.W. XoX0X9XoX^./.(.T.T.Y.Y.B.P.S dXdXdXdXdXdXdXdXdXdXdXdXdXdXdXdXdX",
"dXdXdXdXdXdXdXdXdXdXdXdXdXdXdXdXdXq.B L W H.R.Y.T.T.!.~.Q.^.`.`._.^.~.~.T.T.Y.P.M.T N dXdXdXdXdXdXdXdXdXdXdXdXdXdXdXdXdX",
"dXdXdXdXdXdXdXdXdXdXdXdXdXdXdXdXi.` G ' | T I.Y.T.T.).!.Q.Q.Q.Q.^.(.(.K.T.T.R.R K ^  .l dXdXdXdXdXdXdXdXdXdXdXdXdXdXdXdX",
"dXdXdXdXdXdXdXdXdXdXdXdXdXdXdXw.X.:.=.T I L E I.L.K.T.!.~.~.~.^.~.~.K.T.T.K.R | L -.3.F t.dXdXdXdXdXdXdXdXdXdXdXdXdXdXdX",
"dXdXdXdXdXdXdXdXdXdXdXdXdXdXdXy { [ =.=.2.2.L E B.T.K.T.K.!.~.!.K.T.T.J.T.V.F P R 1.*.L N w.dXdXdXdXdXdXdXdXdXdXdXdXdXdX",
"dXdXdXdXdXdXdXdXdXdXdXdXdXdXdXy.] ] [ -.-.2.=.L '.Y.T.T.Y.K.K.T.T.Y.Y.Y.C.F G <.E %.+.[  .t dXdXdXdXdXdXdXdXdXdXdXdXdXdX",
"dXdXdXdXdXdXdXdXdXdXdXdXdXdXdX9.v X.[ #.-.,.-.I E P.B.J.Y.Y.K.J.Y.Y.Y.I.L A <.E =.[ o.O.v q dXdXdXdXdXdXdXdXdXdXdXdXdXdX",
"dXdXdXdXdXdXdXdXdXdXdXdXdXdXdXdXi ( ] [ &.-.I <.U V.Y.Z.Y.Y.Y.J.R.Y.H.Y Z ;.E U ;.[ O.~ z @ dXdXdXdXdXdXdXdXdXdXdXdXdXdX",
"dXdXdXdXdXdXdXdXdXdXdXdXdXdXdXdX> x ..[ #.;.,.,.I E I.I.I.R.I.B.I.Y.B.K / <.,.=.#.o...C , @ dXdXdXdXdXdXdXdXdXdXdXdXdXdX",
"dXdXdXdXdXdXdXdXdXdXdXdXdXdXdXdX7 t C ' [ 4.-.<.&.T C.I.C.I.I.P.].I.S.D @.T I $.[ ..c s + 0 dXdXdXdXdXdXdXdXdXdXdXdXdXdX",
"dXdXdXdXdXdXdXdXdXdXdXdXdXdXdXdX0.7 4 X.] $.&.:.' L V.A.V.U.N.U.7.V.S.{ ` ,.#.o.] C p < 9.0.dXdXdXdXdXdXdXdXdXdXdXdXdXdX",
"dXdXdXdXdXdXdXdXdXdXdXdXdXdXdXdX0.u 7 i ..$.#.:.| G 1.R R R V.N.R N.R / / %.$...] z 7 1 r.dXdXdXdXdXdXdXdXdXdXdXdXdXdXdX",
"dXdXdXdXdXdXdXdXdXdXdXdXdXdXdXdXdXs k < 5 m / / ; T R R R R N.N.Y Y <.: ; 4.X.m z , 4 j w dXdXdXdXdXdXdXdXdXdXdXdXdXdXdX",
"dXdXdXdXdXdXdXdXdXdXdXdXdXdXdXu.i = C C m i g e 8 ; H <.1.R <.2.R E <.{ 1 b 4 = , z  .h w t.9.dXdXdXdXdXdXdXdXdXdXdXdXdX",
"dXdXdXdXdXdXdXdXdXdXdXdXdXdXdXy F f t ..' o.J a dXdX, g ^ _ _ A S B t.w dXw.M S [ O.j , N Z q dXdXdXdXdXdXdXdXdXdXdXdXdX",
"dXdXdXdXdXdXdXdXdXdXdXdXdXdXdX8.` } 2 k [ -.#.e.dXdXdXdXdXdX0.dXdXdXdXdXdXa.=.} $. .t 4 [ k dXdXdXdXdXdXdXdXdXdXdXdXdXdX",
"dXdXdXdXdXdXdXdXdXdXdXdXdXdXdXe.D -.N , j H N dXdXdXdXdXdXdXdXdXdXdXdXdXdXdX$.;.D f 8 { I n dXdXdXdXdXdXdXdXdXdXdXdXdXdX",
"dXdXdXdXdXdXdXdXdXdXdXdXdXdXdX5 P ,.4.N 3 3 w dXdXdXdXdXdXdXdXdXdXdXdXdXdXdXs f 1 = x [ L g 0.dXdXdXdXdXdXdXdXdXdXdXdXdX",
"dXdXdXdXdXdXdXdXdXdXdXdXdXdXdX0 l G :.O.V q dXdXdXdXdXdXdXdXdXdXdXdXdXdXdXdXdXdX9 Q ' H M 9.dXdXdXdXdXdXdXdXdXdXdXdXdXdX",
"dXdXdXdXdXdXdXdXdXdXdXdXdXdXdXdXr.%.-.N u dXdXdXdXdXdXdXdXdXdXdXdXdXdXdXdXdXdXdXdXn ' E C dXdXdXdXdXdXdXdXdXdXdXdXdXdXdX",
"dXdXdXdXdXdXdXdXdXdXdXdXdXdXdXdXp  .l q dXdXdXdXdXdXdXdXdXdXdXdXdXdXdXdXdXdXdXdXdXdXt._ z dXdXdXdXdXdXdXdXdXdXdXdXdXdXdX",
"dXdXdXdXdXdXdXdXdXdXdXdXdXdXdXdXq u dXdXdXdXdXdXdXdXdXdXdXdXdXdXdXdXdXdXdXdXdXdXdXdXdXdX0.dXdXdXdXdXdXdXdXdXdXdXdXdXdXdX",
"dXdXdXdXdXdXdXdXdXdXdXdXdXdXdXdXdXdXdXdXdXdXdXdXdXdXdXdXdXdXdXdXdXdXdXdXdXdXdXdXdXdXdXdXdXdXdXdXdXdXdXdXdXdXdXdXdXdXdXdX",
"dXdXdXdXdXdXdXdXdXdXdXdXdXdXdXdXdXdXdXdXdXdXdXdXdXdXdXdXdXdXdXdXdXdXdXdXdXdXdXdXdXdXdXdXdXdXdXdXdXdXdXdXdXdXdXdXdXdXdXdX",
"dXdXdXdXdXdXdXdXdXdXdXdXdXdXdXdXdXdXdXdXdXdXdXdXdXdXdXdXdXdXdXdXdXdXdXdXdXdXdXdXdXdXdXdXdXdXdXdXdXdXdXdXdXdXdXdXdXdXdXdX",
"dXdXdXdXdXdXdXdXdXdXdXdXdXdXdXdXdXdXdXdXdXdXdXdXdXdXdXdXdXdXdXdXdXdXdXdXdXdXdXdXdXdXdXdXdXdXdXdXdXdXdXdXdXdXdXdXdXdXdXdX",
"dXdXdXdXdXdXdXdXdXdXdXdXdXdXdXdXdXdXdXdXdXdXdXdXdXdXdXdXdXdXdXdXdXdXdXdXdXdXdXdXdXdXdXdXdXdXdXdXdXdXdXdXdXdXdXdXdXdXdXdX",
"dXdXdXdXdXdXdXdXdXdXdXdXdXdXdXdXdXdXdXdXdXdXdXdXdXdXdXdXdXdXdXdXdXdXdXdXdXdXdXdXdXdXdXdXdXdXdXdXdXdXdXdXdXdXdXdXdXdXdXdX",
"dXdXdXdXdXdXdXdXdXdXdXdXdXdXdXdXdXdXdXdXdXdXdXdXdXdXdXdXdXdXdXdXdXdXdXdXdXdXdXdXdXdXdXdXdXdXdXdXdXdXdXdXdXdXdXdXdXdXdXdX",
"dXdXdXdXdXdXdXdXdXdXdXdXdXdXdXdXdXdXdXdXdXdXdXdXdXdXdXdXdXdXdXdXdXdXdXdXdXdXdXdXdXdXdXdXdXdXdXdXdXdXdXdXdXdXdXdXdXdXdXdX",
"dXdXdXdXdXdXdXdXdXdXdXdXdXdXdXdXdXdXdXdXdXdXdXdXdXdXdXdXdXdXdXdXdXdXdXdXdXdXdXdXdXdXdXdXdXdXdXdXdXdXdXdXdXdXdXdXdXdXdXdX",
"dXdXdXdXdXdXdXdXdXdXdXdXdXdXdXdXdXdXdXdXdXdXdXdXdXdXdXdXdXdXdXdXdXdXdXdXdXdXdXdXdXdXdXdXdXdXdXdXdXdXdXdXdXdXdXdXdXdXdXdX"
};
