/* XPM */
static const char * frog7_xpm[] = {
/* columns rows colors chars-per-pixel */
"60 60 233 2 ",
"   c #1A1118",
".  c #0F3E22",
"X  c #312726",
"o  c #18431D",
"O  c #2A543A",
"+  c #017C38",
"@  c #31683B",
"#  c #463E42",
"$  c #017A43",
"%  c #377343",
"&  c #4A4D4C",
"*  c #686B6C",
"=  c #15951A",
"-  c #0F8F1B",
";  c #249B1C",
":  c #289C1A",
">  c #379C1E",
",  c #25A21C",
"<  c #3AA618",
"1  c #03862C",
"2  c #09842C",
"3  c #068B2C",
"4  c #0B8B2D",
"5  c #078821",
"6  c #138B2A",
"7  c #198D2A",
"8  c #0B922F",
"9  c #139422",
"0  c #1D9323",
"q  c #14932B",
"w  c #1B942B",
"e  c #199A27",
"r  c #028234",
"t  c #048B33",
"y  c #0B8D33",
"u  c #02823D",
"i  c #038D3D",
"p  c #0A8231",
"a  c #148C37",
"s  c #0C9431",
"d  c #0C9B34",
"f  c #04923B",
"g  c #0D933C",
"h  c #049634",
"j  c #149533",
"k  c #1B9432",
"l  c #1A9C31",
"z  c #17993A",
"x  c #249B25",
"c  c #2C9C24",
"v  c #259C2B",
"b  c #299B2C",
"n  c #269526",
"m  c #319E2A",
"M  c #249631",
"N  c #249A31",
"B  c #2A9A34",
"V  c #279A3A",
"C  c #3C9C33",
"Z  c #329A3B",
"A  c #389D39",
"S  c #268B2B",
"D  c #1CA42A",
"F  c #2AA422",
"G  c #24A329",
"H  c #34A423",
"J  c #3CA325",
"K  c #3DA32B",
"L  c #38A82A",
"P  c #2DA334",
"I  c #3AA132",
"U  c #39A636",
"Y  c #42AA1C",
"T  c #4AA719",
"R  c #53AE1B",
"E  c #59A91A",
"W  c #5AB618",
"Q  c #52A80D",
"!  c #7ABD0D",
"~  c #76BD0A",
"^  c #64AA13",
"/  c #6AB416",
"(  c #65B31C",
")  c #6BB41D",
"_  c #66B91C",
"`  c #6EBB1D",
"'  c #66B716",
"]  c #73BC13",
"[  c #72B61B",
"{  c #74BB1D",
"}  c #7CBC1E",
"|  c #78B718",
" . c #469D35",
".. c #449E2F",
"X. c #4BAA24",
"o. c #44A42C",
"O. c #4BAA2C",
"+. c #47A728",
"@. c #56AC24",
"#. c #5CAC24",
"$. c #53A42C",
"%. c #54AB2B",
"&. c #5BAC2D",
"*. c #5BA627",
"=. c #49B127",
"-. c #55B123",
";. c #54B22B",
":. c #5EB429",
">. c #5DB326",
",. c #45A334",
"<. c #4BA833",
"1. c #51A432",
"2. c #5BA532",
"3. c #57AC32",
"4. c #4EB231",
"5. c #63AB23",
"6. c #65AE2C",
"7. c #6BAE29",
"8. c #72AD2B",
"9. c #63B224",
"0. c #6CB424",
"q. c #6BB22B",
"w. c #67B629",
"e. c #73B524",
"r. c #7DBA22",
"t. c #72B52B",
"y. c #79B728",
"u. c #68B631",
"i. c #75B53A",
"p. c #7FC208",
"a. c #6AC333",
"s. c #028B42",
"d. c #01844B",
"f. c #038A49",
"g. c #078747",
"h. c #059444",
"j. c #049149",
"k. c #0B9547",
"l. c #179744",
"z. c #008452",
"x. c #009052",
"c. c #249641",
"v. c #339957",
"b. c #279D57",
"n. c #3EAB43",
"m. c #33A254",
"M. c #2CA563",
"N. c #4C864A",
"B. c #649F51",
"V. c #59AE4B",
"C. c #51A553",
"Z. c #71B947",
"A. c #6BB854",
"S. c #78B952",
"D. c #6AAF51",
"F. c #44A765",
"G. c #5FB570",
"H. c #6DB362",
"J. c #77BA65",
"K. c #74C25F",
"L. c #88BF0B",
"P. c #8BBF14",
"I. c #84BD1C",
"U. c #8CBE1B",
"Y. c #85BB15",
"T. c #92BE1C",
"R. c #98BF16",
"E. c #90BF0E",
"W. c #8EBE22",
"Q. c #87BB29",
"!. c #8DC10D",
"~. c #85C10B",
"^. c #93C20B",
"/. c #9EC60E",
"(. c #9FC907",
"). c #8CC113",
"_. c #84C21A",
"`. c #8DC11A",
"'. c #87C012",
"]. c #94C314",
"[. c #9BC513",
"{. c #93C21A",
"}. c #9DC618",
"|. c #A3C904",
" X c #A1C60D",
".X c #A5C80C",
"XX c #A8C90C",
"oX c #A3C712",
"OX c #ACCA1D",
"+X c #A6C914",
"@X c #8BC228",
"#X c #94C227",
"$X c #9BC93A",
"%X c #87C83F",
"&X c #A9C826",
"*X c #B0CD29",
"=X c #A6CB38",
"-X c #B8D23C",
";X c #AFD039",
":X c #8DBC5F",
">X c #80BF6D",
",X c #98C748",
"<X c #87C455",
"1X c #9DCC5C",
"2X c #96CA56",
"3X c #86C842",
"4X c #BBD443",
"5X c #B6D44D",
"6X c #A6CD5B",
"7X c #AAD359",
"8X c #B5D556",
"9X c #BCD456",
"0X c #B2D45D",
"qX c #BCD55B",
"wX c #BBD858",
"eX c #ACCD46",
"rX c #98CC61",
"tX c #A3C962",
"yX c #B2D760",
"uX c #C2D654",
"iX c #C3D55C",
"pX c #C5D95A",
"aX c #C4D952",
"sX c #76B98D",
"dX c #87868D",
"fX c #9F979C",
"gX c #98B0A3",
"hX c #ACB6B3",
"jX c #9DC8A5",
"kX c #A5D6BE",
"lX c #C4D2CE",
"zX c #C9E2DB",
"xX c None",
/* pixels */
"xXxXxXxXxXxXxXxXxXxXxXxXxXxXxXxXxXxXxXxXxXxXxXxXxXxXxXxXxXxXxXxXxXxXxXxXxXxXxXxXxXxXxXxXxXxXxXxXxXxXxXxXxXxXxXxXxXxXxXxX",
"xXxXxXxXxXxXxXxXxXxXxXxXxXxXxXxXxXxXxXxXxXxXxXxXxXxXxXxXxXxXxXxXxXxXxXxXxXxXxXxXxXxXxXxXxXxXxXxXxXxXxXxXxXxXxXxXxXxXxXxX",
"xXxXxXxXxXxXxXxXxXxXxXxXxXxXxXxXxXxXxXxXxXxXxXxXxXxXxXxXxXxXxXxXxXxXxXxXxXxXxXxXxXxXxXxXxXxXxXxXxXxXxXxXxXxXxXxXxXxXxXxX",
"xXxXxXxXxXxXxXxXxXxXxXxXxXxXxXxXxXxXxXxXxXxXxXxXxXxXxXxXxXxXxXxXxXxXxXxXxXxXxXxXxXxXxXxXxXxXxXxXxXxXxXxXxXxXxXxXxXxXxXxX",
"xXxXxXxXxXxXxXxXxXxXxXxXxXxXxXxXxXxXxXxXxXxXxXxXxXxXxXxXxXxXxXxXxXxXxXxXxXxXxXxXxXxXxXxXxXxXxXxXxXxXxXxXxXxXxXxXxXxXxXxX",
"xXxXxXxXxXxXxXxXxXxXxXxXxXxXxXxXxXxXxXxXxXxXxXxXxXxXxXxXxXxXxXxXxXxXxXxXxXxXxXxXxXxXxXxXxXxXxXxXxXxXxXxXxXxXxXxXxXxXxXxX",
"xXxXxXxXxXxXxXxXxXxXxXxXxXxXxXxXxXxXxXxXxXxXxXxXxXxXxXxXxXxXxXxXxXxXxXxXxXxXxXxXxXxXxXxXxXxXxXxXxXxXxXxXxXxXxXxXxXxXxXxX",
"xXxXxXxXxXxXxXxXxXxXxXxXxXxXxXxXxXxXxXxXxXxXxXxXxXxXxXxXxXxXxXxXxXxXxXxXxXxXxXxXxXxXxXxXxXxXxXxXxXxXxXxXxXxXxXxXxXxXxXxX",
"xXxXxXxXxXxXxXxXxXxXxXxXxXxXxXxXxXxXxXxXxXxXxXxXxXxXxXxXxXxXxXxXxXxXxXxXxXxXxXxXxXxXxXxXxXxXxXxXxXxXxXxXxXxXxXxXxXxXxXxX",
"xXxXxXxXxXxXxXxXxXxXxXxXxXxXxXxXxXxXxXxXxXxXxXxXxXxXxXxXxX$ + $ xXxXxXxXxXxXxXxXxXxXxXxXxXxXxXxXxXxXxXxXxXxXxXxXxXxXxXxX",
"xXxXxXxXxXxXxXxXxXxXxXxXxXxXxXxXxXxXxXxXxXxXxXxXxXxX2 0 ..$.$.1.B 6 r xXxXxXxXxXxXxXxXxXxXxXxXxXxXxXxXxXxXxXxXxXxXxXxXxX",
"xXxXxXxXxXxXxXxXxXxXxXxXxXxXxXxXxXxXxXxXxXxXxXxXr q 2.Q.:X2X,X,X%Xa.+.q d.xXxXxXy xXxXg.xXxXxXxXxXxXxXxXxXxXxXxXxXxXxXxX",
"xXxXxXxXxXxXxXxXxXxXxXxXxXxXxXxXg.V G k.d i xX1 H u.,X1X2X6X1XtXtXrX,Xw.v xXxXz =.P ,.Y t xXxXxXxXxXxXxXxXxXxXxXxXxXxXxX",
"xXxXxXxXxXxXxXxXxXxXxXxXxXxXh.F <.8.e.;.-.8 r < y.Z.A.K.2X6XrX1X2X<XA.Z.u.M u v ( 9.y.#.v y s.xXxXxXxXxXxXxXxXxXxXxXxXxX",
"xXxXxXxXxXxXxXxXxXxXxXxXxXxXg 9._ :.q.e.< 1 > ` H.@ . % H.rX6X2XJ.N.. O B.4.9 v 8.6.@.6.6.o.s.xXxXxXxXxXxXxXxXxXxXxXxXxX",
"xXxXxXxXxXxXxXxXxXxXxXxXxXxXxX$.R l n J = = :.A.hX#   & gXJ.1X:XjX*   X fXJ.@.- k m G 5.#.l xXxXxXxXxXxXxXxXxXxXxXxXxXxX",
"xXxXxXxXxXxXxXxXxXxXxXxXxXxXxXd 0 q +.= 5 X.u.G.zXhXdXhXzXG.2XH.kXlXsXfXlXsXi.J 5 +.+.< D xXxXxXxXxXxXxXxXxXxXxXxXxXxXxX",
"xXxXxXxXxXxXxXxXxXxXxXxXxXxXxXxX4 K 4.- F Q.Z.k.v.F.F.F.v.l.,Xb.v.B.v.F.M.$ =.e.w L 0.l f.xXxXxXxXxXxXxXxXxXxXxXxXxXxXxX",
"xXxXxXxXxXxXxXxXxXxXxXxXxXxXxXxXk +.K 7 _ W.<Xs j A  .C q Z 1Xn.t N J +.c.a S.@XT e _ <.xXxXxXxXxXxXxXxXxXxXxXxXxXxXxXxX",
"xXxXxXxXxXxXxXxXxXxXxXxXxXxXxXxXZ 1.; ; p._.$XV.a j Z w 3 A.8X<Xc.a V n + C.1X@X/ 9 -.%.xXxXxXxXxXxXxXxXxXxXxXxXxXxXxXxX",
"xXxXxXxXxXxXxXxXxXxXxXxXxXxXxXh.A Y t T Y.P.$X2XS.A Z  .S.yX8X0X<XC.z Z V.1X,XW.! N L ;.h.xXxXxXxXxXxXxXxXxXxXxXxXxXxXxX",
"xXxXxXxXxXxXxXxXxXxXxXxXxXxXxXs.C m 3 W U.P.T.eX6X0X6X0XuXiXiX9X9X7X6X6X7X,X#XU.P.H , -.j.xXxXxXxXxXxXxXxXxXxXxXxXxXxXxX",
"xXxXxXxXxXxXxXxXxXxXxXxXxXxXxXf C M 0 { T.].^.#X=X8XyXyXwXwX8XqXqXqX0X8X=X[.^.).L.@.; =.j.xXxXxXxXxXxXxXxXxXxXxXxXxXxXxX",
"xXxXxXxXxXxXxXxXxXxXxXxXxXxXxXs.P 7 : U.`.!.!.[.&X4X9XiXiXwXwXqX9X9X5X=X}.^.^._.R._ x < xXxXxXxXxXxXxXxXxXxXxXxXxXxXxXxX",
"xXxXxXxXxXxXxXxXxXxXxXxXxXxXxXi H 6 J U.).).].}.R.oX;X9X9XaXpXiX9X-XOXoX/.].`.`.{.{ , F xXxXxXxXxXxXxXxXxXxXxXxXxXxXxXxX",
"xXxXxXxXxXxXxXxXxXxXxXxXxXxXxXxXb 3 *.'.`.].[.[.[. XOX-XuXpXpXpXaX*XXXoX}.].{.`.P.} : h xXxXxXxXxXxXxXxXxXxXxXxXxXxXxXxX",
"xXxXxXxXxXxXxXxXxXxXxXxXxXxXxXxXh.3 E T.`.].].[. X|. X&X-XaXpXpX4X&X.X X[.[.{.{.L.~ v d.xXxXxXxXxXxXxXxXxXxXxXxXxXxXxXxX",
"xXxXxXxXxXxXxXxXxXxXxXxXxXxXxXxXxXr E I.`.U.{.[.[.|.|..X*X-XaX4X*XXX|.[.[.].{.{.'.~ B xXxXxXxXxXxXxXxXxXxXxXxXxXxXxXxXxX",
"xXxXxXxXxXxXxXxXxXxXxXxXxXxXxXxXxXp &._.U.`.{.{.[.[.|.|.XXXXOXOXXX|.|./.[.].{.T._.Y.Z xXxXxXxXxXxXxXxXxXxXxXxXxXxXxXxXxX",
"xXxXxXxXxXxXxXxXxXxXxXxXxXxXxXxXxX2 @.U._.`.{.}.}.[. XoXXXXXXXXX.X.X|.oX].].{.W.U.r.V xXxXxXxXxXxXxXxXxXxXxXxXxXxXxXxXxX",
"xXxXxXxXxXxXxXxXxXxXxXxXxXxXxXxXxX+ < ~ '.E.^.].].[.[.oXoXoXXX+XoX X X[.].].).~.!.' f xXxXxXxXxXxXxXxXxXxXxXxXxXxXxXxXxX",
"xXxXxXxXxXxXxXxXxXxXxXxXxXxXxXxXxXu q < T ~ W.`.^.[.[.oX[.oX[.oX[./.[.^.^.].{.{ ( m s.xXxXxXxXxXxXxXxXxXxXxXxXxXxXxXxXxX",
"xXxXxXxXxXxXxXxXxXxXxXxXxXxXxXxXf F ;.X.= n W E.R.{.{.[.[.[.[.[.[.^.].].!.@X[ E W T l s.xXxXxXxXxXxXxXxXxXxXxXxXxXxXxXxX",
"xXxXxXxXxXxXxXxXxXxXxXxXxXxXxXxXv / 0.e.9.G = ( #X].{.].].].{.].].].].]._./ #.' 0.[ >.V xXxXxXxXxXxXxXxXxXxXxXxXxXxXxXxX",
"xXxXxXxXxXxXxXxXxXxXxXxXxXxXxXz.I 5.8.q.t.W H q W '.@XE.!.{.{.{.].{.T.~.( *.[ e.0.7.6.B xXxXxXxXxXxXxXxXxXxXxXxXxXxXxXxX",
"xXxXxXxXxXxXxXxXxXxXxXxXxXxXxXxXB O.5.6.0.e.w., , r.'.E.`.`.{.{.U.U.P.` Q 0.} e.#.*.1.j xXxXxXxXxXxXxXxXxXxXxXxXxXxXxXxX",
"xXxXxXxXxXxXxXxXxXxXxXxXxXxXxXxXy P *.&.9.t.| W b @.p.U.`.P.U.U.U.P.} E #.] t.7.%.1.U r xXxXxXxXxXxXxXxXxXxXxXxXxXxXxXxX",
"xXxXxXxXxXxXxXxXxXxXxXxXxXxXxXxXr s 1.3.#.q.) e.K : { Y.I.I.I.I.I.I.9.@.0.) 6.&.<.A z r xXxXxXxXxXxXxXxXxXxXxXxXxXxXxXxX",
"xXxXxXxXxXxXxXxXxXxXxXxXxXxXxXxXu y  .1.2.@.:.q.W = t.~.p.p.r.I.I.} &.W / 6.&.1.I w 1 s.xXxXxXxXxXxXxXxXxXxXxXxXxXxXxXxX",
"xXxXxXxXxXxXxXxXxXxXxXxXxXxXxXxX+ y 4 b 1.*.6.0.:.x ) Y.` ` a.} y.} R %.9.5.<.,.M 1 q i z.xXxXxXxXxXxXxXxXxXxXxXxXxXxXxX",
"xXxXxXxXxXxXxXxXxXxXxXxXxXxXxXc.n j S y m ,.%.6.9.= J t.[ Q.} } ] 0.J o.&.<.P g 3 V C 7 ,.l.z.xXxXxXxXxXxXxXxXxXxXxXxXxX",
"xXxXxXxXxXxXxXxXxXxXxXxXxXxXxXk T 8 A B s w P P l r h k F K J H c b g.i l k 4 0 I ,.q l >.9 xXxXxXxXxXxXxXxXxXxXxXxXxXxX",
"xXxXxXxXxXxXxXxXxXxXxXxXxXxXxXf.*.n w X.O.< j d.xXxXxXxXxXxX$ xXxXxXxXxXxX$ c W &.o.3 o.<.s xXxXxXxXxXxXxXxXxXxXxXxXxXxX",
"xXxXxXxXxXxXxXxXxXxXxXxXxXxXxXl.u.5.0 B 3.9.z xXxXxXxXxXxXxXxXxXxXxXxXxXxXxXb -.,.w j ) ( s xXxXxXxXxXxXxXxXxXxXxXxXxXxX",
"xXxXxXxXxXxXxXxXxXxXxXxXxXxXxXj R ) Y w n c g.xXxXxXxXxXxXxXxXxXxXxXxXxXxXxXf.q h - o.q.$.4 xXxXxXxXxXxXxXxXxXxXxXxXxXxX",
"xXxXxXxXxXxXxXxXxXxXxXxXxXxXxXxX0 u.;.%.w d.xXxXxXxXxXxXxXxXxXxXxXxXxXxXxXxXxXz.z &.7.%.f xXxXxXxXxXxXxXxXxXxXxXxXxXxXxX",
"xXxXxXxXxXxXxXxXxXxXxXxXxXxXxXxXf.X./ v g.xXxXxXxXxXxXxXxXxXxXxXxXxXxXxXxXxXxXxXf I &.o.d.xXxXxXxXxXxXxXxXxXxXxXxXxXxXxX",
"xXxXxXxXxXxXxXxXxXxXxXxXxXxXxXxXx.D 0 s.xXxXxXxXxXxXxXxXxXxXxXxXxXxXxXxXxXxXxXxXxXj.s k.xXxXxXxXxXxXxXxXxXxXxXxXxXxXxXxX",
"xXxXxXxXxXxXxXxXxXxXxXxXxXxXxXxXxXr xXxXxXxXxXxXxXxXxXxXxXxXxXxXxXxXxXxXxXxXxXxXxXxXxXxXxXxXxXxXxXxXxXxXxXxXxXxXxXxXxXxX",
"xXxXxXxXxXxXxXxXxXxXxXxXxXxXxXxXxXxXxXxXxXxXxXxXxXxXxXxXxXxXxXxXxXxXxXxXxXxXxXxXxXxXxXxXxXxXxXxXxXxXxXxXxXxXxXxXxXxXxXxX",
"xXxXxXxXxXxXxXxXxXxXxXxXxXxXxXxXxXxXxXxXxXxXxXxXxXxXxXxXxXxXxXxXxXxXxXxXxXxXxXxXxXxXxXxXxXxXxXxXxXxXxXxXxXxXxXxXxXxXxXxX",
"xXxXxXxXxXxXxXxXxXxXxXxXxXxXxXxXxXxXxXxXxXxXxXxXxXxXxXxXxXxXxXxXxXxXxXxXxXxXxXxXxXxXxXxXxXxXxXxXxXxXxXxXxXxXxXxXxXxXxXxX",
"xXxXxXxXxXxXxXxXxXxXxXxXxXxXxXxXxXxXxXxXxXxXxXxXxXxXxXxXxXxXxXxXxXxXxXxXxXxXxXxXxXxXxXxXxXxXxXxXxXxXxXxXxXxXxXxXxXxXxXxX",
"xXxXxXxXxXxXxXxXxXxXxXxXxXxXxXxXxXxXxXxXxXxXxXxXxXxXxXxXxXxXxXxXxXxXxXxXxXxXxXxXxXxXxXxXxXxXxXxXxXxXxXxXxXxXxXxXxXxXxXxX",
"xXxXxXxXxXxXxXxXxXxXxXxXxXxXxXxXxXxXxXxXxXxXxXxXxXxXxXxXxXxXxXxXxXxXxXxXxXxXxXxXxXxXxXxXxXxXxXxXxXxXxXxXxXxXxXxXxXxXxXxX",
"xXxXxXxXxXxXxXxXxXxXxXxXxXxXxXxXxXxXxXxXxXxXxXxXxXxXxXxXxXxXxXxXxXxXxXxXxXxXxXxXxXxXxXxXxXxXxXxXxXxXxXxXxXxXxXxXxXxXxXxX",
"xXxXxXxXxXxXxXxXxXxXxXxXxXxXxXxXxXxXxXxXxXxXxXxXxXxXxXxXxXxXxXxXxXxXxXxXxXxXxXxXxXxXxXxXxXxXxXxXxXxXxXxXxXxXxXxXxXxXxXxX",
"xXxXxXxXxXxXxXxXxXxXxXxXxXxXxXxXxXxXxXxXxXxXxXxXxXxXxXxXxXxXxXxXxXxXxXxXxXxXxXxXxXxXxXxXxXxXxXxXxXxXxXxXxXxXxXxXxXxXxXxX",
"xXxXxXxXxXxXxXxXxXxXxXxXxXxXxXxXxXxXxXxXxXxXxXxXxXxXxXxXxXxXxXxXxXxXxXxXxXxXxXxXxXxXxXxXxXxXxXxXxXxXxXxXxXxXxXxXxXxXxXxX",
"xXxXxXxXxXxXxXxXxXxXxXxXxXxXxXxXxXxXxXxXxXxXxXxXxXxXxXxXxXxXxXxXxXxXxXxXxXxXxXxXxXxXxXxXxXxXxXxXxXxXxXxXxXxXxXxXxXxXxXxX"
};
