/* XPM */
static const char * frog_xpm[] = {
/* columns rows colors chars-per-pixel */
"75 40 226 2 ",
"   c #016300",
".  c #046000",
"X  c #036500",
"o  c #006700",
"O  c #086600",
"+  c #036900",
"@  c #006A00",
"#  c #056900",
"$  c #016C00",
"%  c #016D00",
"&  c #006E00",
"*  c #016E00",
"=  c #006F00",
"-  c #046D01",
";  c #056D01",
":  c #056E00",
">  c #056F02",
",  c #096D00",
"<  c #0F6E02",
"1  c #007100",
"2  c #017100",
"3  c #017101",
"4  c #037000",
"5  c #007200",
"6  c #007300",
"7  c #037200",
"8  c #027300",
"9  c #027201",
"0  c #037301",
"q  c #047000",
"w  c #067101",
"e  c #047300",
"r  c #047201",
"t  c #047301",
"y  c #057202",
"u  c #007400",
"i  c #017400",
"p  c #007500",
"a  c #017401",
"s  c #017501",
"d  c #027400",
"f  c #037400",
"g  c #027500",
"h  c #027401",
"j  c #037401",
"k  c #027501",
"l  c #007600",
"z  c #017600",
"x  c #017700",
"c  c #017601",
"v  c #017701",
"b  c #027600",
"n  c #037600",
"m  c #027700",
"M  c #027601",
"N  c #037601",
"B  c #027701",
"V  c #037701",
"C  c #027502",
"Z  c #027602",
"A  c #037602",
"S  c #027702",
"D  c #037702",
"F  c #057500",
"G  c #057401",
"H  c #047501",
"J  c #047600",
"K  c #047601",
"L  c #047701",
"P  c #057402",
"I  c #057502",
"U  c #067402",
"Y  c #077503",
"T  c #047602",
"R  c #057602",
"E  c #047702",
"W  c #047603",
"Q  c #057603",
"!  c #047703",
"~  c #067602",
"^  c #067703",
"/  c #077204",
"(  c #077405",
")  c #057604",
"_  c #047704",
"`  c #057704",
"'  c #077604",
"]  c #077704",
"[  c #077705",
"{  c #097300",
"}  c #087203",
"|  c #0A7302",
" . c #0A7402",
".. c #087603",
"X. c #097006",
"o. c #097605",
"O. c #007800",
"+. c #017800",
"@. c #017900",
"#. c #017801",
"$. c #017901",
"%. c #027801",
"&. c #037801",
"*. c #027901",
"=. c #017A00",
"-. c #007A01",
";. c #017A01",
":. c #017B01",
">. c #027A01",
",. c #027B01",
"<. c #037B01",
"1. c #027802",
"2. c #037802",
"3. c #027902",
"4. c #037902",
"5. c #037903",
"6. c #027A02",
"7. c #037A02",
"8. c #027B02",
"9. c #037B02",
"0. c #037A03",
"q. c #037B03",
"w. c #067800",
"e. c #047802",
"r. c #047902",
"t. c #047803",
"y. c #047903",
"u. c #057903",
"i. c #047A02",
"p. c #047A03",
"a. c #047B03",
"s. c #077B03",
"d. c #017C01",
"f. c #017D01",
"g. c #027C01",
"h. c #017E01",
"j. c #017F01",
"k. c #027E01",
"l. c #027C02",
"z. c #037C02",
"x. c #027D02",
"c. c #037D02",
"v. c #037C03",
"b. c #037D03",
"n. c #017F02",
"m. c #027E02",
"M. c #037E02",
"N. c #027F02",
"B. c #037F02",
"V. c #027E03",
"C. c #037E03",
"Z. c #037F03",
"A. c #047D03",
"S. c #057904",
"D. c #067804",
"F. c #067805",
"G. c #047A04",
"H. c #057A04",
"J. c #047B04",
"K. c #057A05",
"L. c #067A04",
"P. c #067A05",
"I. c #067B05",
"U. c #077906",
"Y. c #077B06",
"T. c #047C04",
"R. c #047D04",
"E. c #057D04",
"W. c #057D05",
"Q. c #067C05",
"!. c #077C05",
"~. c #047E04",
"^. c #057E04",
"/. c #047F04",
"(. c #057E05",
"). c #057F05",
"_. c #067C06",
"`. c #077D06",
"'. c #067E06",
"]. c #077E07",
"[. c #077F07",
"{. c #087803",
"}. c #097803",
"|. c #097806",
" X c #087906",
".X c #0A7807",
"XX c #087A06",
"oX c #097A06",
"OX c #087B06",
"+X c #087B07",
"@X c #097B07",
"#X c #087C07",
"$X c #097C07",
"%X c #087D07",
"&X c #087F07",
"*X c #0A7F07",
"=X c #0E7F04",
"-X c #0A7708",
";X c #0B770A",
":X c #0D7408",
">X c #0D770A",
",X c #097B08",
"<X c #0A7B08",
"1X c #0B7B09",
"2X c #0C780A",
"3X c #097C08",
"4X c #0A7D09",
"5X c #0A7F08",
"6X c #0A7F09",
"7X c #0B7D0A",
"8X c #0C7D08",
"9X c #0F7D0D",
"0X c #15750E",
"qX c #1A7915",
"wX c #1D7C18",
"eX c #018001",
"rX c #028002",
"tX c #038003",
"yX c #048004",
"uX c #078006",
"iX c #078007",
"pX c #088007",
"aX c #088108",
"sX c #0A8009",
"dX c #098209",
"fX c None",
/* pixels */
"fXfXfXfXfXfXfXfXfXfXfXfXfXfXfXfXfXfXfXfXfXfXfXfXfXfXfXfXfXfXfXfXfXfXfXfXfXfXfXfXfXfXfXfXfXfXfXfXfXfXfXfXfXfXfXfXfXfXfXfXfXfXfXfXfXfXfXfXfXfXfXfXfXfXfX",
"fXfXfXfXfXfXfXfXfXfXfXfXfXfXfXfXfXfXfXfXfXfXfXfXfXfXfXfXfXfXfXfXfXfXfXfXfXfXfXfXfXfXfXfXfXfXfXfXfXfXfXfXfXfXfXfXfXfXfXfXfXfXfXfXfXfXfXfXfXfXfXfXfXfXfX",
"fXfXfXfXfXfXfXfXfXfXfXfXfXfXfXfXfXfXfXfXfXfXfXfXfXfXfXfXfXfXfXfXfXfXfXfX4X$.Y.fXfXfXfXfXfXfXfXfXfXfXfXfXfXfXfXfXfXfXfXfXfXfXfXfXfXfXfXfXfXfXfXfXfXfXfX",
"fXfXfXfXfXfXfXfXfXfXfXfXfXfXfXfXfXfXfXfXfXfXfXfXfXfXfXfXfXfXfXfXfXfX^ 9.C.N.m.9.H fXfXfXfXfXfXfXfXfXfXfXfXfXfXfXfXfXfXfXfXfXfXfXfXfXfXfXfXfXfXfXfXfXfX",
"fXfXfXfXfXfXfXfXfXfXfXfXfXfXfXfXfXfXfXfXfXfXfXfXfXfXfXfXfXfXfXfXR a.C.n.j.j.j.N.C.7.N fXfXfXfXfXfXfXfXfXfXfXfXfXfXfXfXfXfXfXfXfXfXfXfXfXfXfXfXfXfXfXfX",
"fXfXfXfXfXfXfXfXO fXfXfXfXfXfXfXfXfXfXfXfXfXfXfXfXfXfXfXfXfXfXy j x.j.j.j.j.j.j.eXm.T q fXfXfXfXfXfXfXfXfXfXfXfXfXfXfXfXfXfXfXfXfXfX}.8XfXfXfXfXfXfXfX",
"fXfXfXfXfXfXfX{ x < fXfXfXfXfXfXfXfXfXfXfXfXfXfXfXfXfXfXfX- fXfXfX+.h.j.j.j.j.j.m.`.fXfXfX+ fXfXfXfXfXfXfXfXfXfXfXfXfXfXfXfXfXfXfXw.@.s.fXfXfXfXfXfXfX",
"fXfXfXfXfXfXfXfXG fXfXfXfX2.I.fXfXfXfXfXfXfXfXfXfXfXfXfXW ; fX  fX4.h.N.j.j.j.N.h.5XfXX fX. fXfXfXfXfXfXfXfXfXfXfXfXfXfXL.i.fXfXfXfXe.fXfXfXfXfXfXfXfX",
"fXfXfXfXfXfXfXfXfX, fXfXfXd.fXfXfXfXfXfXfXfXfXfXfXfXfXfXfXN fXfXfXb.N.j.j.j.j.j.N.v.fXfXfX$ fXfXfXfXfXfXfXfXfXfXfXfXfXfXfX:.fXfXfX=XfXfXfXfXfXfX| fXfX",
"fXfX# % fXfXfXfXfX1 fXfXfXh fXfXfXfXfXfXfXfXfXfXfXfXfXfXfXv %X$X^.m.j.j.j.j.j.j.j.m.(.@X!.s fXfXfXfXfXfXfXfXfXfXfXfXfXfXfXfXfXfXfX*XfXfXfXfX{.V 4 fXfX",
"fXfXfXfXfXfXfXfXfX-.$.c i fXfXfXfXfXfXfXfXfXfXfXfXfXfXfXfXb Z.m.j.j.j.j.j.j.j.j.j.j.j.m.Z.M fXfXfXfXfXfXfXfXfXfXfXfXfXfXfXfXJ &.<.^.fXfXfXfXfXfXfXfXfX",
"fXfXfXfXfXfXfXk :.N.N.Z.#.fXfXfXfXfXfXfXfXfXfXfXfXfXfXfXfX8.N.j.j.j.j.j.j.j.j.j.j.j.j.j.N.v.fXfXfXfXfXfXfXfXfXfXfXfXfXfXfXfX*.Z.N.N.:.d fXfXfXfXfXfXfX",
"fXfXfXfXfXfXfXfXfX$.m.rXm.t.fX: * fXfXfXfXfXfXfXfXfXfXfX4.N.j.j.j.j.j.j.j.j.j.j.j.j.j.j.j.N.*.fXfXfXfXfXfXfXfXfXfXfX9  .fXS.C.rXm.*.fXfXfXfXfXfXfXfXfX",
"fXfXfXfXfXfXfXfXfXfXy.M.,.f fXfXfXfXfXfXfXfXfXfXfXfXfX2.N.j.j.j.j.j.j.j.j.j.j.j.j.j.j.j.j.j.N.%.fXfXfXfXfXfXfXfXfXfXfXfXfXF g.C.H.fXfXfXfXfXfXfXfXfXfX",
"fXfXfXfXfXfXfXfXfXfXfXm *.fXfXfXfXfXfXfXfXfXfXfXfX! 6.N.j.j.j.j.j.j.j.j.j.j.j.j.j.j.j.j.j.j.j.N.6.k fXfXfXfXfXfXfXfXfXfXfXfX%.n fXfXfXfXfXfXfXfXfXfXfX",
"fXfXfXfXfXfXfXfXfXfXfXfXz S.fXfXfXfXfXfXfXfXfX0 f.N.N.j.j.j.j.j.j.j.j.j.j.j.j.j.j.j.j.j.j.j.j.j.N.m.d.0 fXfXfXfXfXfXfXfXfXb g fXfXfXfXfXfXfXfXfXfXfXfX",
"fXfXfXfXfXfXfXfXfXfXfXfXfXB I.fXfXfXfXfXfXU p.C.N.j.j.j.j.j.j.j.j.j.j.j.j.j.j.j.j.j.j.j.j.j.j.j.j.j.N.C.p.I fXfXfXfXfXfXV z fXfXfXfXfXfXfXfXfXfXfXfXfX",
"fXfXfXfXfXfXfXfXfXfXfXfXfXfX>.r.fXfXfXfXK b.tXh.a.aXiXN.j.j.j.j.j.j.j.j.j.j.j.j.j.j.j.j.j.j.j.N.uXdXa.h.tXb.N fXfXfXfXv >.fXfXfXfXfXfXfXfXfXfXfXfXfXfX",
"fXfXfXfXfXfXfXfXfXfXfXfXfXfXfXe.E.r.r.A.B.b.].fXfXfXqX0.tXj.j.j.j.j.j.j.j.j.j.j.j.j.j.j.j.j.tX7.fXfXfXfXQ.b.Z.z.2.4.T.2.fXfXfXfXfXfXfXfXfXfXfXfXfXfXfX",
"fXfXfXfXfXfXfXfXfXfXfXfXfXfXfXfX' &XZ.yXP./ fXfXfXfXwXa.tXj.j.j.j.j.j.j.j.j.j.j.j.j.j.j.j.j.tX0.0XfXfXfXfXr u.yXN.'.I fXfXfXfXfXfXfXfXfXfXfXfXfXfXfXfX",
"fXfXfXfXfXfXfXfXfXfXfXfXfXfXfXfXfXfXfXfXfXfXfXfXfXfX<XZ.j.j.j.j.j.j.j.j.j.j.j.j.j.j.j.j.j.j.j.Z.,XfXfXfXfXfXfXfXfXfXfXfXfXfXfXfXfXfXfXfXfXfXfXfXfXfXfX",
"fXfXfXfXfXfXfXfXfXfXfXfXfXfXfXfXfXfXfXfXfXfXfXfXfX>XA.N.j.j.j.j.j.j.j.j.j.j.j.j.j.j.j.j.j.j.j.N.b.-XfXfXfXfXfXfXfXfXfXfXfXfXfXfXfXfXfXfXfXfXfXfXfXfXfX",
"fXfXfXfXfXfXW.p.fXfXfXfXfXfXfXfXfXfXfXfXfXfXfXfXfXX.C.j.j.j.j.j.j.j.j.j.j.j.j.j.j.j.j.j.j.j.j.j.Z.> fXfXfXfXfXfXfXfXfXfXfXfXfXfXfXfXfXr.4.fXfXfXfXfXfX",
"fXfXfXfXfXfXz.9.f fXfXfXfXfXo.} fXfXfXfXfXfXfXfXfX;Xb.N.j.j.j.j.j.j.j.j.j.j.j.j.j.j.j.j.j.j.j.N.~.2XfXfXfXfXfXfXfXfXfXw ..fXfXfXfXfXe z.9.fXfXfXfXfXfX",
"fXfXfXfXfXfXfX6 Q fXfXfXfXY (.b.fXfXfXfXfXfXfXfXfXfXU.N.j.j.j.j.j.j.j.j.j.j.j.j.j.j.j.j.j.j.j.N.XXfXfXfXfXfXfXfXfXfXV b.(.P fXfXfXfX~ e fXfXfXfXfXfXfX",
"fXfXfXfXfXfXfXfX X` fXfXfXt %.7.fX6Xm.Z.v.>.( fXfXfXfX6.rXj.j.j.j.j.j.j.j.j.j.j.j.j.j.j.j.j.rX9.fXfXfXfXU ,.v.tXC.sXfX*.#.7 fXfXfX! .XfXfXfXfXfXfXfXfX",
"fXfX_ R.u fXfXfXfX#.l.c Z W fXfXfXfXv.rXj.N.b.A.) fXfX8.rXj.j.j.j.j.j.j.j.j.j.j.j.j.j.j.j.j.rXl.fXfX] A.c.N.j.rXv.fXfXfXfXA V %.b.#.fXfXfXfXfXp & fXfX",
"fXfX= c l l fXfX=.m.rXZ.$.fXfXfXfXfX+Xm.N.j.j.j.N.v.b.j.j.j.j.j.j.j.j.j.j.j.j.j.j.j.j.j.j.j.j.j.b.b.N.j.j.j.N.m.oXfXfXfXfXfX>.Z.rXm.O.fXfX5 = @ o fXfX",
"fXfXfXfXfXfXfXp O.d.x.N.V.3.fXfXfXfXfXp.N.j.j.j.j.j.j.j.j.j.j.j.j.j.j.j.j.j.j.j.j.j.j.j.j.j.j.j.j.j.j.j.j.j.m.i.fXfXfXfXfXy.C.N.x.:.p 5 fXfXfXfXfXfXfX",
"fXfXfXfXfXfXfXfXfXfXfXB 8.m.;.fXfXfXfXQ m.j.j.m.[.c.N.N.j.j.j.j.j.j.j.j.j.j.j.j.j.j.j.j.j.j.j.n.N.x.pXm.j.j.N.K fXfXfXfX$.x.6.C fXfXfXfXfXfXfXfXfXfXfX",
"fXfXfXfXfXfXfXfXfXfXfXfXfXc x.v.a fXfX7.j.j.rX6.fXfX#Xa.N.j.j.j.j.j.j.j.j.j.j.j.j.j.j.j.j.j.N.R.Y.fXfX>.rXj.j.1.fXfX3 q.l.a fXfXfXfXfXfXfXfXfXfXfXfXfX",
"fXfXfXfXfXfXfXfXfXfXfXfXfXfXfX8.C.R.4.,.j.j.rXb.9XfXfXfX! b.N.j.j.j.j.j.j.j.j.j.j.j.j.j.N.C.Y.fXfXfX|.x.rXj.j.:.B 8.b.$.fXfXfXfXfXfXfXfXfXfXfXfXfXfXfX",
"fXfXfXfXfXfXfXfXfXfXfXfXfXfXfXfXK.0.C.N.j.j.j.N.J.fXfXfXfXF.m.N.j.j.j.j.j.j.j.j.j.j.j.N.Z.7XfXfXfXfXa.N.j.j.j.N.b.S 6 fXfXfXfXfXfXfXfXfXfXfXfXfXfXfXfX",
"fXfXfXfXfXfXfXfXfXfXfXfXfXfXfXfXfXfX8 R.~.N.j.j.N._.fXfXfXfXfXd.m.N.j.j.j.j.j.j.j.N.Z.:.fXfXfXfXfXI.N.j.j.N.c.>.2 fXfXfXfXfXfXfXfXfXfXfXfXfXfXfXfXfXfX",
"fXfXfXfXfXfXfXfXfXfXfXfXfXfXfXfXfXfXfXfXfXG.).k.rXN.Y.fXfXfXfXfX[ ! %X/.j.j.j./.%XD.1XfXfXfXfXfXOXm.N.N.~.5.fXfXfXfXfXfXfXfXfXfXfXfXfXfXfXfXfXfXfXfXfX",
"fXfXfXfXfXfXfXfXfXfXfXfXfXfXfXfXfXfXfXfXfXfXfXE E.Z.D fXfXfXfXfXfXfXfXfXu.A.u.fXfXfXfXfXfXfXfXfX3XZ.E.L fXfXfXfXfXfXfXfXfXfXfXfXfXfXfXfXfXfXfXfXfXfXfX",
"fXfXfXfXfXfXfXfXfXfXfXfXfXfXfXfXfXfXfXfXfXfXfXfXfXfXfXfXfXfXfXfXfXfXfXfXfX:XfXfXfXfXfXfXfXfXfXfXfXfXfXfXfXfXfXfXfXfXfXfXfXfXfXfXfXfXfXfXfXfXfXfXfXfXfX",
"fXfXfXfXfXfXfXfXfXfXfXfXfXfXfXfXfXfXfXfXfXfXfXfXfXfXfXfXfXfXfXfXfXfXfXfXfXfXfXfXfXfXfXfXfXfXfXfXfXfXfXfXfXfXfXfXfXfXfXfXfXfXfXfXfXfXfXfXfXfXfXfXfXfXfX",
"fXfXfXfXfXfXfXfXfXfXfXfXfXfXfXfXfXfXfXfXfXfXfXfXfXfXfXfXfXfXfXfXfXfXfXfXfXfXfXfXfXfXfXfXfXfXfXfXfXfXfXfXfXfXfXfXfXfXfXfXfXfXfXfXfXfXfXfXfXfXfXfXfXfXfX",
"fXfXfXfXfXfXfXfXfXfXfXfXfXfXfXfXfXfXfXfXfXfXfXfXfXfXfXfXfXfXfXfXfXfXfXfXfXfXfXfXfXfXfXfXfXfXfXfXfXfXfXfXfXfXfXfXfXfXfXfXfXfXfXfXfXfXfXfXfXfXfXfXfXfXfX"
};
