/* XPM */
static const char * lives_xpm[] = {
/* columns rows colors chars-per-pixel */
"40 40 115 2 ",
"   c #264B3F",
".  c #254F3D",
"X  c #264D3E",
"o  c #24533B",
"O  c #235739",
"+  c #23563A",
"@  c #24523C",
"#  c #225839",
"$  c #1C6E2E",
"%  c #177E26",
"&  c #1B712C",
"*  c #1B722C",
"=  c #1A732C",
"-  c #187B28",
";  c #1E6732",
":  c #1D6931",
">  c #1E6831",
",  c #1E6931",
"<  c #2B3B47",
"1  c #2A3D46",
"2  c #2B3D46",
"3  c #2B3D47",
"4  c #2B3F46",
"5  c #294343",
"6  c #284443",
"7  c #284642",
"8  c #294144",
"9  c #274940",
"0  c #274841",
"q  c #2C5443",
"w  c #2F5A44",
"e  c #316542",
"r  c #337640",
"t  c #337940",
"y  c #347A40",
"u  c #138D1F",
"i  c #128F1E",
"p  c #0D9F16",
"a  c #0F9919",
"s  c #10951B",
"d  c #10961B",
"f  c #04BD07",
"g  c #04BF06",
"h  c #04BE07",
"j  c #07B50B",
"k  c #07B60B",
"l  c #08B30C",
"z  c #08B20D",
"x  c #06B909",
"c  c #05BA09",
"v  c #05BC08",
"b  c #0BA712",
"n  c #0CA215",
"m  c #0AAC10",
"M  c #16BF16",
"N  c #1ABD1A",
"B  c #1FBA1F",
"V  c #158423",
"C  c #158622",
"Z  c #30803B",
"A  c #35823F",
"S  c #35833F",
"D  c #35853E",
"F  c #368F3D",
"G  c #2F9E33",
"H  c #309E33",
"J  c #329C35",
"K  c #37913D",
"L  c #37953D",
"P  c #359839",
"I  c #359D38",
"U  c #1FAF21",
"Y  c #24A926",
"T  c #2BA22E",
"R  c #29A42C",
"E  c #23B723",
"W  c #27B527",
"Q  c #22B822",
"!  c #23B823",
"~  c #2CB22C",
"^  c #33AE33",
"/  c #35AD35",
"(  c #36AC36",
")  c #36AD36",
"_  c #39A23B",
"`  c #39A53B",
"'  c #38AB38",
"]  c #39AA39",
"[  c #3AA83A",
"{  c #3AAA3A",
"}  c #02C603",
"|  c #02C703",
" . c #03C304",
".. c #03C205",
"X. c #04C006",
"o. c #06C706",
"O. c #01CA01",
"+. c #01CB01",
"@. c #01C802",
"#. c #01CB02",
"$. c #02CA02",
"%. c #02CA03",
"&. c #03CA03",
"*. c #03CB03",
"=. c #00CC00",
"-. c #01CC01",
";. c #03C904",
":. c #04CA04",
">. c #07C807",
",. c #07C508",
"<. c #08C708",
"1. c #0AC60A",
"2. c #12C212",
"3. c #14C114",
"4. c None",
/* pixels */
"4.4.4.4.4.4.4.4.4.4.4.4.4.4.4.4.4.4.4.4.4.4.4.4.4.4.4.4.4.4.4.4.4.4.4.4.4.4.4.4.",
"4.4.4.4.4.4.4.4.4.4.4.4.4.4.4.4.4.4.4.4.4.4.4.4.4.4.4.4.4.4.4.4.4.4.4.4.4.4.4.4.",
"4.4.4.4.4.4.4.4.4.4.4.4.4.4.4.4.4.4.4.4.4.4.4.4.4.4.4.4.4.4.4.4.4.4.4.4.4.4.4.4.",
"4.4.4.4.4.4.4.4.4.4.4.=.=.4.4.4.4.4.4.4.4.4.4.4.4.4.4.4.=.=.4.4.4.4.4.4.4.4.4.4.",
"4.4.4.4.4.4.4.4.=.=.=.=.=.=.=.4.4.4.4.4.4.4.4.4.4.=.=.=.=.=.=.=.4.4.4.4.4.4.4.4.",
"4.4.4.4.4.4.4.=.=.=.=.=.=.=.=.=.=.4.4.4.4.4.4.4.=.=.=.=.=.=.=.=.=.=.4.4.4.4.4.4.",
"4.4.4.4.4.4.=.=.=.=.@.x  .=.=.=.=.=.4.4.4.4.4.=.=.=.=.| x  .=.=.=.=.=.4.4.4.4.4.",
"4.4.4.4.4.=.=.=.=...+ 1 0 n =.=.=.=.4.4.4.4.=.=.=.=.c o 2 9 m =.=.=.=.4.4.4.4.4.",
"4.4.4.4.4.=.=.=.=.C < < < # =.=.=.=.=.=.=.=.=.=.=.=.- < < < O =.=.=.=.4.4.4.4.4.",
"4.4.4.4.4.=.=.=.=.* < < < 7 =.=.=.=.=.=.=.=.=.=.=.=.: < < < 2 =.=.=.=.=.4.4.4.4.",
"4.4.4.4.4.=.=.=.=.& < < < 7 =.=.=.=.=.=.=.=.=.=.=.=.> < < < 2 =.=.=.=.=.4.4.4.4.",
"4.4.4.4.4.=.=.=.=.& < < < 7 =.=.=.=.=.=.=.=.=.=.=.=., < < < 2 =.=.=.=.=.4.4.4.4.",
"4.4.4.4.4.=.=.=.=.% < < < . =.=.=.=.=.=.=.=.=.=.=.=.= < < <   =.=.=.=.=.4.4.4.4.",
"4.4.4.4.=.=.=.=.=.j 7 < 1 i =.=.=.=.=.=.=.=.=.=.=.=.m 6 < 1 a =.=.=.=.=.4.4.4.4.",
"4.4.4.=.=.=.=.=.=.=.X.d z =.=.=.=.=.=.=.=.=.=.=.=.=.=.h s l =.=.=.=.=.=.=.4.4.4.",
"4.4.=.=.=.=.=.=.=.=.=.=.=.=.=.=.=.=.=.=.=.=.=.=.=.=.=.=.=.=.=.=.=.=.=.=.=.=.4.4.",
"4.4.=.=.=.=.=.=.=.=.=.=.=.=.=.=.=.=.=.=.=.=.=.=.=.=.=.=.=.=.=.=.=.=.=.=.=.=.=.4.",
"4.=.=.=.=.=.=.=.=.=.=.=.=.=.=.=.=.=.=.=.=.=.=.=.=.=.=.=.=.=.=.=.=.=.=.=.=.=.=.4.",
"4.=.=.=.=.=.=.=.=.=.=.=.=.=.=.=.=.=.=.=.=.=.=.=.=.=.=.=.=.=.=.=.=.=.=.=.=.=.=.=.",
"=.=.=.=.=.=.=.=.=.=.=.=.=.=.=.=.=.=.=.=.=.=.=.=.=.=.=.=.=.=.=.=.=.=.=.=.=.=.=.=.",
"=.=.=.=.=.=.=.=.=.=.=.=.=.=.=.=.=.=.=.=.=.=.=.=.=.=.=.=.=.=.=.=.=.=.=.=.=.=.=.=.",
"=.=.=.=.=.=.=.=.=.=.=.=.=.=.+.;.=.=.=.=.=.=.=.=.%.$.=.=.=.=.=.=.=.=.=.=.=.=.=.=.",
"=.=.=.=.=.=.=.=.=.=.=.=.=.=.Y P ,.=.=.=.=.=.=.#.J G =.=.=.=.=.=.=.=.=.=.=.=.=.=.",
"4.=.=.=.=.=.=.=.=.=.=.=.=.=.U H o.=.=.=.=.=.=.+.T R =.=.=.=.=.=.=.=.=.=.=.=.=.4.",
"4.M +.=.=.=.=.=.=.=.=.=.=.=.=.=.=.=.=.=.=.=.=.=.=.=.=.=.=.=.=.=.=.=.=.=.=.=.M 4.",
"4.4.W *.=.=.=.=.=.=.=.=.=.=.=.=.=.=.=.=.=.=.=.=.=.=.=.=.=.=.=.=.=.=.=.=.+.! 4.4.",
"4.4.{ ~ 1.=.=.=.=.=.=.=.=.=.=.=.=.=.=.=.=.=.=.=.=.=.=.=.=.=.=.=.=.=.=.>.W { 4.4.",
"4.4.{ { ' B :.=.=.=.=.=.=.=.=.=.=.=.O.g f @.=.=.=.=.=.=.=.=.=.=.=.&.N ( { { 4.4.",
"4.4.4.{ { { / E 3.<.-.=.=.O.v b u $ @ 5 8 X ; V p k } =.=.-.>.2.Q ^ { { { 4.4.4.",
"4.4.4.4.{ { { { { { ] ) Z 4 < < < < < < < < < < < < < q I ] { { { { { { { 4.4.4.",
"4.4.4.4.4.{ { { { { { { { L e 3 < < < < < < < < < w D [ { { { { { { { { 4.4.4.4.",
"4.4.4.4.4.{ { { { { { { { { { ` K S y r r t A F _ { { { { { { { { { { 4.4.4.4.4.",
"4.4.4.4.4.4.4.{ { { { { { { { { { { { { { { { { { { { { { { { { { 4.4.4.4.4.4.4.",
"4.4.4.4.4.4.4.4.{ { { { { { { { { { { { { { { { { { { { { { { { 4.4.4.4.4.4.4.4.",
"4.4.4.4.4.4.4.4.4.4.{ { { { { { { { { { { { { { { { { { { { 4.4.4.4.4.4.4.4.4.4.",
"4.4.4.4.4.4.4.4.4.4.4.4.4.{ { { { { { { { { { { { { { { 4.4.4.4.4.4.4.4.4.4.4.4.",
"4.4.4.4.4.4.4.4.4.4.4.4.4.4.4.4.4.{ { { { { { 4.4.4.4.4.4.4.4.4.4.4.4.4.4.4.4.4.",
"4.4.4.4.4.4.4.4.4.4.4.4.4.4.4.4.4.4.4.4.4.4.4.4.4.4.4.4.4.4.4.4.4.4.4.4.4.4.4.4.",
"4.4.4.4.4.4.4.4.4.4.4.4.4.4.4.4.4.4.4.4.4.4.4.4.4.4.4.4.4.4.4.4.4.4.4.4.4.4.4.4.",
"4.4.4.4.4.4.4.4.4.4.4.4.4.4.4.4.4.4.4.4.4.4.4.4.4.4.4.4.4.4.4.4.4.4.4.4.4.4.4.4."
};
