/* XPM */
static const char * mouse2_xpm[] = {
/* columns rows colors chars-per-pixel */
"50 50 48 1 ",
"  c #2A1F1F",
". c #2A2020",
"X c #2A2121",
"o c #2B2121",
"O c #2B2222",
"+ c #2C2222",
"@ c #2C2323",
"# c #2D2323",
"$ c #2D2424",
"% c #2E2424",
"& c #2E2525",
"* c #2F2626",
"= c #2F2727",
"- c #302828",
"; c #312828",
": c #312929",
"> c #322929",
", c #322A2A",
"< c #332B2B",
"1 c #342C2C",
"2 c #352D2D",
"3 c #362E2E",
"4 c #362F2F",
"5 c #373030",
"6 c #383131",
"7 c #383232",
"8 c #3A3434",
"9 c #3B3434",
"0 c #3B3535",
"q c #3C3636",
"w c #3D3737",
"e c #3D3838",
"r c #3E3838",
"t c #3E3939",
"y c #3F3939",
"u c #3F3A3A",
"i c #403B3B",
"p c #413C3C",
"a c #413D3D",
"s c #423E3E",
"d c #433E3E",
"f c #433F3F",
"g c #443F3F",
"h c #444040",
"j c #444141",
"k c #454141",
"l c #454242",
"z c None",
/* pixels */
"zzzzzzzzzzzzzzzzzzzzzzzzzzzzzzzzzzzzzzzzzzzzzzzzzz",
"zzzzzzzzzzzzzzzzzzzzzzzzzzzzzzzzzzzzzzzzzzzzzzzzzz",
"zzzzzzzzzzzzzzzzzzzzzzzzzzzzzzzzzzzzzzzzzzzzzzzzzz",
"zzzzzzzzzzzzzzzzzzzzzzzzzzzzzzzzzzzzzzzzzzzzzzzzzz",
"zzzzzzzzzzzzzzzzzzzzzzzzzzzzzzzzzzzzzzzzzzzzzzzzzz",
"zzzzzzzzzzzzzzzzzzzz.....zzzzzzzzzzzzzzzzzzzzzzzzz",
"zzzzzzzzzzzzzzzzzzz... ...zzzzzzzzzzzzzzzzzzzzzzzz",
"zzzzzzzzzzzzzzzzzzz..&3&..zzzzzzzzzzzzzzzzzzzzzzzz",
"zzzzzzzzzzzzzzzzzzz..9k9..zzzzzzzzzzzzzzzzzzzzzzzz",
"zzzzzzzzzzzzzzzzzzz.owkwo.zzzzzzzzzzzzzzzzzzzzzzzz",
"zzzzzzzzzzzzzzzzzzz.owkwX.zzzzzzzzzzzzzzzzzzzzzzzz",
"zzzzzzzzzzzzzzzzzzz.owkwX.zzzzzzzzzzzzzzzzzzzzzzzz",
"zzzzzzzzzzzzzzzzzzz.owkwX.zzzzzzzzzzzzzzzzzzzzzzzz",
"zzzzzzzzzzzzzzzzzzz.owkwX.zzzzzzzzzzzzzzzzzzzzzzzz",
"zzzzzzzzzzzzzzzzzzz.owkwX.zzzzzzzzzzzzzzzzzzzzzzzz",
"zzzzzzzzzzzzzzzzzzz.owkwX.....zzzzzzzzzzzzzzzzzzzz",
"zzzzzzzzzzzzzzzzzzz.owkwX.. ......zzzzzzzzzzzzzzzz",
"zzzzzzzzzzzzzzzzzzz.owkwX.&3&......zzzzzzzzzzzzzzz",
"zzzzzzzzzzzzzzzzzzz.owkwX.9k9..+-+..zzzzzzzzzzzzzz",
"zzzzzzzzzzzzzzzzzzz.owkwXXwkwo.7f7......zzzzzzzzzz",
"zzzzzzzzzzzzzzzzzzz.owkwXXwkwXXwkwo......zzzzzzzzz",
"zzzzzzzzzzzzzzzzzzz.owkwXXwkwXXwkwo.>0>..zzzzzzzzz",
"zzzzzzzzzzzz...zzzz.owkwXXwkwXXwkwX.qlq..zzzzzzzzz",
"zzzzzzzzzzz.....zzz.owkw..wkw..wkwXXwkwo.zzzzzzzzz",
"zzzzzzzzzz..o$o..zz.owkp::php;:pkw..wkwo.zzzzzzzzz",
"zzzzzzzzzz..5a4...z.owjhsshhhsshhu$%ukwo.zzzzzzzzz",
"zzzzzzzzzz..0ka*..z.owjhhhhhhhhhhhuuhjwo.zzzzzzzzz",
"zzzzzzzzzz..>dj9o...owjhhhhhhhhhhhhhhjwo.zzzzzzzzz",
"zzzzzzzzzz..o8hf,...owjhhhhhhhhhhhhhhjwo.zzzzzzzzz",
"zzzzzzzzzzz..*pkr+..owjhhhhhhhhhhhhhhjwo.zzzzzzzzz",
"zzzzzzzzzzz...5hh2..owjhhhhhhhhhhhhhhjwo.zzzzzzzzz",
"zzzzzzzzzzzz..#uki%.Xwjhhhhhhhhhhhhhhjwo.zzzzzzzzz",
"zzzzzzzzzzzzz..1fh6.oehhhhhhhhhhhhhhhjwo.zzzzzzzzz",
"zzzzzzzzzzzzz..Oqks33shhhhhhhhhhhhhhhjwo.zzzzzzzzz",
"zzzzzzzzzzzzzz..-ahhhhhhhhhhhhhhhhhhhjwX.zzzzzzzzz",
"zzzzzzzzzzzzzz...<ahhhhhhhhhhhhhhhhhhh6..zzzzzzzzz",
"zzzzzzzzzzzzzzz...>phhhhhhhhhhhhhhhhhy$..zzzzzzzzz",
"zzzzzzzzzzzzzzzz...;phhhhhhhhhhhhhhhd,..zzzzzzzzzz",
"zzzzzzzzzzzzzzzzz...<fhhhhhhhhhhhhhh9o..zzzzzzzzzz",
"zzzzzzzzzzzzzzzzzz..Othhhhhhhhhhhhhh< .zzzzzzzzzzz",
"zzzzzzzzzzzzzzzzzzz.Xqhfffffffffffgf: .zzzzzzzzzzz",
"zzzzzzzzzzzzzzzzzzz..=>:::::::::::::@..zzzzzzzzzzz",
"zzzzzzzzzzzzzzzzzzz...              ...zzzzzzzzzzz",
"zzzzzzzzzzzzzzzzzzz...................zzzzzzzzzzzz",
"zzzzzzzzzzzzzzzzzzzzzzzzzzzzzzzzzzzzzzzzzzzzzzzzzz",
"zzzzzzzzzzzzzzzzzzzzzzzzzzzzzzzzzzzzzzzzzzzzzzzzzz",
"zzzzzzzzzzzzzzzzzzzzzzzzzzzzzzzzzzzzzzzzzzzzzzzzzz",
"zzzzzzzzzzzzzzzzzzzzzzzzzzzzzzzzzzzzzzzzzzzzzzzzzz",
"zzzzzzzzzzzzzzzzzzzzzzzzzzzzzzzzzzzzzzzzzzzzzzzzzz",
"zzzzzzzzzzzzzzzzzzzzzzzzzzzzzzzzzzzzzzzzzzzzzzzzzz"
};
