/* XPM */
static const char * mouse1_xpm[] = {
/* columns rows colors chars-per-pixel */
"48 79 2 1 ",
"  c #373737",
". c None",
/* pixels */
"................................................",
"................................................",
"................................................",
"................................................",
"................................................",
".......... .....................................",
"..........  ....................................",
"..........   ...................................",
"..........    ..................................",
"..........    ..................................",
"..........     .................................",
"..........      ................................",
"..........       ...............................",
"..........        ..............................",
"..........         .............................",
"..........         .............................",
"...........         ............................",
"...........          ...........................",
"...........           ..........................",
"...........            .........................",
"...........            .........................",
"...........             ........................",
"...........              .......................",
"...........               ......................",
"...........                .....................",
"...........                .....................",
"...........                 ....................",
"...........                  ...................",
"...........                   ..................",
"...........                    .................",
"............                    ................",
"............                    ................",
"............                     ...............",
"............                      ..............",
"............                       .............",
"............                        ............",
"............                        ............",
"............                         ...........",
"............                          ..........",
"............                         ...........",
"............                     ...............",
"............                  ..................",
"............                ....................",
".............                ...................",
".............                ...................",
".............                ...................",
".............                 ..................",
".............                 ..................",
".............                 ..................",
".............                  .................",
".............       .          .................",
".............      ..          .................",
".............      ...          ................",
".............     ....          ................",
".............     ....           ...............",
".............    ......          ...............",
".............    ......          ...............",
"..............  ........          ..............",
"..............  ........          ..............",
".............. .........          ..............",
".............. ..........          .............",
".........................          .............",
".........................          .............",
"..........................          ............",
"..........................          ............",
"..........................          ............",
"...........................          ...........",
"...........................          ...........",
"...........................          ...........",
"............................         ...........",
"............................        ............",
"............................       .............",
".............................     ..............",
".............................    ...............",
".............................   ................",
".............................. .................",
"................................................",
"................................................",
"................................................"
};
