/* XPM */
static const char * turtle_xpm[] = {
/* columns rows colors chars-per-pixel */
"85 50 135 2 ",
"   c #010101",
".  c #0A0605",
"X  c #070902",
"o  c #0B0B04",
"O  c #07060A",
"+  c #08070C",
"@  c #0F0A08",
"#  c #110A07",
"$  c #130C0A",
"%  c #190F0B",
"&  c #0D1304",
"*  c #101704",
"=  c #131B06",
"-  c #1C110D",
";  c #0F0F14",
":  c #1F1410",
">  c #111118",
",  c #21140F",
"<  c #221611",
"1  c #261913",
"2  c #2C1C15",
"3  c #2E1D18",
"4  c #321E17",
"5  c #301F19",
"6  c #162007",
"7  c #1A2507",
"8  c #1D2B07",
"9  c #172108",
"0  c #1A2508",
"q  c #1E2B09",
"w  c #202E0A",
"e  c #24340A",
"r  c #27380C",
"t  c #2A3D0E",
"y  c #3B2117",
"u  c #34211A",
"i  c #3B251C",
"p  c #1D1E25",
"a  c #3D2720",
"s  c #3F2921",
"d  c #43261C",
"f  c #42291E",
"g  c #432B22",
"h  c #492E23",
"j  c #522F22",
"k  c #4E3024",
"l  c #4E3229",
"z  c #523226",
"x  c #5C3627",
"c  c #54362B",
"v  c #593729",
"b  c #56382D",
"n  c #5B392C",
"m  c #5D3C31",
"M  c #643727",
"N  c #633D2E",
"B  c #633F32",
"V  c #2E420C",
"C  c #30450C",
"Z  c #334A0D",
"A  c #3B540F",
"S  c #2E4310",
"D  c #314611",
"F  c #354C12",
"G  c #3A5413",
"H  c #3E5A13",
"J  c #405D12",
"K  c #456314",
"L  c #4B6C14",
"P  c #456418",
"I  c #496B1A",
"U  c #527615",
"Y  c #557A16",
"T  c #52761C",
"R  c #547B1D",
"E  c #587F19",
"W  c #70412F",
"Q  c #654135",
"!  c #6C4332",
"~  c #6C4638",
"^  c #6F483A",
"/  c #724735",
"(  c #764936",
")  c #7B4936",
"_  c #734B3C",
"`  c #7C4D3A",
"'  c #7B4F40",
"]  c #7E5242",
"[  c #804E3A",
"{  c #83513C",
"}  c #89543F",
"|  c #845545",
" . c #8B5640",
".. c #8E5842",
"X. c #8C5A49",
"o. c #935B44",
"O. c #9A5E46",
"+. c #925E4B",
"@. c #96614E",
"#. c #9B614B",
"$. c #9C6451",
"%. c #A2644B",
"&. c #A6684F",
"*. c #A06753",
"=. c #A46955",
"-. c #AB6C53",
";. c #AB6E59",
":. c #AE705B",
">. c #B07057",
",. c #B4745D",
"<. c #B8765F",
"1. c #B77660",
"2. c #B87760",
"3. c #BB7861",
"4. c #5A8117",
"5. c #5B841B",
"6. c #5F8819",
"7. c #628D1B",
"8. c #64901C",
"9. c #68961B",
"0. c #6B9A1D",
"q. c #70A11F",
"w. c #5D8720",
"e. c #5F8A21",
"r. c #628D22",
"t. c #659323",
"y. c #689724",
"u. c #6B9B23",
"i. c #6FA024",
"p. c #72A524",
"a. c #75AA27",
"s. c #73A628",
"d. c #76AB29",
"f. c #78AE2A",
"g. c None",
/* pixels */
"g.g.g.g.g.g.g.g.g.g.g.g.g.g.g.g.g.g.g.g.g.g.g.g.g.g.g.g.g.g.g.g.g.g.g.g.g.g.g.g.g.g.g.g.g.g.g.g.g.g.g.g.g.g.g.g.g.g.g.g.g.g.g.g.g.g.g.g.g.g.g.g.g.g.g.g.g.g.g.g.g.g.g.g.g.",
"g.g.g.g.g.g.g.g.g.g.g.g.g.g.g.g.g.g.g.g.g.g.g.g.g.g.g.g.g.g.g.g.g.g.g.g.g.g.g.g.g.g.g.g.g.g.g.g.g.g.g.g.g.g.g.g.g.g.g.g.g.g.g.g.g.g.g.g.g.g.g.g.g.g.g.g.g.g.g.g.g.g.g.g.g.",
"g.g.g.g.g.g.g.g.g.g.g.g.g.g.g.g.g.g.g.g.g.g.g.g.g.g.g.g.g.g.g.g.g.g.g.g.g.g.g.g.g.g.g.g.g.g.g.g.g.g.g.g.g.g.g.g.g.g.g.g.g.g.g.g.g.g.g.g.g.g.g.g.g.g.g.g.g.g.g.g.g.g.g.g.g.",
"g.g.g.g.g.g.g.g.g.g.g.g.g.g.g.g.g.g.g.g.g.g.g.g.g.g.g.g.g.g.g.g.g.g.          g.g.g.g.g.g.g.g.g.g.g.g.g.g.g.g.g.g.g.g.g.g.g.g.g.g.g.g.g.g.g.g.g.g.g.g.g.g.g.g.g.g.g.g.g.g.",
"g.g.g.g.g.g.g.g.g.g.g.g.g.g.g.g.g.g.g.g.g.g.g.g.g.g.g.g.g.g.g.      & r F q     g.g.g.g.g.g.g.g.g.g.g.g.g.g.g.g.g.g.g.g.g.g.g.g.g.g.g.g.g.g.g.g.g.g.g.g.g.g.g.g.g.g.g.g.g.",
"g.g.g.g.g.g.g.g.g.g.g.g.g.g.g.g.g.g.g.g.g.g.g.g.g.g.g.g.g.    & S I t.s.d.S     g.g.g.g.g.g.g.g.g.g.g.g.g.g.g.g.g.g.g.g.g.g.g.g.g.g.g.g.g.g.g.g.g.g.g.g.g.g.g.g.g.g.g.g.g.",
"g.g.g.g.g.g.g.g.g.g.g.g.g.g.g.g.g.g.g.g.g.g.g.g.g.g.      9 H t.s.f.d.d.R &     g.g.g.g.g.g.g.g.g.g.g.g.g.g.g.g.g.g.g.g.g.g.g.g.g.g.g.g.g.g.g.g.g.g.g.g.g.g.g.g.g.g.g.g.g.",
"g.g.g.g.g.g.g.g.g.g.g.g.g.g.g.g.g.g.g.g.g.g.g.g.g.    9 P y.f.d.d.d.d.y.q     g.g.g.g.g.g.g.g.g.g.g.g.g.g.g.g.g.g.g.g.g.g.g.g.g.g.g.g.g.g.g.g.g.g.g.g.g.g.g.g.g.g.g.g.g.g.",
"g.g.g.g.g.g.g.g.g.g.g.g.g.g.g.g.g.g.g.g.g.g.g.    X G y.d.d.d.d.d.d.i.t     g.g.g.g.g.g.g.g.g.g.g.g.g.g.g.g.g.g.g.g.g.g.g.g.g.g.g.g.g.    g.g.g.g.g.g.g.g.g.g.g.g.g.g.g.g.",
"g.g.g.g.g.g.g.g.g.g.g.g.g.g.g.g.g.g.g.g.g.g.    9 R d.d.d.d.d.d.d.s.H     g.g.g.g.g.g.g.g.g.g.g.g.g.g.g.g.g.g.g.g.g.g.g.g.g.g.      X = = r r.g.g.g.      g.g.g.g.g.g.g.g.",
"g.g.g.g.g.g.g.g.g.g.g.g.g.g.g.g.g.g.g.g.g.g.g.K t.d.d.d.d.d.d.d.d.r.&     g.g.g.g.g.g.g.g.g.g.g.g.g.g.g.g.g.g.g.g.g.g.g.g.    & S R r.y.u.s.d.d.d.r.D 7 X       g.g.g.g.g.",
"g.g.g.g.g.g.g.g.g.g.g.g.g.g.g.g.g.g.g.g.g.g.g.f.d.d.d.d.d.d.p.0.5.H                   .   .                 g.g.g.g.g.g.    w w.d.f.d.d.f.d.d.d.d.d.d.u.e.L V X     g.g.g.",
"g.g.g.g.g.g.g.g.g.g.g.g.g.g.g.g.g.g.g.g.g.g.w I p.d.d.d.u.Y A 0 & . $ < i l m u @     i / g .   . 1 l g 3 - $             q 8.d.d.d.d.d.d.d.a.a.p.p.0.0.7.4.H =     g.g.g.",
"g.g.g.g.g.g.g.g.g.g.g.g.g.g.g.g.g.g.g.g.g.g.    H p.u.L q X . 2 b | #.:.1.3.3.,.@.i   - o.i   < X.:.3.1.,.=.@.| B s : .   & V L 8.p.d.d.d.a.6.L H V e 8 = X       g.g.g.g.",
"g.g.g.g.g.g.g.g.g.g.g.g.g.g.g.g.g.g.g.g.g.g.    & A 8 .   i X.:.<.3.3.3.1.3.1.3.3.m   - } 2   u 3.3.3.3.3.3.3.3.3.1.:.^     . . = Z 4.q.u.H & .           g.g.g.g.g.g.g.g.",
"g.g.g.g.g.g.g.g.g.g.g.g.g.g.g.g.g.g.g.g.g.g.g.            ! 3.3.3.3.3.3.3.3.3.3.3.n   % } 2   u 1.3.3.1.3.3.3.3.3.3.3.X.. . z i     X r e     g.g.g.g.g.g.g.g.g.g.g.g.g.g.",
"g.g.g.g.g.g.g.g.g.g.g.g.g.g.g.g.g.g.g.g.g.g.g.    % h #   ~ 3.3.2.3.3.3.3.3.3.3.3.m   % } 4   u 3.3.3.3.3.3.3.3.3.1.3.+..   ! n   . 1 .       g.g.g.g.g.g.g.g.g.g.g.g.g.g.",
"g.g.g.g.g.g.g.g.g.g.g.g.g.g.g.g.g.g.g.g.g.g.    < ` } -   g @.,.3.3.3.1.2.3.3.>.@.u   - ..u   : | :.3.3.3.3.3.3.3.<.$.m   . / Q   . B B 1     g.g.g.g.g.g.g.g.g.g.g.g.g.g.",
"g.g.g.g.g.g.g.g.g.g.g.g.g.g.g.g.g.g.g.g.g.    - { %.#.N - . @ u ~ @.1.3.,.@.Q u . . < ! #.` 4 . . 2 b X.:.3.<.*._ g $ . % z o.o.g $   : i 1 .     g.g.g.g.g.g.g.g.g.g.g.g.",
"g.g.g.g.g.g.                    g.g.g.g.g.  . n ( z h n ( ! g -   $ u m u # . - h ! / n h v / / z < . . 2 c g % . $ i N / N h z ! ( N u # .         g.g.g.g.g.g.g.g.g.g.g.",
"g.g.g.g.g.    ; p O   * e w 0 = X           . - . . % . @ u N ( ! g - # , g ! / v 4 . X - + . 1 c / / z 1 # % u N / N i % . # @ . - g ! ) n u $ # .     g.g.g.g.g.g.g.g.g.",
"g.g.g.    &   O >   & T s.s.p.y.w.I t X     . 3 m +.$.] g % . $ i B } } { n 4 @ . - l | $.X.b 1 . . 1 c { } } ! i % . $ i _ $.@.Q u @   - h ( .. .n .     g.g.g.g.g.g.g.g.",
"g.g.    F e.P V t G w.s.d.d.d.d.d.f.u.q   u X.>.3.3.3.3.3.*._ g @   k o.i   $ l ] =.1.3.3.3.3.;.| b -   1 } N . . u _ $.1.3.3.3.3.,.@.Q 3   # ( %.#.x .   g.g.g.g.g.g.g.g.",
"g.    D s.d.d.d.d.d.d.d.d.d.d.d.d.d.e.=   Q 3.3.3.3.3.3.3.3.3.:.i   4 { :   l 3.3.3.3.3.1.3.3.3.3.3.Q . . { f   1 =.3.3.3.3.3.3.3.3.3.3.+.#   x %.%.#.h         g.g.g.g.g.",
"    q y.d.d.d.d.d.d.d.d.d.d.d.d.d.f.R o   | 3.3.2.2.3.3.3.3.3.,.g   4 { -   c 3.3.3.3.3.3.3.3.3.3.3.~ . . { f   3 ;.3.3.3.3.3.3.3.3.2.3.$.$   n %.%.%.` @   & X     g.g.g.",
"    7 y.d.d.d.d.d.d.d.d.d.d.d.d.d.f.T o   ] 3.3.3.3.3.2.3.3.3.:.g   5 { -   b 3.3.3.3.1.1.3.1.3.3.3.~   . { f   2 ;.3.3.1.3.3.1.2.3.3.3.$.$   x %.%.%.) @   C L V X     g.",
"g.    t 0.a.d.d.d.s.d.d.d.d.d.a.d.f.e.=   Q 3.3.3.3.3.2.3.3.3.;.i   5 { :   l 3.3.3.3.1.3.3.3.3.3.3.Q     { f   1 *.3.3.3.3.3.3.2.3.3.3.+.@   n %.%.O.f     X = 7 &       ",
"g.g.    V Y H r r F 5.p.a.a.a.p.s.p.8.0   3 X.:.3.3.3.3.1.$._ a .   z o.i   # g ` =.1.3.3.3.3.;.| c %   2 o.N .   u ^ $.1.3.3.3.2.,.+.n 1   $ _ %.O.x       g.g.          ",
"g.g.g.    X   + >   X L 0.9.8.7.U H e X     . 1 n X.$._ g $   % i N ` ` ` N u # . % h ] $.| c , . . 4 v ` ` ` ! f - . $ i ~ @.@.B 3 . . , z / { ) z o   g.g.g.g.g.g.g.  g.",
"g.g.g.g.g.    ; p O   & 8 7 = & X           . - . . # . % i N ! v u $ . $ u n ! v u @ . % . . 2 c ! N i % . @ < k ! N i $ . @ O . , h ! ! h < . .     g.g.g.g.g.g.g.g.g.g.",
"g.g.g.g.g.g.                    g.g.g.g.g.  . x ` v k N ! v 4 @ . - l ^ l - . # u v ! n k v ! Q f % . $ s ~ n < . . 1 v ! ! z v ! ! z , . . .       g.g.g.g.g.g.g.g.g.g.g.",
"g.g.g.g.g.g.g.g.g.g.g.g.g.g.g.g.g.g.g.g.g.    % ) %.#.z $ . - k ] =.1.3.1.=.` g % . - v %./ : . # i ~ $.3.3.3.;.X.b < . . i o.} 4 o . 1 f u .     g.g.g.g.g.g.g.g.g.g.g.g.",
"g.g.g.g.g.g.g.g.g.g.g.g.g.g.g.g.g.g.g.g.g.g.    , N ` %   l =.<.3.3.3.3.3.3.3.3.$.g   -  .5   < $.,.3.3.<.3.3.3.3.3.>.^   . ! N   @ v N 2     g.g.g.g.g.g.g.g.g.g.g.g.g.g.",
"g.g.g.g.g.g.g.g.g.g.g.g.g.g.g.g.g.g.g.g.g.g.g.    # d #   ~ 3.2.3.3.3.3.<.3.3.3.1.m   - } 3   u 1.3.3.3.3.3.3.3.3.3.3.X..   N v   . - .     g.g.g.g.g.g.g.g.g.g.g.g.g.g.g.",
"g.g.g.g.g.g.g.g.g.g.g.g.g.g.g.g.g.g.g.g.g.g.g.            B ,.<.3.<.3.<.3.3.3.3.3.m   % } 2   u <.3.3.3.<.<.2.3.<.2.<.|     d 4     & V t .   g.g.g.g.g.g.g.g.g.g.g.g.g.g.",
"g.g.g.g.g.g.g.g.g.g.g.g.g.g.g.g.g.g.g.g.g.g.    = P r X   1 ! +.-.>.,.,.<.<.3.3.3.n   % } 3   u 1.3.3.1.<.,.,.>.-.%.o.N     . o 9 H r.a.s.P =             g.g.g.g.g.g.g.g.",
"g.g.g.g.g.g.g.g.g.g.g.g.g.g.g.g.g.g.g.g.g.g.    P f.p.R r o   $ i ! { o.#.&.-.#.` 5   , } y   % ~ +.%.%.#...` ! h 4 % .   * F R i.d.f.d.d.d.u.R P G V w 9 X .     g.g.g.g.",
"g.g.g.g.g.g.g.g.g.g.g.g.g.g.g.g.g.g.g.g.g.g.  & t.f.f.f.s.e.P r & X . - 2 i f -     . y M d .     % u 4 < % @             w 7.a.a.f.d.d.d.d.f.f.d.d.a.q.0.5.K =     g.g.g.",
"g.g.g.g.g.g.g.g.g.g.g.g.g.g.g.g.g.g.g.g.g.g.  * t.f.d.d.d.d.d.p.y.P                   . .                   g.g.g.g.g.g.    7 U 0.q.a.p.p.a.p.q.p.q.0.8.Y J r X     g.g.g.",
"g.g.g.g.g.g.g.g.g.g.g.g.g.g.g.g.g.g.g.g.g.g.  . K s.d.d.d.d.d.d.f.y.&     g.g.g.g.g.g.g.g.g.g.g.g.g.g.g.g.g.g.g.g.g.g.g.g.    o r K Y 6.4.4.E L H Z e = X       g.g.g.g.g.",
"g.g.g.g.g.g.g.g.g.g.g.g.g.g.g.g.g.g.g.g.g.g.    & L i.a.d.d.d.d.d.d.H     g.g.g.g.g.g.g.g.g.g.g.g.g.g.g.g.g.g.g.g.g.g.g.g.g.g.      X & & X X X         g.g.g.g.g.g.g.g.g.",
"g.g.g.g.g.g.g.g.g.g.g.g.g.g.g.g.g.g.g.g.g.g.g.    X C 6.p.a.d.d.d.d.i.S     g.g.g.g.g.g.g.g.g.g.g.g.g.g.g.g.g.g.g.g.g.g.g.g.g.g.g.g.g.g.g.g.g.g.g.g.g.g.g.g.g.g.g.g.g.g.g.",
"g.g.g.g.g.g.g.g.g.g.g.g.g.g.g.g.g.g.g.g.g.g.g.g.g.    = A 7.q.a.d.d.d.y.q     g.g.g.g.g.g.g.g.g.g.g.g.g.g.g.g.g.g.g.g.g.g.g.g.g.g.g.g.g.g.g.g.g.g.g.g.g.g.g.g.g.g.g.g.g.g.",
"g.g.g.g.g.g.g.g.g.g.g.g.g.g.g.g.g.g.g.g.g.g.g.g.g.g.g.    * Z 4.0.p.d.d.5.&     g.g.g.g.g.g.g.g.g.g.g.g.g.g.g.g.g.g.g.g.g.g.g.g.g.g.g.g.g.g.g.g.g.g.g.g.g.g.g.g.g.g.g.g.g.",
"g.g.g.g.g.g.g.g.g.g.g.g.g.g.g.g.g.g.g.g.g.g.g.g.g.g.g.g.g.    & e J E 9.0.V     g.g.g.g.g.g.g.g.g.g.g.g.g.g.g.g.g.g.g.g.g.g.g.g.g.g.g.g.g.g.g.g.g.g.g.g.g.g.g.g.g.g.g.g.g.",
"g.g.g.g.g.g.g.g.g.g.g.g.g.g.g.g.g.g.g.g.g.g.g.g.g.g.g.g.g.g.g.      & 8 t 7     g.g.g.g.g.g.g.g.g.g.g.g.g.g.g.g.g.g.g.g.g.g.g.g.g.g.g.g.g.g.g.g.g.g.g.g.g.g.g.g.g.g.g.g.g.",
"g.g.g.g.g.g.g.g.g.g.g.g.g.g.g.g.g.g.g.g.g.g.g.g.g.g.g.g.g.g.g.g.g.g.          g.g.g.g.g.g.g.g.g.g.g.g.g.g.g.g.g.g.g.g.g.g.g.g.g.g.g.g.g.g.g.g.g.g.g.g.g.g.g.g.g.g.g.g.g.g.",
"g.g.g.g.g.g.g.g.g.g.g.g.g.g.g.g.g.g.g.g.g.g.g.g.g.g.g.g.g.g.g.g.g.g.g.g.g.g.g.g.g.g.g.g.g.g.g.g.g.g.g.g.g.g.g.g.g.g.g.g.g.g.g.g.g.g.g.g.g.g.g.g.g.g.g.g.g.g.g.g.g.g.g.g.g.",
"g.g.g.g.g.g.g.g.g.g.g.g.g.g.g.g.g.g.g.g.g.g.g.g.g.g.g.g.g.g.g.g.g.g.g.g.g.g.g.g.g.g.g.g.g.g.g.g.g.g.g.g.g.g.g.g.g.g.g.g.g.g.g.g.g.g.g.g.g.g.g.g.g.g.g.g.g.g.g.g.g.g.g.g.g.",
"g.g.g.g.g.g.g.g.g.g.g.g.g.g.g.g.g.g.g.g.g.g.g.g.g.g.g.g.g.g.g.g.g.g.g.g.g.g.g.g.g.g.g.g.g.g.g.g.g.g.g.g.g.g.g.g.g.g.g.g.g.g.g.g.g.g.g.g.g.g.g.g.g.g.g.g.g.g.g.g.g.g.g.g.g."
};
