/* XPM */
static const char * turtle3_xpm[] = {
/* columns rows colors chars-per-pixel */
"85 50 33 1 ",
"  c #181F33",
". c #1A2234",
"X c #1F2935",
"o c #1C253B",
"O c #212537",
"+ c #222D36",
"@ c #232638",
"# c #26283A",
"$ c #2C2C3C",
"% c #312F3E",
"& c #253237",
"* c #283737",
"= c #2A3937",
"- c #263438",
"; c #283738",
": c #2B3C39",
"> c #33303F",
", c #2F413A",
"< c #32453B",
"1 c #364A3D",
"2 c #1E2740",
"3 c #1F2942",
"4 c #202A44",
"5 c #312F40",
"6 c #283742",
"7 c #2A3941",
"8 c #353241",
"9 c #3A3544",
"0 c #3E3847",
"q c #3F3948",
"w c #413946",
"e c #463E4B",
"r c #483E4C",
/* pixels */
"4444444444444444444444444444444444444444444444444444444444444444444444444444444444444",
"4444444444444444444444444444444444334444444444444444444444444444444444444444444444444",
"4444444444444444444444444444443343333334444444444444444444444444444444444444444444444",
"4444444444444444444444444444443333o...o3444444444444444444444444444444444444444444444",
"444444444444444444444444443333o...X+-X..344444444444444444444444444444444444444444444",
"44444444444444444444444444322o..+:<11&..344444444444444444444444444444444444444444444",
"44444444444444444444443443o..o;11111:..o444444444444444444444444444444334444444444444",
"4444444444444444444444332. X;,11111<. o2444444444444444444444444444444334444444444444",
"44444444444444444444442. X;<111111<+ .23344444444443444444444444oooooo334333444344444",
"4444444444444444444444o.X:11111111-..o333444444444434444444443oo...XXX:76Xo.oo3344444",
"44444444444444444444444;<11111111,..o2332o33o3oo3333444444433...-,<<11111<&X....33444",
"4444444444444444444444711111111<,- ............  o..oooo3343..X,11111111111<,:&..3344",
"4444444444444444444433+;<111<:*+X.o@@$$#.  #>#. .o$$@o.. .o..X,11111111<11<<<,*..o344",
"4444444444444444444442 .;1<:X..@-7wweree0#..w# @9eeeee995@X. .&:,<1111,:;-XX....oo334",
"4444444444444444444444o..-+. #9erererrere5 o9@ #eeeeerreeew8 ...X&,<1=....ooooo433334",
"4444444444444444444444o..    8errrereeree5 .9@ #eeeereereee9..$#  .&X. o3333444433334",
"44444444333444444444443o .$. >rreereererr% .9@ @errrwrrrrer0..%$ .@   o44444444444444",
"4444444433444433444443..@>9@ #9erreeeere9# O9# O9wrerrrrrew% .>> .%5@..o4444444444444",
"444433433333433343332o..9ww5@..@80ere9%@..@%w9@. @-0errw>#@ .$09$. @#@. .o44444444444",
"444442o...oooooo3333o  69$#$>>$O..#%#. O$>>%#%855@  @$#O..#%>>$$%8%@.     o4444444444",
"3332o..oo...XXXX....  .O.....#%9>#@..#89%@. X..@$8%%O O#%85@@.....#8>%#....o444444444",
"332... .o..:1111,;+.   @%0w9$. .#%999%@. O$9q9-O. @%999>#..X#8ww>#..@$>99%. .44444444",
"33 .-,;&&-,1111111<+ @9eeeeerw8#..$9@ .$9wrrrrrw95o Ow% .#8qerreee0>@..>ww%  o4444444",
"2o &11111111111111,X 5rererrrree# @9@ $eeerrerrerr%  9# Oereeerereer9..%ww9$  .o33444",
". X,11111111111111,o 9eeeeeeerew# @>@ $rereerererr> .># @weeeeereree9..$wwe8. ....o33",
"o X,11111111111111:. 9eeeeeereee# #9@ $reereerrrrr8 .9$ @weeeerereerw. %0008..+:&...3",
"o..&<1111111111111,X 8rrrreerere# #>@.$reeerrrrrrr%  9$ @wrerreererrw. $ww0#. .Xo.. o",
"3o..+,-XX-,1111111,X @9wrreree5#..%9@..#9werrrrq9$O Ow%..@90errreew%@..9w0&. oooo.  .",
"333oo...o..=<<<,:=X....@69w9#. O#%98>%#O .$9w9$@..@%989%$O  +5w0%@..O$59>$..o44433ooo",
"3343o...o. XXXX....o . X.   O#%%%@...#%%%@.....@$>%#O. O%>%#o o .O$%%$@... X444443343",
"344433oo..oo.ooooo44o..$9%$%5%@  O$8$. .@%>%$%>%#@..#5$O  O%>%$%%>$@...  .o4444444443",
"44443333333333333344oo .8ww$O O$8eeerw9$O..%98O..#>werre9%O O#99# .@#@  oo44444444443",
"4444444444444444444433..O>>..$werrereerew$ O9@ @0eeeereeree>..%% .$$@..o3444344444444",
"44444444444444444444333. @#..>eereeereeer$ .9@ @eeereereerr9  %% .X  .o33344334444444",
"44444444444444444444333.  .  $eeeeeeeeree% o9@ #erreeeeeere9  ##. X&+..o3334333344444",
"4444444444444444443333...=X..@>0weeeeeerr% .9@ #eeeeeeeeww9%.  .X=,11;.....ooo3o44444",
"4444444444444444444443..:11:&. .#>89wwww8@ O9@..89www99%$@O. .&:<11111<,;-&XX...o3444",
"444444444444444444443o..<1111,=+....@##O  .#%#.  X@@@...  o  +<111111111111<<,=X.o344",
"444444444444444444443o..11111111<: ..o....... oo  oo.ooo244o. +:<1<111<11<<,,*X...344",
"444444444444444444443o..=11111111<. o#4o3o2o3o33242344444444+...+=,,,,,:-&&X....o2444",
"44444444444444444444433o.=11111111;. o3333344444444444444444432ooo.......oo3333433344",
"44444444444444444444442o  &,1111111& .2333444444444444444444444333oooo332334344433444",
"4444444444444444444433332o X-,11111<X..3444444444444444444444444444433343344334444444",
"44444444444444444444333332o...&,<<11,. o444444444444444444444444444433443344434444444",
"4444444444444444444444444443o. .&=,<<& .344444444444444444444444444444443344444444444",
"444444444444444444444444444433oo ..X&X..344444444444444444444444444444443344444444444",
"444444444444444444444444444444443ooo...3444444444444444444444444444444444444444444444",
"4444444444444444444444444444444433333333444444444444444444444444444444444444444444444",
"4444444444444444444444444444444444444444444444444444444444444444444444444444444444444",
"4444444444444444444444444444444444444444444444444444444444444444444444444444444444444"
};
