/* XPM */
static const char * turtle2_xpm[] = {
/* columns rows colors chars-per-pixel */
"85 50 41 1 ",
"  c #5F8B92",
". c #628D94",
"X c #638F98",
"o c #659294",
"O c #699297",
"+ c #6B9B96",
"@ c #65939B",
"# c #6C9399",
"$ c #6A9A98",
"% c #72969B",
"& c #76999D",
"* c #7A9B9E",
"= c #6FA196",
"- c #6FA198",
"; c #71A597",
": c #74A997",
"> c #70A498",
", c #76AB99",
"< c #78AF9A",
"1 c #7CB59C",
"2 c #6897A0",
"3 c #6A9BA3",
"4 c #6D9FA8",
"5 c #7D9DA1",
"6 c #6FA1A3",
"7 c #6EA1AA",
"8 c #71A5AE",
"9 c #75ABAF",
"0 c #7AB2A8",
"q c #73A7B0",
"w c #75ABB4",
"e c #78AFB9",
"r c #7EB8B2",
"t c #7BB3BC",
"y c #7EB7C1",
"u c #7FB9C3",
"i c #809FA1",
"p c #84A2A4",
"a c #88A4A6",
"s c #8BA6A9",
"d c #8EA9AA",
/* pixels */
"uuuuuuuuuuuuuuuuuuuuuuuuuuuuuuuuuuuuuuuuuuuuuuuuuuuuuuuuuuuuuuuuuuuuuuuuuuuuuuuuuuuuu",
"uuuuuuuuuuuuuuuuuuuuuuuuuuuuuuuuuuuuuuuuuuuuuuuuuuuuuuuuuuuuuuuuuuuuuuuuuuuuuuuuuuuuu",
"uuuuuuuuuuuuuuuuuuuuuuuuuuuuuuuuuuuyttyuuuuuuuuuuuuuuuuuuuuuuuuuuuuuuuuuuuuuuuuuuuuuu",
"uuuuuuuuuuuuuuuuuuuuuuuuuuuuuuuye73@@@@8uuuuuuuuuuuuuuuuuuuuuuuuuuuuuuuuuuuuuuuuuuuuu",
"uuuuuuuuuuuuuuuuuuuuuuuuuuuuut82.  ==+ Xyuuuuuuuuuuuuuuuuuuuuuuuuuuuuuuuuuuuuuuuuuuuu",
"uuuuuuuuuuuuuuuuuuuuuuuuuuue7@ o+;11<= Xduuuuuuuuuuuuuuuuuuuuuuuuuuuuuuuuuuuuuuuuuuuu",
"uuuuuuuuuuuuuuuuuuuuuuuuue7X o=<1110,. 4uuuuuuuuuuuuuuuuuuuuuuuuuuuuuuuuuuuuuuuuuuuuu",
"uuuuuuuuuuuuuuuuuuuuuuyy7@ o=111111<o @tuuuuuuuuuuuuuuuuuuuuuuuuuuuuuuuuuuuuuuuuuuuuu",
"uuuuuuuuuuuuuuuuuuuuuut3 o:11111111+ Xwuuuuuuuuuuuuuuuuuuuuuuyuye87738uuuuyuuuuuuuuuu",
"uuuuuuuuuuuuuuuuuuuuuy3 o,1111p111=. quuuuuuyyuuuuuuuuuuuuuuuy82. .oo+0rrw@$4qeyuuuuu",
"uuuuuuuuuuuuuuuuuuuuuu9><11111111<. 3ttewwwwwwwwtttuuuuuuyyue2  =:<1<1111<+o  o$8tuuu",
"uuuuuuuuuuuuuuuuuuuuuur111111111<=  .@...   .... .@@237qyyuwX +6111111111101<-+  3yuu",
"uuuuuuuuuuuuuuuuuuuuut6;1111<:+o  XO#%*#. .O*%  .##%#X...@#O o<1111111111111<:&o @euu",
"uuuuuuuuuuuuuuuuuuuuue. :<<:o..#%0assddda# Oi# Opsddsspp5#@. o=;<11111<:=++o.X @3wyuu",
"uuuuuuuuuuuuuuuuuuuuuy3 o=+ .#issdddddddd3.Xi# #dddddddddss6    o+:<1=  o@@@34qyuuuuu",
"uuuuuuuuuuuuuuuuuuuuuueo    .5ddddddddddd5 .i# #dddddddddddp. &@   ++ @7wttuuuuuuuuuu",
"uuuuuuuuuuuuuuuuuuuuuyt@..%X.*dddddddddsai .i# #dddddddddddiX.**......3uuuuuuuuuuuuuu",
"uuuuuuuuuuuuuuuuuuuuut@ O5i..%asdddddddsi# .i# .6dddddddddi&..**..**. .3euuuuuuuuuuuu",
"uuuuuuuteyuyyyuyuuuuy@ .iap5...#iisdsaiO...iaiX..O*piddii%X.X%ii#...#O. #wuuuuuuuuuuu",
"uuuuue3@X@3222377weu7 .&5%%%i&%..X#&#. .#ii&%&ii%O..O5%.XX%*i*%&*i*O... .X4uuuuuuuuuu",
"uuut7@ .@  oo+o+..@@. .o.....#&5iO.. %ii&#  X..O%*5%O..#*i*%......%**&#.X..3yyuuuuuuu",
"uu8@.. .X  ,1111<>+   .@5is5%...#iiiii.. O%isi&O..O%iii*O..X#iii5%..X%iii%..3yuuuuuuu",
"u8  -<-+==<11111111o @psddddssi%. &p# .&iadddddsi&O Oi*..%isddddddiiO..*id*..3yuuuuuu",
"w. +11111111111111<o 5dsddddddds# #iO &ddddddddddd5..i%.Oiddddddddddi..*sii*..23qtuuu",
"@ @111111111111110<o 5dddddddddd% #i. isddddddddddi  i% OsddddddddddiO.%sia:  o  @8tu",
"@ @<111111a1111111: .5ddddddddds# #i..%sdddddddddd&  i% %iddddddddddiX.%aaa*  =;=. 3t",
"wo +11111111111111<o *dsddddddda% #iX %dddddddddddi .i%.#iddddddddddi..*aip&   oo   7",
"u8. +:-$==<1111111<o #psddddsa5%  %p% .%iadddddai%. Oi&..#iiddddddi&%..isa&  777@@  .",
"uu8@ .  X  ;1<,,:=@o  .O5ia5#X..OiiiiiO  .%iii%X..O&iii&%...2iii*O..X%*5i%..7uuute737",
"uuut7o .@   ooo o @$  .X.....%&*%O. .#%i&#..X..O&i&#...X%&5%O.XX O%**%O....4uuuuuuyuu",
"uuuuue3@o@33-3377ett7 .&5%%**&#..X%i%. .#&i&&ii&%X..#i&#..O%*5****%O... .O4yuuuuuuuuu",
"uuuuuuutttuuyuuuuuuut2 o5aa%..O%iadddai%...%iiO..#iidddsi%...%ii#..O##..2euyuuuuuuuuu",
"uuuuuuuuuuuuuuuuuuuuyt@ O**X.%addddddddda%.Xi# Oiddddddddda*..*& o&&@..7tuuuuuuuuuuuu",
"uuuuuuuuuuuuuuuuuuuuuut@ .%. *ddddddddddd& .i# #dddddddddddp..*%  o   7uuuuuuuuuuuuuu",
"uuuuuuuuuuuuuuuuuuuuuue@     &sdddddddddd* Oi# #dddddddddddp .##   =+ o7etyuyuuuuuuuu",
"uuuuuuuuuuuuuuuuuuuuut6 .;+. O*passdsdddd% Xi# #dddddsssaap&   .o=<11=o  X@$37weyuuuu",
"uuuuuuuuuuuuuuuuuuuuue  ;11:+  X#&iiaaaa5# Xi# .*iaapp55&@o  o+:111111<,==++o  o2wuuu",
"uuuuuuuuuuuuuuuuuuuuu7 o<11111-+..XX#%%..  #*$. .O##OX.. @3. O1p11111111101<<<=o .euu",
"uuuuuuuuuuuuuuuuuuuuu7 o11111111i&  X#........ X.X#@#37wetuwo +:111111111<<<:=+. 3tuu",
"uuuuuuuuuuuuuuuuuuuut9  :11a1111a<XX%tewwwwwwweeeetyuuuuuuuue+  o;:,,<,;==+o  o$wtuuu",
"uuuuuuuuuuuuuuuuuuuuuy2 o-11111111;  quuuuuuuuuuuuuuuuuuuuuuuuq$X  X   X X227qyuuuuuu",
"uuuuuuuuuuuuuuuuuuuuuue6  +<1111111= .wuuuuuuuuuuuuuuuuuuuuuuuuueq877889eeyyuuuuuuuuu",
"uuuuuuuuuuuuuuuuuuuuuuuyq@ o=<111111+ @euuuuuuuuuuuuuuuuuuuuuuuuuuuuuuuuuuuuuuuuuuuuu",
"uuuuuuuuuuuuuuuuuuuuuuuuut3X o+:<111,  7uuuuuuuuuuuuuuuuuuuuuuuuuuuuuuuuuuuuuuuuuuuuu",
"uuuuuuuuuuuuuuuuuuuuuuuuuuut7@ .o:,11o @tuuuuuuuuuuuuuuuuuuuuuuuuuuuuuuuuuuuuuuuuuuuu",
"uuuuuuuuuuuuuuuuuuuuuuuuuuuuuyq2   +=o @euuuuuuuuuuuuuuuuuuuuuuuuuuuuuuuuuuuuuuuuuuuu",
"uuuuuuuuuuuuuuuuuuuuuuuuuuuuuuuue93@o@@quuuuuuuuuuuuuuuuuuuuuuuuuuuuuuuuuuuuuuuuuuuuu",
"uuuuuuuuuuuuuuuuuuuuuuuuuuuuuuuuuuuyttyuuuuuuuuuuuuuuuuuuuuuuuuuuuuuuuuuuuuuuuuuuuuuu",
"uuuuuuuuuuuuuuuuuuuuuuuuuuuuuuuuuuuuuuuuuuuuuuuuuuuuuuuuuuuuuuuuuuuuuuuuuuuuuuuuuuuuu",
"uuuuuuuuuuuuuuuuuuuuuuuuuuuuuuuuuuuuuuuuuuuuuuuuuuuuuuuuuuuuuuuuuuuuuuuuuuuuuuuuuuuuu"
};
