/* XPM */
static const char * eight_xpm[] = {
/* columns rows colors chars-per-pixel */
"80 40 6 1 ",
"  c #2A2323",
". c #2B2424",
"X c #2B2525",
"o c #2C2424",
"O c #2C2525",
"+ c None",
/* pixels */
"++++++++++++++++++++++++++++++++++++++++++++++++++++++++++++++++++++++++++++++++",
"++++++++++++++++++++++++++++++++++++++++++++++++++++++++++++++++++++++++++++++++",
"++++++++++++++++++++++++++++++++++++++++++++++++++++++++++++++++++++++++++++++++",
"++++++++++++++++++++++++++++++++++++++++++++++++++++++++++++++++++++++++++++++++",
"++++++++++++++++++++++++++++++++++++++++++++++++++++++++++++++++++++++++++++++++",
"++++++++++++++++++++++++++++++++++++++++++++++++++++++++++++++++++++++++++++++++",
"++++++++++++++++++++++++++++++++++++++++++++++++++++++++++++++++++++++++++++++++",
"++++++++++++++++++++++++++++++++++++++++++++++++++++++++++++++++++++++++++++++++",
"++++++++++++++++++++++++++++++++++++++++++++++++++++++++++++++++++++++++++++++++",
"++++++++++++++++++++++++++++++++++++++++++++++++++++++++++++++++++++++++++++++++",
"++++++++++++++++++++++++++++++++++++++++++++++++++++++++++++++++++++++++++++++++",
"+++++++++++++++++++++++.oXOOoo++++++++++++++++++++++++++++++++++++++++++++++++++",
"+++++++++++++++++++++XOOOOOOOOOO.+++++++++++++++++++++++++++++++++++++++++++++++",
"++++++++++++++++++++OOOOOOOOOOOOOo++++++++++++++++++++++++++++++++++++++++++++++",
"+++++++++++++++++++XOOOOo++++oOOOO++++++++++++++++++++++++++++++++++++++++++++++",
"+++++++++++++++++++oOOOO+++++oOOOO++++++++++++++++++++++++++++++++++++++++++++++",
"+++++++++++++++++++oOOOOo++++oOOOo++++++++++++++++++++++++++++++++++++++++++++++",
"++++++++++++++++++++ OOOOOOOOOOO.+++++++++++++++++++++++++++++++++++++++++++++++",
"+++++++++++++++++++++oOOOOOOOOOOX+++++++++++++++++++++++++++++++++++++++++++++++",
"++++++++++++++++++++OOOOO.oooOOOOX++++++++++++++++++++++++++++++++++++++++++++++",
"+++++++++++++++++++oOOOO+++++XOOOO++++++++++++++++++++++++++++++++++++++++++++++",
"+++++++++++++++++++OOOOO+++++.OOOOo+++++++++++++++++++++++++++++++++++++++++++++",
"+++++++++++++++++++OOOOOoX++oOOOOOo+++++++++++++++++++++++++++++++++++++++++++++",
"+++++++++++++++++++.OOOOOOOOOOOOOO++++++++++++++++++++++++++++++++++++++++++++++",
"++++++++++++++++++++.OOOOOOOOOOOo+++++++++++++++++++++++++++++++++++++++++++++++",
"++++++++++++++++++++++XoOOOOOOX+++++++++++++++++++++++++++++++++++++++++++++++++",
"++++++++++++++++++++++++++++++++++++++++++++++++++++++++++++++++++++++++++++++++",
"++++++++++++++++++++++++++++++++++++++++++++++++++++++++++++++++++++++++++++++++",
"++++++++++++++++++++++++++++++++++++++++++++++++++++++++++++++++++++++++++++++++",
"++++++++++++++++++++++++++++++++++++++++++++++++++++++++++++++++++++++++++++++++",
"++++++++++++++++++++++++++++++++++++++++++++++++++++++++++++++++++++++++++++++++",
"++++++++++++++++++++++++++++++++++++++++++++++++++++++++++++++++++++++++++++++++",
"++++++++++++++++++++++++++++++++++++++++++++++++++++++++++++++++++++++++++++++++",
"++++++++++++++++++++++++++++++++++++++++++++++++++++++++++++++++++++++++++++++++",
"++++++++++++++++++++++++++++++++++++++++++++++++++++++++++++++++++++++++++++++++",
"++++++++++++++++++++++++++++++++++++++++++++++++++++++++++++++++++++++++++++++++",
"++++++++++++++++++++++++++++++++++++++++++++++++++++++++++++++++++++++++++++++++",
"++++++++++++++++++++++++++++++++++++++++++++++++++++++++++++++++++++++++++++++++",
"++++++++++++++++++++++++++++++++++++++++++++++++++++++++++++++++++++++++++++++++",
"++++++++++++++++++++++++++++++++++++++++++++++++++++++++++++++++++++++++++++++++"
};
