/* XPM */
static const char * nine_xpm[] = {
/* columns rows colors chars-per-pixel */
"80 40 6 1 ",
"  c #2A2323",
". c #2B2424",
"X c #2B2525",
"o c #2C2424",
"O c #2C2525",
"+ c None",
/* pixels */
"++++++++++++++++++++++++++++++++++++++++++++++++++++++++++++++++++++++++++++++++",
"++++++++++++++++++++++++++++++++++++++++++++++++++++++++++++++++++++++++++++++++",
"++++++++++++++++++++++++++++++++++++++++++++++++++++++++++++++++++++++++++++++++",
"++++++++++++++++++++++++++++++++++++++++++++++++++++++++++++++++++++++++++++++++",
"++++++++++++++++++++++++++++++++++++++++++++++++++++++++++++++++++++++++++++++++",
"++++++++++++++++++++++++++++++++++++++++++++++++++++++++++++++++++++++++++++++++",
"++++++++++++++++++++++++++++++++++++++++++++++++++++++++++++++++++++++++++++++++",
"++++++++++++++++++++++++++++++++++++++++++++++++++++++++++++++++++++++++++++++++",
"++++++++++++++++++++++++++++++++++++++++++++++++++++++++++++++++++++++++++++++++",
"++++++++++++++++++++++++++++++++++++++++++++++++++++++++++++++++++++++++++++++++",
"++++++++++++++++++++++++++++++++++++++++++++++++++++++++++++++++++++++++++++++++",
"+++++++++++++++++++++++++XoX++++++++++++++++++++++++++++++++++++++++++++++++++++",
"+++++++++++++++++++++ooOOOOOOOX+++++++++++++++++++++++++++++++++++++++++++++++++",
"++++++++++++++++++++oOOOOOOOOOOO++++++++++++++++++++++++++++++++++++++++++++++++",
"+++++++++++++++++++oOOOOOOOOOOOOO+++++++++++++++++++++++++++++++++++++++++++++++",
"+++++++++++++++++++oOOOOo+++XOOOO.++++++++++++++++++++++++++++++++++++++++++++++",
"+++++++++++++++++++OOOO.+++++XOOOO++++++++++++++++++++++++++++++++++++++++++++++",
"+++++++++++++++++++OOOOo+++++oOOOO++++++++++++++++++++++++++++++++++++++++++++++",
"+++++++++++++++++++.OOOOOXoXOOOOOO++++++++++++++++++++++++++++++++++++++++++++++",
"++++++++++++++++++++OOOOOOOOOXoOOO++++++++++++++++++++++++++++++++++++++++++++++",
"+++++++++++++++++++++XOOOOO.++OOOO++++++++++++++++++++++++++++++++++++++++++++++",
"+++++++++++++++++++++o++o++++oOOOo++++++++++++++++++++++++++++++++++++++++++++++",
"++++++++++++++++++++oOOXoXoXOOOOO+++++++++++++++++++++++++++++++++++++++++++++++",
"+++++++++++++++++++XOOOOOOOOOOOO +++++++++++++++++++++++++++++++++++++++++++++++",
"++++++++++++++++++++XOOOOOOOOOO ++++++++++++++++++++++++++++++++++++++++++++++++",
"++++++++++++++++++++++oXOOOOXX++++++++++++++++++++++++++++++++++++++++++++++++++",
"++++++++++++++++++++++++++++++++++++++++++++++++++++++++++++++++++++++++++++++++",
"++++++++++++++++++++++++++++++++++++++++++++++++++++++++++++++++++++++++++++++++",
"++++++++++++++++++++++++++++++++++++++++++++++++++++++++++++++++++++++++++++++++",
"++++++++++++++++++++++++++++++++++++++++++++++++++++++++++++++++++++++++++++++++",
"++++++++++++++++++++++++++++++++++++++++++++++++++++++++++++++++++++++++++++++++",
"++++++++++++++++++++++++++++++++++++++++++++++++++++++++++++++++++++++++++++++++",
"++++++++++++++++++++++++++++++++++++++++++++++++++++++++++++++++++++++++++++++++",
"++++++++++++++++++++++++++++++++++++++++++++++++++++++++++++++++++++++++++++++++",
"++++++++++++++++++++++++++++++++++++++++++++++++++++++++++++++++++++++++++++++++",
"++++++++++++++++++++++++++++++++++++++++++++++++++++++++++++++++++++++++++++++++",
"++++++++++++++++++++++++++++++++++++++++++++++++++++++++++++++++++++++++++++++++",
"++++++++++++++++++++++++++++++++++++++++++++++++++++++++++++++++++++++++++++++++",
"++++++++++++++++++++++++++++++++++++++++++++++++++++++++++++++++++++++++++++++++",
"++++++++++++++++++++++++++++++++++++++++++++++++++++++++++++++++++++++++++++++++"
};
