/* XPM */
static const char * six_xpm[] = {
/* columns rows colors chars-per-pixel */
"80 40 6 1 ",
"  c #2A2323",
". c #2B2424",
"X c #2B2525",
"o c #2C2424",
"O c #2C2525",
"+ c None",
/* pixels */
"++++++++++++++++++++++++++++++++++++++++++++++++++++++++++++++++++++++++++++++++",
"++++++++++++++++++++++++++++++++++++++++++++++++++++++++++++++++++++++++++++++++",
"++++++++++++++++++++++++++++++++++++++++++++++++++++++++++++++++++++++++++++++++",
"++++++++++++++++++++++++++++++++++++++++++++++++++++++++++++++++++++++++++++++++",
"++++++++++++++++++++++++++++++++++++++++++++++++++++++++++++++++++++++++++++++++",
"++++++++++++++++++++++++++++++++++++++++++++++++++++++++++++++++++++++++++++++++",
"++++++++++++++++++++++++++++++++++++++++++++++++++++++++++++++++++++++++++++++++",
"++++++++++++++++++++++++++++++++++++++++++++++++++++++++++++++++++++++++++++++++",
"++++++++++++++++++++++++++++++++++++++++++++++++++++++++++++++++++++++++++++++++",
"++++++++++++++++++++++++++++++++++++++++++++++++++++++++++++++++++++++++++++++++",
"++++++++++++++++++++++++++++++++++++++++++++++++++++++++++++++++++++++++++++++++",
"++++++++++++++++++++++++++oo++++++++++++++++++++++++++++++++++++++++++++++++++++",
"++++++++++++++++++++++.OOOOOOOOo++++++++++++++++++++++++++++++++++++++++++++++++",
"+++++++++++++++++++++oOOOOOOOOOOOX++++++++++++++++++++++++++++++++++++++++++++++",
"++++++++++++++++++++XOOOOOOOOOOOO ++++++++++++++++++++++++++++++++++++++++++++++",
"+++++++++++++++++++oOOOO.+++++.oo+++++++++++++++++++++++++++++++++++++++++++++++",
"+++++++++++++++++++oOOOX++XoooX+++++++++++++++++++++++++++++++++++++++++++++++++",
"+++++++++++++++++++oOOO+oOOOOOOO.+++++++++++++++++++++++++++++++++++++++++++++++",
"+++++++++++++++++++OOOOXOOOOOOOOO ++++++++++++++++++++++++++++++++++++++++++++++",
"+++++++++++++++++++OOOOOX+++XOOOOO++++++++++++++++++++++++++++++++++++++++++++++",
"+++++++++++++++++++OOOOo+++++XOOOO++++++++++++++++++++++++++++++++++++++++++++++",
"+++++++++++++++++++XOOOO+++++oOOOO++++++++++++++++++++++++++++++++++++++++++++++",
"++++++++++++++++++++OOOOOo.ooOOOOo++++++++++++++++++++++++++++++++++++++++++++++",
"++++++++++++++++++++.OOOOOOOOOOOO+++++++++++++++++++++++++++++++++++++++++++++++",
"+++++++++++++++++++++.OOOOOOOOOo++++++++++++++++++++++++++++++++++++++++++++++++",
"+++++++++++++++++++++++.OOOOOXo+++++++++++++++++++++++++++++++++++++++++++++++++",
"++++++++++++++++++++++++++++++++++++++++++++++++++++++++++++++++++++++++++++++++",
"++++++++++++++++++++++++++++++++++++++++++++++++++++++++++++++++++++++++++++++++",
"++++++++++++++++++++++++++++++++++++++++++++++++++++++++++++++++++++++++++++++++",
"++++++++++++++++++++++++++++++++++++++++++++++++++++++++++++++++++++++++++++++++",
"++++++++++++++++++++++++++++++++++++++++++++++++++++++++++++++++++++++++++++++++",
"++++++++++++++++++++++++++++++++++++++++++++++++++++++++++++++++++++++++++++++++",
"++++++++++++++++++++++++++++++++++++++++++++++++++++++++++++++++++++++++++++++++",
"++++++++++++++++++++++++++++++++++++++++++++++++++++++++++++++++++++++++++++++++",
"++++++++++++++++++++++++++++++++++++++++++++++++++++++++++++++++++++++++++++++++",
"++++++++++++++++++++++++++++++++++++++++++++++++++++++++++++++++++++++++++++++++",
"++++++++++++++++++++++++++++++++++++++++++++++++++++++++++++++++++++++++++++++++",
"++++++++++++++++++++++++++++++++++++++++++++++++++++++++++++++++++++++++++++++++",
"++++++++++++++++++++++++++++++++++++++++++++++++++++++++++++++++++++++++++++++++",
"++++++++++++++++++++++++++++++++++++++++++++++++++++++++++++++++++++++++++++++++"
};
