/* XPM */
static const char * ten_xpm[] = {
/* columns rows colors chars-per-pixel */
"80 40 6 1 ",
"  c #2A2323",
". c #2B2424",
"X c #2B2525",
"o c #2C2424",
"O c #2C2525",
"+ c None",
/* pixels */
"++++++++++++++++++++++++++++++++++++++++++++++++++++++++++++++++++++++++++++++++",
"++++++++++++++++++++++++++++++++++++++++++++++++++++++++++++++++++++++++++++++++",
"++++++++++++++++++++++++++++++++++++++++++++++++++++++++++++++++++++++++++++++++",
"++++++++++++++++++++++++++++++++++++++++++++++++++++++++++++++++++++++++++++++++",
"++++++++++++++++++++++++++++++++++++++++++++++++++++++++++++++++++++++++++++++++",
"++++++++++++++++++++++++++++++++++++++++++++++++++++++++++++++++++++++++++++++++",
"++++++++++++++++++++++++++++++++++++++++++++++++++++++++++++++++++++++++++++++++",
"++++++++++++++++++++++++++++++++++++++++++++++++++++++++++++++++++++++++++++++++",
"++++++++++++++++++++++++++++++++++++++++++++++++++++++++++++++++++++++++++++++++",
"++++++++++++++++++++++++++++++++++++++++++++++++++++++++++++++++++++++++++++++++",
"++++++++++++++++++++++++++++++++++++++++++++++++++++++++++++++++++++++++++++++++",
"++++++++++++++++++++++ ooo ++++++++++oo+++++++++++++++++++++++++++++++++++++++++",
"+++++++++++++++++++++oOOOOo++++++XOOOOOOOOo+++++++++++++++++++++++++++++++++++++",
"+++++++++++++++++++OOOOOOOo++++ OOOOOOOOOOOO++++++++++++++++++++++++++++++++++++",
"+++++++++++++++++++OOOOOOOo++++OOOOOOX.OOOOOo+++++++++++++++++++++++++++++++++++",
"+++++++++++++++++++oOo.OOOo+++XOOOO.++++XOOOO.++++++++++++++++++++++++++++++++++",
"+++++++++++++++++++oo+oOOOo+++OOOO.++++++OOOOo++++++++++++++++++++++++++++++++++",
"++++++++++++++++++++++oOOOo+++OOOOo++++++oOOOO++++++++++++++++++++++++++++++++++",
"++++++++++++++++++++++oOOOo+++OOOO+++++++oOOOO++++++++++++++++++++++++++++++++++",
"++++++++++++++++++++++oOOOo+++OOOOo++++++XOOOO++++++++++++++++++++++++++++++++++",
"++++++++++++++++++++++oOOOo+++OOOOX++++++.OOOO++++++++++++++++++++++++++++++++++",
"++++++++++++++++++++++oOOOo+++OOOOO++++++OOOOX++++++++++++++++++++++++++++++++++",
"+++++++++++++++++++ooooOOOooo+oOOOOO.++XOOOOO+++++++++++++++++++++++++++++++++++",
"+++++++++++++++++++OOOOOOOOOOo+.OOOOOOOOOOOOo+++++++++++++++++++++++++++++++++++",
"+++++++++++++++++++OOOOOOOOOOo++oOOOOOOOOOOX++++++++++++++++++++++++++++++++++++",
"+++++++++++++++++++OOOOOOOOOOo++++o.OOOOX.++++++++++++++++++++++++++++++++++++++",
"++++++++++++++++++++++++++++++++++++++++++++++++++++++++++++++++++++++++++++++++",
"++++++++++++++++++++++++++++++++++++++++++++++++++++++++++++++++++++++++++++++++",
"++++++++++++++++++++++++++++++++++++++++++++++++++++++++++++++++++++++++++++++++",
"++++++++++++++++++++++++++++++++++++++++++++++++++++++++++++++++++++++++++++++++",
"++++++++++++++++++++++++++++++++++++++++++++++++++++++++++++++++++++++++++++++++",
"++++++++++++++++++++++++++++++++++++++++++++++++++++++++++++++++++++++++++++++++",
"++++++++++++++++++++++++++++++++++++++++++++++++++++++++++++++++++++++++++++++++",
"++++++++++++++++++++++++++++++++++++++++++++++++++++++++++++++++++++++++++++++++",
"++++++++++++++++++++++++++++++++++++++++++++++++++++++++++++++++++++++++++++++++",
"++++++++++++++++++++++++++++++++++++++++++++++++++++++++++++++++++++++++++++++++",
"++++++++++++++++++++++++++++++++++++++++++++++++++++++++++++++++++++++++++++++++",
"++++++++++++++++++++++++++++++++++++++++++++++++++++++++++++++++++++++++++++++++",
"++++++++++++++++++++++++++++++++++++++++++++++++++++++++++++++++++++++++++++++++",
"++++++++++++++++++++++++++++++++++++++++++++++++++++++++++++++++++++++++++++++++"
};
