/* XPM */
static const char * zero_xpm[] = {
/* columns rows colors chars-per-pixel */
"80 40 6 1 ",
"  c None",
". c #2A2323",
"X c #2B2424",
"o c #2B2525",
"O c #2C2424",
"+ c #2C2525",
/* pixels */
"                                                                                ",
"                                                                                ",
"                                                                                ",
"                                                                                ",
"                                                                                ",
"                                                                                ",
"                                                                                ",
"                                                                                ",
"                                                                                ",
"                                                                                ",
"                                                                                ",
"                                                                                ",
"                         o+                                                     ",
"                     +++++++++o                                                 ",
"                    ++++++++++++o                                               ",
"                   ++++++oo++++++                                               ",
"                  o++++o    ++++++                                              ",
"                  o++++      o++++                                              ",
"                  +++++      +++++                                              ",
"                  ++++o       +++++                                             ",
"                  +++++       ++++                                              ",
"                  O+++o      o++++                                              ",
"                  +++++      +++++                                              ",
"                   ++++++  .+++++.                                              ",
"                   o+++++++++++++                                               ",
"                    o++++++++++O                                                ",
"                      oo++++oO                                                  ",
"                                                                                ",
"                                                                                ",
"                                                                                ",
"                                                                                ",
"                                                                                ",
"                                                                                ",
"                                                                                ",
"                                                                                ",
"                                                                                ",
"                                                                                ",
"                                                                                ",
"                                                                                ",
"                                                                                "
};
